<svg width="584" height="584" viewBox="0 0 584 584" fill="none" xmlns="http://www.w3.org/2000/svg">
<rect width="584" height="584" fill="#F97316"/>
<path d="M284.125 332.478L284.126 332.479C287.689 333.716 291.571 334.335 295.769 334.335C299.862 334.335 303.69 333.716 307.254 332.479C310.818 331.241 313.826 329.407 316.276 326.976C316.292 326.959 316.302 326.937 316.301 326.913C316.3 326.89 316.29 326.868 316.273 326.852L312.533 323.505C312.501 323.476 312.451 323.476 312.419 323.506C310.147 325.587 307.637 327.1 304.891 328.046C302.142 328.992 299.182 329.465 296.008 329.465C292.675 329.465 289.582 328.968 286.728 327.975C283.873 326.934 281.39 325.491 279.277 323.647C277.164 321.756 275.5 319.581 274.285 317.123C273.124 314.62 272.543 311.879 272.543 308.9C272.543 305.921 273.124 303.204 274.285 300.748C275.5 298.242 277.164 296.068 279.277 294.224L279.277 294.224L279.277 294.223C281.39 292.332 283.873 290.89 286.727 289.896L286.729 289.896C289.582 288.855 292.675 288.335 296.008 288.335C299.182 288.335 302.142 288.808 304.891 289.754L304.892 289.754C307.638 290.652 310.147 292.141 312.419 294.222C312.451 294.252 312.501 294.252 312.533 294.223L316.273 290.876C316.29 290.861 316.3 290.839 316.301 290.815C316.302 290.792 316.292 290.769 316.276 290.753C313.826 288.322 310.818 286.511 307.253 285.321C303.69 284.083 299.888 283.465 295.849 283.465C291.65 283.465 287.768 284.107 284.205 285.392C280.642 286.63 277.53 288.391 274.869 290.677L274.869 290.678C272.261 292.964 270.212 295.655 268.722 298.751L268.722 298.751L268.721 298.753C267.284 301.85 266.565 305.233 266.565 308.9C266.565 312.567 267.284 315.949 268.721 319.047L268.722 319.048C270.212 322.144 272.261 324.836 274.869 327.122C277.476 329.408 280.562 331.193 284.125 332.478ZM328.681 333.823C328.681 333.869 328.72 333.908 328.766 333.908H334.654C334.701 333.908 334.739 333.869 334.739 333.823V318.099H349.611C351.168 318.099 352.653 318.027 354.067 317.883L366.729 333.875C366.745 333.896 366.77 333.908 366.796 333.908H373.24C373.273 333.908 373.303 333.889 373.317 333.859C373.331 333.83 373.327 333.795 373.307 333.77L359.789 316.791C360.488 316.585 361.164 316.355 361.815 316.1L361.816 316.099C365.222 314.718 367.835 312.763 369.649 310.231C371.517 307.652 372.45 304.596 372.45 301.067C372.45 297.444 371.518 294.364 369.649 291.831C367.835 289.253 365.222 287.297 361.815 285.963C358.408 284.581 354.339 283.892 349.611 283.892H328.766C328.72 283.892 328.681 283.93 328.681 283.977V333.823ZM349.452 313.443H334.739V288.619H349.452C355.012 288.619 359.207 289.71 362.05 291.878L362.051 291.878C364.944 294.044 366.393 297.103 366.393 301.067C366.393 304.983 364.945 308.019 362.051 310.185L362.05 310.185C359.207 312.353 355.012 313.443 349.452 313.443ZM386.176 333.823C386.176 333.869 386.214 333.908 386.261 333.908H391.909C391.956 333.908 391.994 333.869 391.994 333.823V294.466L413.717 327.532C413.733 327.556 413.76 327.57 413.788 327.57H416.573C416.602 327.57 416.628 327.556 416.644 327.532L438.367 294.24V333.823C438.367 333.869 438.405 333.908 438.452 333.908H444.1C444.147 333.908 444.185 333.869 444.185 333.823V283.977C444.185 283.93 444.147 283.892 444.1 283.892H439.247C439.218 283.892 439.192 283.907 439.176 283.931L415.294 320.748L391.185 283.93C391.169 283.907 391.142 283.892 391.114 283.892H386.261C386.214 283.892 386.176 283.93 386.176 283.977V333.823Z" fill="#FFEDD5" stroke="#FFEDD5" stroke-width="0.17" stroke-linejoin="round"/>
<path d="M253.974 182.15H270.874M296.224 182.15H313.124M338.474 182.15H355.374M380.724 182.15H397.624M427.199 245.525V173.7C427.199 164.366 419.633 156.8 410.299 156.8H228.625V427.2H410.299C419.633 427.2 427.199 419.633 427.199 410.3V372.275" stroke="white" stroke-width="2" stroke-linecap="round"/>
<path d="M169.475 182.15H203.275M194.825 203.275H169.475M169.475 245.525H203.275M169.475 270.875H203.275M169.475 296.225H203.275M169.475 346.925H203.275M169.475 321.575H203.275M169.475 401.85H194.825M156.8 427.2C147.467 427.2 139.9 419.633 139.9 410.3V173.7C139.9 164.366 147.467 156.8 156.8 156.8H228.625V427.2H156.8Z" stroke="white" stroke-width="2" stroke-linecap="round"/>
</svg>
