<svg width="584" height="584" viewBox="0 0 584 584" fill="none" xmlns="http://www.w3.org/2000/svg">
<rect width="584" height="584" fill="#1D4ED8"/>
<path d="M169.25 186.15H219.95M241.075 186.15H249.524M266.425 186.15H274.874M291.775 186.15H300.225M431.199 249.525V211.5M431.199 376.275V414.3C431.199 423.633 423.633 431.2 414.299 431.2H145.9C144.796 431.2 143.9 430.304 143.9 429.2V211.5M325.575 186.15H350.925M376.275 186.15H401.625M143.9 211.5V162.8C143.9 161.695 144.796 160.8 145.9 160.8H414.299C423.633 160.8 431.199 168.366 431.199 177.7V211.5M143.9 211.5H431.199M169.25 241.075H249.524M274.874 241.075H300.225M325.575 241.075H401.625M169.25 262.2H228.4M253.75 262.2H317.125M169.25 346.7H198.825M169.25 283.325H241.075M169.25 304.45H194.6M215.725 304.45H241.075M224.175 325.575H169.25" stroke="white" stroke-width="2" stroke-linecap="round"/>
<path d="M410.833 292.053V291.968H427.049C431.142 291.968 434.31 292.741 436.551 294.286C438.842 295.783 439.987 298.076 439.987 301.166C439.987 304.208 438.842 306.502 436.551 308.047C434.31 309.592 431.142 310.365 427.049 310.365H410.833V310.28M410.833 292.053H410.748V310.28H410.833M410.833 292.053V310.28M410.833 292.053H427.049C431.133 292.053 434.281 292.824 436.503 294.356L436.505 294.357C438.768 295.836 439.902 298.1 439.902 301.166C439.902 304.183 438.768 306.449 436.504 307.977L436.503 307.977C434.281 309.509 431.133 310.28 427.049 310.28H410.833M287.821 338.277L287.84 338.335H287.901H293.529H293.59L293.61 338.278L308.585 295.341L323.492 338.278L323.512 338.335H323.572H329.273H329.334L329.354 338.277L346.605 287.577L346.643 287.465H346.524H341.334H341.274L341.254 287.522L326.343 331.183L311.299 287.522L311.279 287.465H311.219H306.248H306.188L306.168 287.522L290.994 330.979L276.286 287.523L276.267 287.465H276.206H270.65H270.532L270.57 287.577L287.821 338.277ZM361.936 333.529V314.868H388.312H388.397V314.783V310.22V310.135H388.312H361.936V292.27H391.528H391.613V292.185V287.55V287.465H391.528H356.442H356.357V287.55V338.25V338.335H356.442H392.624H392.709V338.25V333.614V333.529H392.624H361.936ZM405.254 338.25V338.335H405.339H428.876C435.316 338.335 440.138 337.151 443.327 334.769C446.566 332.386 448.185 329.027 448.185 324.706C448.185 321.796 447.524 319.364 446.197 317.415C444.871 315.42 443.006 313.938 440.604 312.966C439.74 312.591 438.812 312.286 437.823 312.049C437.947 311.998 438.07 311.945 438.193 311.891C440.448 310.92 442.216 309.485 443.493 307.588C444.82 305.688 445.481 303.353 445.481 300.587C445.481 296.409 443.886 293.172 440.695 290.885C437.556 288.601 433.125 287.465 427.414 287.465H405.339H405.254V287.55V338.25ZM410.833 333.747V314.868H428.803C433.279 314.868 436.695 315.64 439.063 317.172L439.064 317.173C441.423 318.651 442.606 321.011 442.606 324.271C442.606 327.579 441.423 329.988 439.064 331.515C436.696 332.999 433.279 333.747 428.803 333.747H410.833Z" fill="#FCD34D" stroke="#FCD34D" stroke-width="0.17"/>
</svg>
