<svg width="312" height="308" viewBox="0 0 312 308" fill="none" xmlns="http://www.w3.org/2000/svg">
<path d="M71.8631 4.86657L71.8632 4.87211L71.8632 7.6191C71.8941 8.65734 71.5157 9.66618 70.8094 10.4279C70.1024 11.1904 69.1238 11.6441 68.0851 11.6909L68.0778 11.6912V11.6911L38.5615 11.9387L38.5571 11.9388V11.9387C38.0366 11.9317 37.5225 11.822 37.0445 11.6161C36.5664 11.4101 36.1336 11.1118 35.771 10.7383C35.4083 10.3648 35.1229 9.92339 34.9311 9.43943C34.7395 8.95599 34.6451 8.43954 34.6532 7.91959V5.17957V5.17683C34.6662 4.23231 34.3039 3.32123 33.6459 2.64352C32.9883 1.96617 32.0889 1.57723 31.145 1.56193H25.8184H25.8173L12.5646 1.71564L12.5638 1.71565C9.45154 1.74007 6.47594 2.99757 4.28937 5.21248C2.10288 7.4273 0.883799 10.4187 0.899366 13.5309C0.899367 13.531 0.899367 13.5312 0.899368 13.5313L2.51353 204.618C2.52671 206.156 2.84282 207.676 3.44382 209.092C4.04481 210.507 4.91889 211.791 6.01612 212.868C7.11334 213.946 8.41219 214.797 9.83844 215.373C11.2647 215.948 12.7904 216.237 14.3285 216.223L92.2522 215.582L92.2529 215.582M71.8631 4.86657L92.2529 215.582M71.8631 4.86657C71.8369 3.92333 72.1857 3.00817 72.8329 2.32152C73.4796 1.63543 74.3717 1.23336 75.314 1.2032C75.3148 1.20317 75.3155 1.20315 75.3163 1.20313L90.4533 1.07511C90.4535 1.07511 90.4536 1.07511 90.4537 1.07511C93.5558 1.0617 96.5375 2.27485 98.7491 4.45022C100.961 6.62561 102.223 9.5869 102.261 12.6888C102.261 12.6889 102.261 12.6891 102.261 12.6892L103.875 203.766M71.8631 4.86657L103.875 203.766M92.2529 215.582C95.3576 215.546 98.3222 214.284 100.5 212.071C102.677 209.857 103.89 206.872 103.875 203.766M92.2529 215.582L103.875 203.766" fill="white" stroke="black" stroke-width="0.4"/>
<path d="M90.4525 0.875H90.8539C91.2596 0.87777 91.6646 0.906294 92.0667 0.960405C93.6514 1.13573 95.1803 1.64826 96.5505 2.46355C97.5675 3.04542 98.4892 3.77992 99.2835 4.6414C100.258 5.67244 101.039 6.87005 101.589 8.17721C102.218 9.70768 102.534 11.3482 102.52 13.0026C102.52 14.762 102.52 16.6409 102.58 18.6224C102.725 34.4993 102.939 57.4564 103.212 85.8368C103.485 114.217 103.767 148.004 104.109 185.523C104.143 190.214 104.183 194.963 104.228 199.768C104.228 200.964 104.228 202.168 104.228 203.381C104.265 204.608 104.121 205.834 103.801 207.019C103.479 208.21 102.978 209.344 102.315 210.384C101.633 211.423 100.805 212.358 99.8557 213.16C97.9192 214.762 95.5301 215.717 93.0232 215.893C90.5294 215.987 88.0441 215.953 85.5417 215.995L70.365 216.124L39.226 216.38L23.3064 216.516L15.2611 216.576C12.5101 216.757 9.77592 216.028 7.48065 214.501C5.19736 212.949 3.51056 210.666 2.69791 208.027C2.31407 206.719 2.13545 205.359 2.1684 203.996C2.1684 202.655 2.1684 201.314 2.1684 199.982C2.12854 194.635 2.08299 189.326 2.03175 184.054C1.94065 173.503 1.8524 163.121 1.76699 152.906C1.59618 132.486 1.42537 112.765 1.26309 94.0272C1.10082 75.2892 0.964174 57.4308 0.818984 40.751C0.733578 32.4154 0.662406 24.3673 0.605469 16.6068V13.7201C0.605469 13.2418 0.605468 12.755 0.665253 12.2767C0.725037 11.7984 0.776281 11.3201 0.895849 10.8504C1.30588 8.99222 2.14861 7.25701 3.35554 5.78584C4.52525 4.36275 6.00586 3.22698 7.68342 2.46593C9.36099 1.70488 11.1908 1.33884 13.032 1.39598L23.4174 1.31057H28.4136H30.8648C31.6956 1.25955 32.5204 1.48148 33.2135 1.94257C33.8918 2.40653 34.406 3.07319 34.6824 3.84713C34.9176 4.6064 35.0074 5.40322 34.9472 6.19579C34.9472 6.58012 34.9472 6.97299 34.9472 7.35731C34.9426 7.73661 34.9597 8.11586 34.9984 8.49321C35.0989 9.22829 35.4138 9.91747 35.9037 10.4746C36.3826 11.0276 37.0211 11.4185 37.7314 11.5934C38.0845 11.6716 38.4463 11.7032 38.8075 11.6874H39.8922H44.1625L59.8686 11.5764L66.7951 11.5251C67.3417 11.5251 67.9053 11.5251 68.4178 11.5251C68.9381 11.4602 69.4372 11.2792 69.8782 10.9956C70.299 10.7216 70.6613 10.3669 70.9443 9.95206C71.2272 9.53721 71.4251 9.0704 71.5265 8.57861C71.6036 8.10162 71.6294 7.61774 71.6034 7.13526C71.6034 6.65698 71.6034 6.17871 71.6034 5.70898C71.5752 5.2157 71.5952 4.72084 71.6632 4.23145C71.7318 3.78479 71.8792 3.35389 72.0988 2.95891C72.5095 2.18684 73.1771 1.58261 73.9862 1.25078C74.7476 0.997728 75.553 0.904684 76.352 0.977486L84.0812 0.926245H88.8298L84.0812 0.977486L76.352 1.05435C75.5672 0.991603 74.7777 1.08448 74.0289 1.32765C73.2461 1.65147 72.6001 2.23713 72.2013 2.98453C71.9924 3.37357 71.8509 3.79517 71.7828 4.23145C71.7224 4.6843 71.7053 5.14185 71.7315 5.59795C71.7315 6.06768 71.7315 6.53741 71.7315 7.02422C71.7566 7.51806 71.7309 8.01318 71.6547 8.50175C71.5511 9.01165 71.3466 9.49571 71.0533 9.92545C70.76 10.3552 70.3837 10.7219 69.9465 11.0041C69.4906 11.2986 68.9737 11.4855 68.4349 11.5507C67.8883 11.6105 67.3502 11.5507 66.8036 11.5507L59.8772 11.6105L44.1625 11.7557H39.8922H38.7819C38.4061 11.7721 38.0297 11.7376 37.6631 11.6532C36.9102 11.4761 36.232 11.0668 35.7244 10.4832C35.228 9.92417 34.8968 9.23814 34.7678 8.50175C34.7254 8.11611 34.7083 7.72811 34.7166 7.34023C34.7166 6.9559 34.7166 6.57157 34.7166 6.17871C34.7744 5.40926 34.6875 4.6358 34.4604 3.89837C34.1999 3.15561 33.7092 2.51533 33.0597 2.07068C32.4015 1.6342 31.6189 1.42431 30.8306 1.47284H28.3795L23.3832 1.51554L12.9979 1.66928C11.2158 1.62957 9.44661 1.97934 7.81373 2.69414C6.16224 3.45305 4.70274 4.57395 3.54343 5.97373C2.3618 7.41873 1.53674 9.12149 1.13498 10.9444C1.01542 11.397 0.989796 11.8667 0.912931 12.3365C0.836065 12.8062 0.861686 13.2759 0.861686 13.7542V16.6409C0.930011 24.3901 1.00118 32.4382 1.0752 40.7852C1.22893 57.4735 1.38266 75.3063 1.55348 94.07C1.72429 112.834 1.88656 132.503 2.06591 152.94C2.15701 163.155 2.24811 173.537 2.33921 184.088C2.37906 189.366 2.42461 194.678 2.47586 200.025C2.47586 201.357 2.47586 202.698 2.47586 204.039C2.44742 205.367 2.62313 206.692 2.99683 207.967C3.7869 210.534 5.425 212.756 7.64291 214.27C9.88222 215.754 12.5465 216.462 15.227 216.286L23.2722 216.217L39.2004 216.089L70.3394 215.833L85.5075 215.714C88.0099 215.671 90.5208 215.714 92.9805 215.611C95.4273 215.447 97.7606 214.518 99.6507 212.955C100.575 212.177 101.381 211.267 102.042 210.256C102.693 209.245 103.183 208.138 103.494 206.977C103.804 205.819 103.945 204.622 103.912 203.424C103.912 202.219 103.912 201.015 103.912 199.811C103.878 195.011 103.838 190.265 103.793 185.574C103.485 148.046 103.204 114.26 102.939 85.8795C102.674 57.4991 102.537 34.542 102.409 18.6651C102.409 16.6836 102.409 14.8047 102.367 13.0453C102.388 11.4038 102.08 9.7746 101.461 8.25407C100.916 6.95966 100.147 5.77143 99.1895 4.74389C98.4176 3.87097 97.516 3.12202 96.5163 2.52333C95.1568 1.70057 93.6365 1.17924 92.0581 0.994568C91.6596 0.932011 91.2572 0.897764 90.8539 0.892082L90.4525 0.875Z" fill="#263238"/>
<path d="M92.9218 20.1505C92.9218 20.2018 90.9575 20.2786 88.532 20.3128C86.1064 20.347 84.1336 20.3128 84.125 20.3128C84.1165 20.3128 86.0979 20.1932 88.5234 20.1505C90.949 20.1078 92.9218 20.0993 92.9218 20.1505Z" fill="#263238"/>
<path d="M92.9648 22.3966C92.9648 22.4479 90.9919 22.5247 88.5664 22.5674C86.1409 22.6101 84.168 22.5674 84.168 22.5674C84.168 22.5674 86.1323 22.4393 88.5664 22.3966C91.0005 22.3539 92.9648 22.3454 92.9648 22.3966Z" fill="#263238"/>
<path d="M92.996 24.6515C92.996 24.7028 91.0317 24.7796 88.6062 24.8138C86.1807 24.8479 84.2078 24.8138 84.1992 24.8138C84.1907 24.8138 86.1721 24.6942 88.5976 24.6515C91.0232 24.6088 92.996 24.6003 92.996 24.6515Z" fill="#263238"/>
<path d="M12.9891 27.9229H13.1685H13.6809L15.5513 27.8631L15.5001 27.9143C15.5001 27.4958 15.5001 27.0603 15.5001 26.5564C15.5001 26.3002 15.5001 26.061 15.5001 25.7706C15.5291 25.6195 15.6049 25.4812 15.7168 25.3755C15.8287 25.2698 15.9709 25.2018 16.1235 25.1813C16.431 25.1813 16.6957 25.1813 17.0203 25.1813C17.1938 25.2043 17.353 25.2898 17.4679 25.422C17.5827 25.5541 17.6452 25.7237 17.6437 25.8988C17.6437 26.5393 17.6437 27.1969 17.6437 27.8887L17.5498 27.8033H19.9241L19.8301 27.8887C19.8301 26.9407 19.8301 25.95 19.7789 24.9422C19.7789 24.686 19.7789 24.4383 19.7789 24.1906C19.7655 24.0789 19.7281 23.9714 19.6691 23.8755C19.6101 23.7797 19.531 23.6978 19.4373 23.6355L18.3953 22.6192L17.3875 21.6455C17.2253 21.4833 17.0544 21.3295 16.9007 21.1673C16.747 21.005 16.5932 20.8427 16.4054 20.8086C16.3118 20.784 16.2139 20.7813 16.1191 20.8005C16.0244 20.8198 15.9353 20.8605 15.8588 20.9196C15.7221 21.0392 15.5684 21.21 15.4232 21.3552C15.1328 21.6541 14.851 21.9359 14.5691 22.2092C14.0311 22.7729 13.4845 23.2853 13.0831 23.7636C12.971 24.0334 12.9327 24.3282 12.972 24.6177V25.4717C12.972 25.9842 12.972 26.4283 12.972 26.8126V27.6667C12.972 27.8631 12.972 27.9741 12.972 27.9741C12.96 27.8806 12.96 27.7858 12.972 27.6923C12.972 27.4588 12.972 27.1741 12.972 26.8382C12.972 26.4453 12.972 25.9842 12.972 25.4803C12.972 25.2155 12.972 24.9251 12.972 24.6262C12.972 24.481 12.972 24.3187 12.972 24.165C12.9631 23.9907 13.0078 23.8178 13.1001 23.6697C13.5272 23.1231 14.0482 22.6448 14.5862 22.0726L15.4403 21.2185C15.594 21.0648 15.7136 20.911 15.8929 20.7573C15.9902 20.6834 16.1031 20.6326 16.223 20.609C16.3429 20.5853 16.4666 20.5893 16.5847 20.6207C16.8092 20.6984 17.0074 20.8375 17.1569 21.0221L17.6437 21.4918L18.5405 22.4056L19.5825 23.4134C19.6811 23.4971 19.7699 23.5916 19.8472 23.6953C19.9311 23.8122 19.976 23.9527 19.9753 24.0967C19.9753 24.3444 19.9753 24.6006 19.9753 24.8483C19.9753 25.8646 19.9753 26.8468 20.0266 27.8033V27.8972H19.9326H17.5669H17.4815V27.8118C17.4815 27.1286 17.4815 26.4624 17.4815 25.8304C17.4851 25.6932 17.4386 25.5593 17.3505 25.4539C17.2624 25.3486 17.1389 25.279 17.0032 25.2582C16.7299 25.2582 16.4054 25.2582 16.1491 25.2582C16.0255 25.2712 15.9095 25.324 15.8186 25.4088C15.7277 25.4935 15.6668 25.6055 15.6452 25.7279C15.6452 25.9671 15.6452 26.2404 15.6452 26.4795C15.6452 26.9749 15.6452 27.4275 15.6452 27.846V27.8972H13.1514C13.0404 27.9314 12.9806 27.9314 12.9891 27.9229Z" fill="#263238"/>
<path d="M86.2664 39.161L15.9374 39.787C12.4188 39.8184 9.5918 42.6962 9.62312 46.2148L9.64418 48.5804C9.6755 52.0991 12.5533 54.9261 16.0719 54.8947L86.4009 54.2687C89.9195 54.2374 92.7466 51.3596 92.7152 47.841L92.6942 45.4753C92.6629 41.9567 89.7851 39.1297 86.2664 39.161Z" fill="#F5F5F5"/>
<path d="M86.3866 54.2875L86.8649 54.2363C87.3282 54.1901 87.7859 54.0985 88.2314 53.963C88.9515 53.7252 89.6249 53.3639 90.2213 52.8954C91.0376 52.2538 91.683 51.4206 92.1002 50.4699C92.3487 49.9113 92.51 49.318 92.5785 48.7105C92.6362 48.0317 92.6505 47.3499 92.6212 46.6693C92.6399 45.93 92.5999 45.1903 92.5016 44.4573C92.364 43.674 92.0738 42.9253 91.6476 42.2538C91.1841 41.5062 90.5693 40.864 89.8426 40.3683C89.116 39.8726 88.2937 39.5344 87.4285 39.3757C86.4702 39.269 85.5048 39.2404 84.5418 39.2902H81.4757L15.9779 39.9479C14.4176 39.9607 12.9192 40.5598 11.7801 41.6261C10.6409 42.6925 9.9444 44.1482 9.82871 45.7042C9.82871 46.4558 9.82871 47.2501 9.82871 48.0187C9.80115 48.7761 9.88752 49.5332 10.0849 50.2649C10.4954 51.6974 11.404 52.9362 12.6471 53.758C13.262 54.1676 13.9488 54.4574 14.6712 54.6121C15.3917 54.7468 16.1256 54.7955 16.8576 54.7573H21.256L29.7966 54.6804L59.2702 54.4583L79.1356 54.3302H84.5418H85.9425C86.2585 54.3302 86.4207 54.3302 86.4207 54.3302H85.9425H84.5418L79.1356 54.4071L59.2702 54.6292L29.8052 54.9281L21.2646 55.0049H16.8662C16.1112 55.0422 15.3544 54.9906 14.6114 54.8512C13.8593 54.6979 13.1415 54.4084 12.4934 53.9971C11.1699 53.1497 10.1942 51.8558 9.7433 50.3503C9.53335 49.5917 9.44118 48.8053 9.47 48.0187C9.47 47.2415 9.47 46.4814 9.47 45.6786C9.592 44.047 10.3225 42.5207 11.5168 41.4024C12.7111 40.284 14.282 39.6551 15.9181 39.6404L81.4757 39.1024H84.5418C85.5192 39.052 86.4991 39.0834 87.4712 39.1963C88.3606 39.3647 89.205 39.7167 89.9506 40.23C90.6962 40.7432 91.3265 41.4063 91.8013 42.177C92.2231 42.8754 92.5126 43.6455 92.6554 44.4488C92.7519 45.1905 92.7862 45.939 92.7579 46.6864C92.7842 47.3729 92.7671 48.0604 92.7066 48.7447C92.6307 49.3657 92.4578 49.9709 92.1942 50.5382C91.7695 51.5012 91.1085 52.3413 90.2726 52.9808C89.6642 53.4483 88.9793 53.8067 88.2484 54.0398C87.794 54.1694 87.3276 54.2524 86.8563 54.2875H86.3866Z" fill="#263238"/>
<path d="M87.5984 46.3542C87.5984 46.3542 87.5984 46.115 87.4532 45.7051C87.2772 45.1324 86.9207 44.6321 86.4369 44.2788C86.0536 44.0063 85.6027 43.8445 85.1336 43.8112C84.6644 43.7779 84.1952 43.8744 83.7773 44.0901C83.3593 44.3057 83.0088 44.6322 82.7641 45.0338C82.5194 45.4355 82.39 45.8967 82.39 46.367C82.39 46.8373 82.5194 47.2985 82.7641 47.7001C83.0088 48.1017 83.3593 48.4283 83.7773 48.6439C84.1952 48.8596 84.6644 48.956 85.1336 48.9227C85.6027 48.8894 86.0536 48.7277 86.4369 48.4552C86.9173 48.0966 87.2657 47.5891 87.4276 47.0118C87.5386 46.6018 87.5386 46.3542 87.5642 46.3542C87.5898 46.3542 87.5642 46.4139 87.5642 46.5335C87.586 46.7008 87.586 46.8702 87.5642 47.0374C87.4426 47.6679 87.1042 48.2359 86.6077 48.643C86.2345 48.9437 85.791 49.1445 85.3189 49.2267C84.8469 49.3088 84.3616 49.2696 83.9088 49.1128C83.3491 48.9193 82.8629 48.5574 82.517 48.0767C82.171 47.596 81.9823 47.02 81.9767 46.4278C81.9711 45.8355 82.1488 45.2561 82.4856 44.7689C82.8224 44.2817 83.3016 43.9106 83.8576 43.7066C84.3069 43.5416 84.7906 43.4926 85.2639 43.5643C85.7371 43.6359 86.1846 43.8259 86.565 44.1165C87.0745 44.5047 87.4288 45.0619 87.5642 45.688C87.6039 45.8559 87.624 46.0279 87.624 46.2004C87.6155 46.2944 87.6155 46.3542 87.5984 46.3542Z" fill="#263238"/>
<path d="M89.1525 51.0602C88.634 50.7399 88.1746 50.3325 87.7946 49.856C87.3399 49.4508 86.961 48.9678 86.6758 48.4297C87.1897 48.7563 87.6457 49.1662 88.0252 49.6424C88.4745 50.0516 88.8551 50.5303 89.1525 51.0602Z" fill="#263238"/>
<path d="M20.8213 45.7984H19.3438V45.4141H22.76V45.8069H21.2739V49.6417H20.8213V45.7984Z" fill="#E0E0E0"/>
<path d="M25.8197 48.1304H23.1721C23.194 48.4417 23.3385 48.7316 23.5738 48.9366C23.8092 49.1415 24.1162 49.2447 24.4276 49.2236C24.6097 49.2262 24.7902 49.1893 24.9568 49.1156C25.1234 49.0419 25.2721 48.9331 25.3927 48.7966L25.6403 49.0699C25.4093 49.2957 25.119 49.4514 24.803 49.5189C24.4871 49.5864 24.1584 49.5629 23.8553 49.4511C23.5522 49.3393 23.287 49.1439 23.0905 48.8874C22.8939 48.631 22.7742 48.3241 22.7451 48.0023C22.7322 47.7931 22.7625 47.5834 22.8341 47.3864C22.9056 47.1893 23.017 47.0091 23.1611 46.8569C23.3053 46.7047 23.4793 46.5838 23.6721 46.5017C23.865 46.4196 24.0728 46.378 24.2824 46.3796C24.4907 46.3733 24.6981 46.4105 24.8914 46.4886C25.0846 46.5668 25.2594 46.6844 25.4048 46.8337C25.5502 46.9831 25.6629 47.1611 25.7358 47.3564C25.8087 47.5517 25.8402 47.76 25.8282 47.9681C25.8282 48.0365 25.8197 48.0792 25.8197 48.1304ZM23.1721 47.8315H25.4183C25.3938 47.5505 25.2648 47.289 25.0569 47.0984C24.849 46.9079 24.5772 46.8022 24.2952 46.8022C24.0132 46.8022 23.7414 46.9079 23.5335 47.0984C23.3256 47.289 23.1966 47.5505 23.1721 47.8315Z" fill="#E0E0E0"/>
<path d="M28.643 49.5563L27.6181 48.241L26.6189 49.5733H26.1406L27.379 47.9335L26.1748 46.4048H26.6531L27.6181 47.6346L28.5576 46.3877H29.0273L27.8487 47.9335L29.1298 49.5563H28.643Z" fill="#E0E0E0"/>
<path d="M31.5052 49.3424C31.3163 49.4925 31.0804 49.5712 30.8391 49.5644C30.7147 49.5761 30.5892 49.5604 30.4715 49.5183C30.3538 49.4762 30.2468 49.4088 30.158 49.3208C30.0693 49.2328 30.0009 49.1265 29.9577 49.0092C29.9145 48.8919 29.8976 48.7666 29.9082 48.6421V46.729H29.3359V46.3617H29.8996V45.6699H30.3352V46.3617H31.3003V46.729H30.3181V48.6164C30.3181 48.9922 30.5145 49.1972 30.8647 49.1886C31.0361 49.1954 31.2038 49.1375 31.3344 49.0264L31.5052 49.3424Z" fill="#E0E0E0"/>
<path d="M31.4986 67.3196L13.3164 67.4814L13.4783 85.6636L31.6605 85.5018L31.4986 67.3196Z" fill="#4F46E5"/>
<path d="M66.4787 68.8498C66.4787 68.9352 60.4063 69.0548 52.9077 69.1231C45.409 69.1914 39.3281 69.1744 39.3281 69.1231C39.3281 69.0719 45.4005 68.9181 52.8991 68.8498C60.3978 68.7815 66.4787 68.7644 66.4787 68.8498Z" fill="#4F46E5"/>
<path d="M88.1891 74.2644C88.1891 74.3498 77.2572 74.5206 63.7801 74.6402C50.3031 74.7597 39.3711 74.7854 39.3711 74.7C39.3711 74.6146 50.2945 74.4438 63.7801 74.3242C77.2657 74.2046 88.1891 74.1448 88.1891 74.2644Z" fill="#263238"/>
<path d="M87.6521 78.2192C87.6521 78.3046 76.8482 78.4669 63.5334 78.5865C50.2186 78.706 39.4062 78.7317 39.4062 78.6463C39.4062 78.5609 50.2016 78.3986 63.5249 78.279C76.8482 78.1594 87.6521 78.1338 87.6521 78.2192Z" fill="#263238"/>
<path d="M67.9243 82.1908C67.9243 82.2762 61.553 82.4043 53.6871 82.4726C45.8212 82.541 39.4414 82.5239 39.4414 82.4726C39.4414 82.4214 45.8212 82.2677 53.6871 82.1993C61.553 82.131 67.9243 82.1054 67.9243 82.1908Z" fill="#263238"/>
<path d="M31.9251 97.4051L13.7422 97.5869L13.924 115.77L32.1069 115.588L31.9251 97.4051Z" fill="#4F46E5"/>
<path d="M66.7528 99.1434C66.7528 99.2288 60.6719 99.3569 53.1733 99.4167C45.6747 99.4765 39.5938 99.4679 39.5938 99.4167C39.5938 99.3654 45.6661 99.2117 53.1733 99.1434C60.6805 99.0751 66.7528 99.0324 66.7528 99.1434Z" fill="#4F46E5"/>
<path d="M88.454 104.524C88.454 104.609 77.5306 104.78 64.0535 104.9C50.5765 105.019 39.6445 105.045 39.6445 104.959C39.6445 104.874 50.5679 104.703 64.045 104.592C77.5221 104.481 88.454 104.438 88.454 104.524Z" fill="#263238"/>
<path d="M87.917 108.512C87.917 108.598 77.1216 108.76 63.7983 108.879C50.475 108.999 39.6797 109.025 39.6797 108.939C39.6797 108.854 50.475 108.692 63.7983 108.572C77.1216 108.452 87.917 108.427 87.917 108.512Z" fill="#263238"/>
<path d="M68.1853 112.484C68.1853 112.569 61.814 112.697 53.9481 112.765C46.0822 112.834 39.7109 112.825 39.7109 112.765C39.7109 112.706 46.0822 112.552 53.9481 112.484C61.814 112.415 68.1853 112.398 68.1853 112.484Z" fill="#263238"/>
<path d="M32.0377 127.788L13.8555 127.95L14.0173 146.132L32.1995 145.971L32.0377 127.788Z" fill="#3731A0"/>
<path d="M67.0185 129.437C67.0185 129.522 60.9376 129.65 53.4389 129.71C45.9403 129.77 39.8594 129.761 39.8594 129.71C39.8594 129.659 45.9403 129.505 53.4389 129.437C60.9376 129.368 67.0185 129.351 67.0185 129.437Z" fill="#4F46E5"/>
<path d="M88.7196 134.826C88.7196 134.911 77.7962 135.073 64.3192 135.193C50.8421 135.312 39.9102 135.338 39.9102 135.253C39.9102 135.167 50.8336 135.005 64.3192 134.885C77.8048 134.766 88.7196 134.74 88.7196 134.826Z" fill="#263238"/>
<path d="M88.1826 138.806C88.1826 138.892 77.3873 139.054 64.0639 139.173C50.7406 139.293 39.9453 139.319 39.9453 139.233C39.9453 139.148 50.7406 138.985 64.0639 138.866C77.3873 138.746 88.1826 138.721 88.1826 138.806Z" fill="#263238"/>
<path d="M68.4594 142.778C68.4594 142.863 62.0796 142.991 54.2223 143.059C46.3649 143.128 39.9766 143.119 39.9766 143.059C39.9766 143 46.3478 142.846 54.2137 142.778C62.0796 142.709 68.4594 142.692 68.4594 142.778Z" fill="#263238"/>
<path d="M32.3072 158.079L14.125 158.241L14.2868 176.423L32.469 176.262L32.3072 158.079Z" fill="#4F46E5"/>
<path d="M67.2802 159.731C67.2802 159.816 61.2078 159.944 53.7092 160.004C46.2105 160.064 40.1211 160.055 40.1211 160.004C40.1211 159.953 46.202 159.799 53.7006 159.731C61.1993 159.662 67.2802 159.671 67.2802 159.731Z" fill="#455A64"/>
<path d="M88.9938 165.12C88.9938 165.205 78.0619 165.367 64.5848 165.487C51.1077 165.606 40.1758 165.632 40.1758 165.547C40.1758 165.461 51.0992 165.299 64.5848 165.179C78.0704 165.06 88.9938 165.034 88.9938 165.12Z" fill="#263238"/>
<path d="M88.4443 169.064C88.4443 169.149 77.649 169.32 64.3342 169.431C51.0194 169.542 40.207 169.576 40.207 169.491C40.207 169.406 51.0023 169.243 64.3257 169.124C77.649 169.004 88.4443 169.013 88.4443 169.064Z" fill="#263238"/>
<path d="M68.7251 173.071C68.7251 173.156 62.3538 173.284 54.4879 173.352C46.622 173.421 40.2422 173.412 40.2422 173.352C40.2422 173.293 46.6135 173.139 54.4794 173.071C62.3452 173.002 68.7251 172.985 68.7251 173.071Z" fill="#263238"/>
<path d="M32.8353 188.294L14.6523 188.476L14.8342 206.659L33.0171 206.477L32.8353 188.294Z" fill="#E0E0E0"/>
<path d="M67.5536 190.024C67.5536 190.109 61.4727 190.237 53.9741 190.305C46.4754 190.374 40.3945 190.348 40.3945 190.263C40.3945 190.177 46.4669 190.058 53.9655 189.989C61.4642 189.921 67.5451 189.938 67.5536 190.024Z" fill="#E0E0E0"/>
<path d="M89.2555 195.413C89.2555 195.498 78.3236 195.66 64.8465 195.78C51.3695 195.899 40.4375 195.925 40.4375 195.84C40.4375 195.754 51.3695 195.592 64.8465 195.472C78.3236 195.353 89.2555 195.327 89.2555 195.413Z" fill="#EBEBEB"/>
<path d="M88.7185 199.393C88.7185 199.478 77.9146 199.649 64.5998 199.76C51.285 199.871 40.4812 199.906 40.4727 199.82C40.4641 199.735 51.2765 199.572 64.5998 199.453C77.9231 199.333 88.7185 199.308 88.7185 199.393Z" fill="#EBEBEB"/>
<path d="M68.9907 203.363C68.9907 203.449 62.6194 203.577 54.7535 203.645C46.8876 203.714 40.5078 203.705 40.5078 203.645C40.5078 203.586 46.8876 203.432 54.7535 203.363C62.6194 203.295 68.9907 203.278 68.9907 203.363Z" fill="#EBEBEB"/>
<g opacity="0.3">
<path d="M32.3072 158.077L14.125 158.239L14.2868 176.421L32.469 176.26L32.3072 158.077Z" fill="black"/>
</g>
<path d="M303.257 208.852L303.257 208.852C304.281 208.858 305.294 209.067 306.236 209.468C307.179 209.868 308.032 210.451 308.748 211.184C309.463 211.916 310.026 212.784 310.404 213.735C310.782 214.687 310.968 215.704 310.95 216.727L310.95 216.729L310.216 298.719L310.216 298.719C310.208 299.736 310 300.742 309.603 301.678C309.206 302.615 308.629 303.464 307.903 304.177C307.178 304.89 306.319 305.453 305.376 305.833C304.433 306.214 303.424 306.405 302.407 306.395L302.406 306.395L250.385 306.036H250.385C249.369 306.031 248.363 305.825 247.426 305.431C246.49 305.037 245.64 304.462 244.925 303.739C244.211 303.016 243.646 302.159 243.263 301.218C242.88 300.276 242.686 299.269 242.692 298.252C242.692 298.252 242.692 298.252 242.692 298.252L243.427 216.263L243.427 216.263C243.434 215.245 243.643 214.239 244.039 213.302C244.436 212.365 245.013 211.515 245.739 210.802C246.464 210.088 247.323 209.524 248.266 209.143C249.209 208.761 250.219 208.569 251.236 208.578L251.236 208.578L260.076 208.647H260.077H263.626C264.231 208.676 264.802 208.937 265.22 209.376C265.64 209.816 265.874 210.401 265.873 211.008V211.009V212.834C265.859 213.55 266.128 214.241 266.621 214.759C267.115 215.277 267.794 215.579 268.51 215.599V215.599L268.514 215.599L288.209 215.735L288.213 215.735C288.57 215.73 288.923 215.655 289.251 215.513C289.579 215.371 289.875 215.165 290.123 214.908L289.979 214.769L290.123 214.908C290.371 214.651 290.565 214.347 290.695 214.014C290.824 213.682 290.887 213.327 290.878 212.971L290.878 211.145L290.878 211.141C290.872 210.837 290.926 210.535 291.037 210.251C291.148 209.968 291.313 209.71 291.524 209.49C291.736 209.271 291.988 209.096 292.267 208.975L292.187 208.792L292.267 208.975C292.545 208.854 292.844 208.789 293.148 208.783L303.257 208.852ZM260.077 208.447L251.238 208.378L260.077 208.447Z" fill="white" stroke="black" stroke-width="0.4"/>
<path d="M303.259 208.65H304.113C304.936 208.744 305.74 208.963 306.496 209.299C307.959 209.963 309.189 211.05 310.026 212.421C310.864 213.791 311.27 215.381 311.194 216.986C311.125 225.279 311.023 237.261 310.903 252.07C310.843 259.475 310.775 267.589 310.698 276.3C310.664 280.656 310.624 285.157 310.579 289.803C310.579 292.117 310.579 294.474 310.519 296.857C310.579 298.065 310.49 299.276 310.254 300.461C309.945 301.661 309.36 302.773 308.546 303.707C307.728 304.65 306.705 305.395 305.557 305.885C304.387 306.36 303.128 306.573 301.867 306.508L294.258 306.457L278.569 306.354L262.341 306.243L254.023 306.184C252.631 306.184 251.239 306.184 249.821 306.124C248.392 306.019 247.018 305.532 245.841 304.715C244.67 303.891 243.739 302.771 243.142 301.469C242.561 300.176 242.309 298.759 242.408 297.344C242.408 294.554 242.433 291.781 242.485 289.026C242.536 283.52 242.584 278.111 242.63 272.798C242.732 262.14 242.826 251.857 242.912 242.052C242.951 237.156 242.997 232.384 243.048 227.738C243.048 225.424 243.091 223.135 243.108 220.906C243.108 219.778 243.108 218.66 243.108 217.549C243.056 216.447 243.142 215.342 243.364 214.261C243.631 213.212 244.107 212.227 244.765 211.367C245.422 210.507 246.248 209.789 247.19 209.256C248.103 208.735 249.111 208.401 250.154 208.274C251.196 208.163 252.212 208.232 253.229 208.223L259.164 208.266H262.043H263.46C263.939 208.25 264.412 208.368 264.827 208.607C265.227 208.854 265.556 209.201 265.78 209.615C266.003 210.029 266.113 210.494 266.099 210.965C266.099 211.417 266.099 211.87 266.099 212.314C266.058 212.749 266.104 213.187 266.236 213.604C266.373 214.008 266.614 214.369 266.935 214.651C267.256 214.933 267.645 215.125 268.064 215.209C268.918 215.295 269.772 215.209 270.626 215.269L280.02 215.337L288.219 215.406C288.818 215.384 289.388 215.146 289.824 214.736C290.261 214.326 290.534 213.772 290.594 213.177C290.594 212.613 290.594 212.041 290.594 211.468C290.553 210.93 290.647 210.39 290.867 209.897C291.088 209.453 291.433 209.082 291.861 208.831C292.288 208.579 292.78 208.457 293.275 208.479H295.838H299.869L303.2 208.522H299.869H295.838H293.275C292.791 208.496 292.31 208.614 291.893 208.862C291.477 209.11 291.143 209.476 290.935 209.914C290.717 210.395 290.626 210.925 290.671 211.451C290.671 212.007 290.671 212.562 290.671 213.159C290.609 213.774 290.329 214.345 289.88 214.769C289.431 215.192 288.845 215.44 288.228 215.465L280.02 215.414L270.626 215.354C269.772 215.354 268.918 215.354 268.064 215.295C267.621 215.204 267.211 214.999 266.873 214.699C266.536 214.399 266.283 214.015 266.142 213.587C266.006 213.156 265.957 212.704 265.997 212.254C265.997 211.81 265.997 211.357 265.997 210.905C266.008 210.456 265.901 210.013 265.686 209.618C265.472 209.224 265.158 208.893 264.776 208.659C264.381 208.426 263.927 208.313 263.469 208.334H262.06H259.181L253.246 208.291C252.226 208.257 251.206 208.274 250.188 208.343C248.614 208.538 247.136 209.205 245.948 210.255C244.759 211.305 243.915 212.689 243.527 214.227C243.308 215.3 243.221 216.396 243.27 217.49C243.27 218.591 243.27 219.71 243.27 220.837C243.27 223.084 243.228 225.373 243.211 227.67C243.171 232.305 243.128 237.073 243.082 241.975C242.997 251.771 242.912 262.054 242.818 272.722C242.766 278.051 242.718 283.46 242.672 288.949C242.672 291.699 242.647 294.472 242.596 297.267C242.499 298.657 242.742 300.049 243.304 301.324C243.894 302.594 244.807 303.686 245.952 304.493C247.104 305.292 248.449 305.766 249.847 305.868C251.239 305.936 252.648 305.868 254.04 305.927L262.35 305.987L278.577 306.098L294.266 306.218L301.876 306.269C303.112 306.328 304.347 306.122 305.497 305.663C306.622 305.178 307.624 304.445 308.427 303.519C309.214 302.602 309.779 301.514 310.075 300.342C310.306 299.17 310.392 297.974 310.331 296.78C310.331 294.398 310.382 292.04 310.399 289.726C310.445 285.08 310.488 280.579 310.527 276.223C310.604 267.512 310.681 259.398 310.75 251.994C310.895 237.184 311.014 225.202 311.1 216.9C311.185 215.064 310.637 213.255 309.545 211.776C308.747 210.688 307.682 209.823 306.454 209.265C305.699 208.928 304.899 208.703 304.079 208.599L303.259 208.65Z" fill="#263238"/>
<path d="M304.35 232.109L249.383 231.975L249.29 270.142L304.257 270.277L304.35 232.109Z" fill="#4F46E5"/>
<path d="M278.409 258.857C282.729 257.992 285.529 253.788 284.663 249.468C283.798 245.149 279.594 242.349 275.275 243.214C270.955 244.08 268.155 248.283 269.02 252.603C269.886 256.922 274.089 259.723 278.409 258.857Z" fill="white"/>
<path d="M274.868 251.038L274.876 247.442L277.985 249.244L281.094 251.047L277.977 252.84L274.859 254.625L274.868 251.038Z" fill="#4F46E5"/>
<path d="M255.242 275.823V275.208C255.242 275.195 255.246 275.182 255.252 275.171C255.258 275.16 255.268 275.15 255.279 275.143C255.29 275.136 255.303 275.133 255.316 275.132C255.329 275.131 255.342 275.134 255.353 275.14L255.883 275.447L256.412 275.763C256.423 275.769 256.432 275.778 256.438 275.788C256.444 275.799 256.448 275.811 256.448 275.823C256.448 275.835 256.444 275.847 256.438 275.858C256.432 275.868 256.423 275.877 256.412 275.883L255.883 276.19L255.345 276.498C255.334 276.504 255.322 276.507 255.31 276.507C255.298 276.507 255.287 276.504 255.276 276.498C255.266 276.492 255.257 276.483 255.251 276.472C255.245 276.462 255.242 276.45 255.242 276.438V275.823Z" fill="#263238"/>
<path d="M260.241 275.388H259.78C259.77 275.388 259.76 275.39 259.752 275.393C259.743 275.397 259.735 275.403 259.728 275.411C259.722 275.418 259.717 275.426 259.714 275.436C259.711 275.445 259.71 275.455 259.711 275.464V276.319C259.714 276.337 259.723 276.355 259.737 276.367C259.751 276.38 259.769 276.387 259.788 276.387H260.241L260.95 277.104V274.713L260.241 275.388Z" fill="#263238"/>
<path d="M256.823 276.591C256.791 276.591 256.761 276.578 256.738 276.556C256.716 276.533 256.703 276.503 256.703 276.471V275.241C256.703 275.207 256.717 275.175 256.741 275.151C256.765 275.127 256.797 275.113 256.831 275.113C256.864 275.115 256.894 275.13 256.916 275.154C256.939 275.177 256.951 275.209 256.951 275.241V276.471C256.949 276.504 256.934 276.534 256.91 276.556C256.887 276.579 256.855 276.591 256.823 276.591Z" fill="#263238"/>
<path d="M261.238 275.121V276.616C261.387 276.553 261.516 276.449 261.608 276.316C261.7 276.182 261.753 276.026 261.759 275.864C261.759 275.702 261.708 275.544 261.615 275.411C261.522 275.278 261.391 275.177 261.238 275.121Z" fill="#263238"/>
<path d="M261.239 274.549V274.865C261.456 274.926 261.647 275.057 261.783 275.238C261.919 275.418 261.992 275.638 261.991 275.864C261.989 276.091 261.914 276.312 261.777 276.494C261.64 276.675 261.449 276.808 261.23 276.872V277.179C261.535 277.119 261.809 276.955 262.006 276.715C262.203 276.475 262.31 276.174 262.31 275.864C262.31 275.554 262.203 275.253 262.006 275.013C261.809 274.773 261.535 274.609 261.23 274.549H261.239Z" fill="#263238"/>
<path d="M265.092 275.388V276.831H264.887V275.567H264.562V275.388H265.092Z" fill="#263238"/>
<path d="M265.366 275.865C265.366 275.847 265.37 275.828 265.377 275.811C265.384 275.794 265.395 275.778 265.409 275.766C265.422 275.753 265.439 275.743 265.456 275.737C265.474 275.73 265.492 275.728 265.511 275.729C265.547 275.729 265.582 275.743 265.608 275.769C265.633 275.794 265.648 275.829 265.648 275.865C265.649 275.884 265.646 275.903 265.64 275.92C265.633 275.938 265.624 275.954 265.611 275.968C265.598 275.981 265.583 275.992 265.565 275.999C265.548 276.007 265.53 276.011 265.511 276.011C265.492 276.011 265.473 276.007 265.455 276C265.438 275.992 265.422 275.982 265.408 275.968C265.395 275.955 265.384 275.939 265.377 275.921C265.37 275.903 265.366 275.884 265.366 275.865ZM265.366 276.719C265.366 276.701 265.37 276.682 265.377 276.665C265.384 276.648 265.395 276.633 265.409 276.62C265.422 276.607 265.439 276.597 265.456 276.591C265.474 276.584 265.492 276.582 265.511 276.583C265.547 276.583 265.582 276.597 265.608 276.623C265.633 276.648 265.648 276.683 265.648 276.719C265.648 276.757 265.634 276.792 265.608 276.819C265.583 276.846 265.548 276.862 265.511 276.865C265.488 276.866 265.465 276.861 265.443 276.851C265.422 276.842 265.404 276.827 265.39 276.808C265.375 276.79 265.366 276.768 265.362 276.746C265.358 276.723 265.359 276.699 265.366 276.677V276.719Z" fill="#263238"/>
<path d="M265.875 276.112C265.875 275.634 266.123 275.369 266.464 275.369C266.806 275.369 267.054 275.642 267.054 276.112C267.054 276.582 266.797 276.855 266.464 276.855C266.131 276.855 265.875 276.582 265.875 276.112ZM266.849 276.112C266.849 275.745 266.695 275.557 266.464 275.557C266.234 275.557 266.08 275.736 266.08 276.112C266.08 276.488 266.234 276.667 266.464 276.667C266.695 276.667 266.849 276.479 266.849 276.112Z" fill="#263238"/>
<path d="M267.694 275.388V276.84H267.489V275.567H267.164V275.388H267.694Z" fill="#263238"/>
<path d="M269.098 275.097H269.277L268.594 277.044H268.406L269.098 275.097Z" fill="#263238"/>
<path d="M270.993 276.438C270.993 276.703 270.771 276.865 270.412 276.865C270.053 276.865 269.84 276.694 269.84 276.438C269.839 276.36 269.863 276.283 269.909 276.22C269.955 276.156 270.021 276.11 270.096 276.088C270.036 276.061 269.985 276.016 269.95 275.96C269.915 275.903 269.897 275.838 269.9 275.772C269.9 275.533 270.105 275.379 270.421 275.379C270.737 275.379 270.942 275.533 270.942 275.772C270.945 275.839 270.926 275.906 270.89 275.963C270.853 276.019 270.799 276.063 270.737 276.088C270.813 276.109 270.879 276.155 270.926 276.218C270.972 276.282 270.996 276.359 270.993 276.438ZM270.788 276.438C270.788 276.276 270.643 276.182 270.421 276.182C270.199 276.182 270.053 276.276 270.053 276.438C270.053 276.6 270.19 276.703 270.412 276.703C270.634 276.703 270.788 276.592 270.788 276.429V276.438ZM270.105 275.789C270.105 275.934 270.216 276.019 270.421 276.019C270.626 276.019 270.737 275.934 270.737 275.789C270.737 275.644 270.617 275.558 270.421 275.558C270.224 275.558 270.105 275.635 270.105 275.823V275.789Z" fill="#263238"/>
<path d="M271.18 275.883C271.18 275.845 271.194 275.81 271.219 275.783C271.245 275.756 271.279 275.739 271.316 275.737C271.355 275.737 271.392 275.753 271.419 275.78C271.446 275.807 271.462 275.844 271.462 275.883C271.462 275.921 271.446 275.958 271.419 275.985C271.392 276.012 271.355 276.028 271.316 276.028C271.279 276.026 271.245 276.009 271.219 275.982C271.194 275.955 271.18 275.92 271.18 275.883ZM271.18 276.737C271.18 276.7 271.194 276.666 271.22 276.64C271.245 276.614 271.28 276.6 271.316 276.6C271.353 276.6 271.387 276.614 271.413 276.64C271.439 276.666 271.453 276.7 271.453 276.737C271.453 276.773 271.439 276.808 271.413 276.833C271.387 276.859 271.353 276.873 271.316 276.873C271.28 276.873 271.245 276.859 271.22 276.833C271.194 276.808 271.18 276.773 271.18 276.737Z" fill="#263238"/>
<path d="M271.648 276.122C271.648 275.652 271.905 275.388 272.246 275.388C272.588 275.388 272.836 275.652 272.836 276.131C272.836 276.609 272.579 276.865 272.238 276.865C271.896 276.865 271.648 276.6 271.648 276.122ZM272.622 276.122C272.622 275.746 272.468 275.559 272.246 275.559C272.024 275.559 271.862 275.746 271.862 276.114C271.862 276.481 272.016 276.677 272.238 276.677C272.46 276.677 272.622 276.498 272.622 276.131V276.122Z" fill="#263238"/>
<path d="M273.051 276.131C273.051 275.652 273.307 275.388 273.64 275.388C273.973 275.388 274.229 275.661 274.229 276.131C274.229 276.6 273.973 276.874 273.64 276.874C273.307 276.874 273.051 276.6 273.051 276.131ZM274.024 276.131C274.024 275.763 273.871 275.576 273.64 275.576C273.409 275.576 273.256 275.755 273.256 276.131C273.256 276.507 273.409 276.686 273.64 276.686C273.871 276.686 274.007 276.498 274.007 276.131H274.024Z" fill="#263238"/>
<path d="M249.993 276.591C249.93 276.587 249.87 276.559 249.826 276.513C249.781 276.468 249.756 276.407 249.754 276.343V275.071C249.754 275.038 249.76 275.006 249.773 274.976C249.785 274.946 249.803 274.919 249.826 274.896C249.849 274.873 249.877 274.855 249.907 274.842C249.937 274.83 249.969 274.823 250.002 274.823C250.034 274.823 250.066 274.83 250.095 274.842C250.125 274.855 250.151 274.873 250.174 274.896C250.196 274.919 250.214 274.947 250.225 274.977C250.237 275.007 250.242 275.039 250.241 275.071V276.343C250.241 276.409 250.215 276.472 250.168 276.519C250.122 276.565 250.059 276.591 249.993 276.591Z" fill="#263238"/>
<path d="M251.067 276.591C251.035 276.591 251.003 276.585 250.974 276.572C250.944 276.56 250.918 276.541 250.895 276.518C250.873 276.495 250.855 276.468 250.844 276.438C250.832 276.408 250.827 276.376 250.828 276.343V275.071C250.828 275.005 250.854 274.942 250.901 274.896C250.947 274.849 251.01 274.823 251.076 274.823C251.14 274.825 251.201 274.853 251.246 274.899C251.29 274.945 251.315 275.007 251.315 275.071V276.343C251.315 276.409 251.289 276.472 251.243 276.519C251.196 276.565 251.133 276.591 251.067 276.591Z" fill="#263238"/>
<path d="M304.003 273.652L249.822 273.524C249.684 273.524 249.551 273.469 249.453 273.372C249.356 273.274 249.301 273.142 249.301 273.003C249.301 272.865 249.356 272.733 249.453 272.635C249.551 272.537 249.684 272.482 249.822 272.482L304.012 272.611C304.08 272.611 304.148 272.624 304.211 272.65C304.274 272.676 304.332 272.715 304.38 272.763C304.429 272.812 304.467 272.869 304.493 272.932C304.519 272.995 304.533 273.063 304.533 273.132C304.533 273.201 304.519 273.269 304.492 273.333C304.466 273.397 304.426 273.454 304.377 273.503C304.328 273.551 304.269 273.59 304.205 273.615C304.141 273.641 304.072 273.654 304.003 273.652Z" fill="#E0E0E0"/>
<path d="M269.738 273.567L249.822 273.524C249.684 273.524 249.551 273.469 249.453 273.372C249.356 273.274 249.301 273.142 249.301 273.003C249.301 272.865 249.356 272.733 249.453 272.635C249.551 272.537 249.684 272.482 249.822 272.482L269.738 272.525C269.858 272.525 269.974 272.573 270.059 272.658C270.143 272.743 270.191 272.858 270.191 272.978V273.123C270.191 273.182 270.179 273.24 270.156 273.295C270.134 273.349 270.1 273.399 270.058 273.44C270.016 273.481 269.966 273.514 269.911 273.536C269.856 273.558 269.797 273.568 269.738 273.567Z" fill="#4F46E5"/>
<path d="M270.717 273.055C270.713 273.318 270.606 273.568 270.419 273.753C270.232 273.938 269.981 274.043 269.718 274.045C269.52 274.045 269.326 273.987 269.162 273.876C268.997 273.766 268.869 273.61 268.794 273.427C268.719 273.243 268.699 273.042 268.739 272.848C268.778 272.654 268.874 272.476 269.014 272.337C269.155 272.197 269.334 272.103 269.528 272.065C269.723 272.027 269.924 272.048 270.106 272.125C270.289 272.202 270.444 272.332 270.553 272.497C270.662 272.663 270.719 272.857 270.717 273.055Z" fill="#4F46E5"/>
<path d="M304.097 283.252C304.097 283.38 291.986 283.449 277.057 283.415C262.128 283.38 249.992 283.252 249.992 283.124C249.992 282.996 262.103 282.936 277.04 282.97C291.978 283.005 304.097 283.133 304.097 283.252Z" fill="#263238"/>
<path d="M304.088 288.634C304.088 288.762 291.978 288.83 277.04 288.796C262.103 288.762 249.992 288.634 249.992 288.472C249.992 288.309 262.094 288.284 277.032 288.318C291.969 288.352 304.088 288.48 304.088 288.634Z" fill="#263238"/>
<path d="M304.068 293.946C304.068 294.074 291.957 294.142 277.029 294.108C262.1 294.074 249.98 293.946 249.98 293.817C249.98 293.689 262.091 293.63 277.029 293.664C291.966 293.698 304.068 293.826 304.068 293.946Z" fill="#263238"/>
<path d="M268.865 67.8849C268.536 67.8771 268.213 67.8047 267.912 67.6717C267.611 67.5387 267.34 67.3478 267.113 67.1099C266.886 66.8719 266.708 66.5916 266.59 66.285C266.471 65.9783 266.415 65.6514 266.422 65.3227V63.495C266.423 62.8357 266.17 62.2015 265.715 61.7243C265.26 61.2471 264.638 60.9636 263.98 60.9328H260.418H251.579C250.536 60.925 249.501 61.123 248.534 61.5155C247.567 61.908 246.688 62.4874 245.945 63.2204C245.202 63.9534 244.612 64.8257 244.207 65.7873C243.802 66.7489 243.591 67.781 243.585 68.8244L268.865 67.8849ZM268.865 67.8849L288.56 67.9788L268.865 67.8849ZM243.785 68.8253C243.79 67.8083 243.996 66.8023 244.391 65.8649C244.786 64.9276 245.362 64.0773 246.086 63.3627C246.809 62.6482 247.667 62.0834 248.609 61.7008C249.552 61.3182 250.56 61.1252 251.577 61.1328V61.1328H251.579H260.418H263.975C264.581 61.1623 265.152 61.4234 265.57 61.8623C265.989 62.3022 266.223 62.887 266.222 63.4948V63.495V65.3204C266.214 65.6744 266.276 66.0267 266.403 66.3571C266.531 66.6882 266.723 66.9909 266.968 67.2479C267.213 67.5048 267.506 67.711 267.831 67.8546C268.156 67.9982 268.505 68.0765 268.86 68.0848V68.0849L268.864 68.0849L288.559 68.1789L288.563 68.1788C288.92 68.1728 289.272 68.0964 289.599 67.954C289.926 67.8116 290.222 67.6061 290.47 67.349L290.326 67.2103L290.47 67.349C290.718 67.092 290.912 66.7887 291.042 66.4564C291.172 66.1247 291.235 65.7707 291.228 65.4146L291.228 63.589L291.228 63.5848C291.222 63.2814 291.275 62.9796 291.386 62.6968C291.496 62.4141 291.661 62.1558 291.871 61.9368C292.081 61.7178 292.333 61.5424 292.611 61.4206C292.888 61.2991 293.187 61.2332 293.489 61.2268L303.598 61.278C303.598 61.278 303.598 61.278 303.598 61.278C305.645 61.2935 307.602 62.1183 309.041 63.5722C310.481 65.0261 311.287 66.9909 311.283 69.0371L243.785 68.8253ZM243.785 68.8253C243.785 68.8254 243.785 68.8254 243.785 68.8254L243.247 196.028C243.247 196.028 243.247 196.029 243.247 196.029C243.243 198.081 244.053 200.05 245.5 201.505C246.947 202.96 248.913 203.781 250.965 203.788H250.965L302.986 204.027H302.986C304.002 204.034 305.01 203.84 305.952 203.457C306.893 203.073 307.75 202.508 308.473 201.794C309.196 201.08 309.771 200.23 310.165 199.293C310.559 198.356 310.765 197.351 310.77 196.334L311.283 69.0374L243.785 68.8253Z" fill="white" stroke="black" stroke-width="0.4"/>
<path d="M303.599 61.0781H303.872C304.141 61.0821 304.409 61.1049 304.675 61.1464C305.727 61.2778 306.74 61.63 307.647 62.1798C309.137 63.0699 310.3 64.4181 310.961 66.0231C311.366 67.0471 311.564 68.1417 311.542 69.2429C311.542 70.413 311.542 71.6684 311.542 72.9837C311.499 83.5655 311.448 98.8617 311.379 117.771C311.311 136.679 311.217 159.184 311.114 184.182C311.114 187.308 311.114 190.468 311.072 193.671C311.029 195.259 311.217 196.908 310.73 198.488C310.485 199.271 310.132 200.015 309.68 200.7C309.199 201.376 308.624 201.98 307.972 202.493C306.656 203.535 305.045 204.132 303.368 204.201C301.711 204.201 300.054 204.201 298.389 204.201L288.277 204.15L267.54 204.082L256.933 204.039H251.569C249.751 204.13 247.952 203.626 246.445 202.604C244.937 201.557 243.832 200.026 243.311 198.266C243.063 197.397 242.953 196.495 242.986 195.592C242.986 194.696 242.986 193.807 242.986 192.911C242.986 189.352 243.003 185.816 243.037 182.303C243.037 175.272 243.066 168.354 243.123 161.55C243.183 147.944 243.242 134.826 243.294 122.323C243.345 109.819 243.405 97.9393 243.456 86.828C243.456 81.2652 243.479 75.9017 243.524 70.7375C243.457 69.4568 243.54 68.1726 243.772 66.9113C244.071 65.6845 244.656 64.546 245.48 63.589C246.296 62.6565 247.312 61.9207 248.452 61.4368C249.576 60.9913 250.78 60.7848 251.988 60.8304H258.906H262.228H263.859C264.412 60.8162 264.954 60.981 265.405 61.3002C265.843 61.6259 266.168 62.0796 266.336 62.5983C266.466 63.1084 266.512 63.6363 266.473 64.1612C266.443 64.6704 266.443 65.1809 266.473 65.69C266.543 66.1838 266.76 66.6451 267.096 67.0138C267.422 67.38 267.856 67.634 268.335 67.7398C268.816 67.8055 269.302 67.8284 269.787 67.8081H272.648L283.118 67.8679H287.73C288.098 67.8679 288.465 67.8679 288.815 67.8679C289.161 67.8296 289.494 67.7127 289.789 67.5262C290.356 67.1585 290.755 66.5814 290.899 65.9206C290.969 65.2883 290.998 64.6521 290.984 64.0161C290.927 63.4043 291.052 62.7892 291.343 62.2481C291.628 61.7444 292.082 61.3573 292.624 61.155C293.132 60.9993 293.667 60.947 294.196 61.0012H299.32L303.59 61.0439H299.32H294.196C293.672 60.9931 293.144 61.0453 292.641 61.1977C292.113 61.3999 291.672 61.7806 291.394 62.2738C291.113 62.7968 290.992 63.3906 291.044 63.9819C291.07 64.6259 291.05 65.2709 290.984 65.9121C290.915 66.2512 290.778 66.5729 290.582 66.8577C290.385 67.1424 290.133 67.3844 289.84 67.5689C289.537 67.7608 289.196 67.8833 288.841 67.9276C288.473 67.9276 288.115 67.9276 287.747 67.9276H283.135H272.665H269.804C269.31 67.9471 268.816 67.9243 268.326 67.8593C267.827 67.7472 267.376 67.4813 267.036 67.0992C266.683 66.7182 266.454 66.2386 266.379 65.7242C266.319 65.2032 266.379 64.6993 266.379 64.1783C266.418 63.6652 266.375 63.149 266.251 62.6496C266.096 62.1606 265.799 61.7292 265.397 61.4112C264.543 60.7365 263.364 61.0183 262.288 60.95H258.966H252.039C250.851 60.908 249.667 61.1145 248.563 61.5564C247.442 62.0319 246.443 62.7562 245.642 63.6744C244.816 64.6099 244.229 65.7326 243.934 66.9455C243.701 68.1951 243.618 69.4681 243.686 70.7375C243.686 75.9074 243.667 81.2709 243.627 86.828C243.584 97.9308 243.533 109.819 243.482 122.323C243.43 134.826 243.379 147.944 243.319 161.55C243.319 168.348 243.291 175.266 243.234 182.303C243.234 185.816 243.22 189.352 243.191 192.911C243.191 193.807 243.191 194.696 243.191 195.592C243.154 196.478 243.261 197.363 243.507 198.214C244.012 199.946 245.094 201.453 246.573 202.485C248.057 203.491 249.83 203.983 251.621 203.885H256.984L267.592 203.937L288.337 204.031L298.449 204.082C300.114 204.082 301.78 204.082 303.419 204.082C305.059 204.015 306.636 203.435 307.929 202.425C308.559 201.92 309.114 201.328 309.577 200.666C310.025 199.999 310.373 199.271 310.611 198.505C311.089 196.959 310.901 195.328 310.952 193.731C310.952 190.528 310.952 187.368 310.995 184.242C311.106 159.244 311.208 136.739 311.294 117.83C311.379 98.9215 311.456 83.668 311.507 73.0435C311.456 70.4215 311.815 67.996 310.961 66.1C310.309 64.5043 309.158 63.1622 307.681 62.2738C306.778 61.7193 305.768 61.3613 304.718 61.2233C304.454 61.1844 304.189 61.1587 303.923 61.1464L303.599 61.0781Z" fill="#263238"/>
<path d="M302.617 79.5092C302.617 79.6287 291.634 79.7312 278.08 79.7312C264.526 79.7312 253.543 79.6287 253.543 79.5092C253.543 79.3896 264.526 79.2871 278.08 79.2871C291.634 79.2871 302.617 79.3896 302.617 79.5092Z" fill="#263238"/>
<path d="M300.423 161.403H255.824V192.372H300.423V161.403Z" fill="#4F46E5"/>
<path d="M192.251 96.0422L192.251 96.0381C192.231 95.0935 192.587 94.1798 193.241 93.4975C193.894 92.8158 194.79 92.4208 195.734 92.399H210.874C213.974 92.4101 216.945 93.6456 219.139 95.8364C221.333 98.0274 222.573 100.996 222.588 104.097L222.546 295.191C222.534 298.295 221.297 301.268 219.102 303.462C216.908 305.657 213.934 306.895 210.831 306.906L132.891 306.855C129.789 306.841 126.818 305.603 124.625 303.408C122.432 301.214 121.196 298.242 121.184 295.14L121.227 104.055C121.227 104.055 121.227 104.054 121.227 104.054C121.252 100.961 122.494 98.0022 124.685 95.8189C126.876 93.6355 129.84 92.4037 132.933 92.3904H151.506C152.45 92.4122 153.346 92.8073 153.999 93.489C154.653 94.1713 155.009 95.085 154.989 96.0296L154.989 96.0296V96.0337V98.7815C154.978 99.3005 155.068 99.8167 155.256 100.301C155.444 100.786 155.726 101.229 156.085 101.604C156.444 101.98 156.874 102.282 157.349 102.492C157.825 102.701 158.338 102.815 158.857 102.827V102.827H158.862L188.378 102.827L188.383 102.827C189.431 102.803 190.427 102.365 191.152 101.608C191.877 100.851 192.272 99.8376 192.251 98.79L192.251 96.0422Z" fill="white" stroke="black" stroke-width="0.4"/>
<path d="M210.873 92.2H211.274C211.68 92.2022 212.086 92.2336 212.487 92.2939C214.069 92.4813 215.592 93.0055 216.954 93.8312C217.966 94.424 218.881 95.167 219.67 96.0347C220.636 97.0749 221.406 98.2815 221.942 99.5961C222.548 101.134 222.838 102.778 222.796 104.43C222.796 106.189 222.796 108.063 222.796 110.05C222.796 125.918 222.796 148.884 222.838 177.264C222.881 205.645 222.838 239.44 222.838 276.959V294.808C222.86 296.037 222.705 297.262 222.377 298.447C222.048 299.638 221.535 300.77 220.857 301.803C220.169 302.837 219.334 303.766 218.38 304.562C216.422 306.15 214.014 307.082 211.496 307.226C209.003 307.303 206.517 307.226 204.006 307.226H157.751H141.822H133.777C131.027 307.382 128.302 306.629 126.022 305.083C123.752 303.508 122.086 301.206 121.299 298.558C120.926 297.248 120.759 295.888 120.804 294.527V274.584C120.804 264.034 120.804 253.651 120.804 243.437C120.804 223.016 120.804 203.296 120.804 184.558C120.804 165.82 120.804 147.962 120.804 131.273C120.804 122.926 120.804 114.878 120.804 107.129C120.804 106.164 120.804 105.199 120.804 104.242C120.804 103.755 120.804 103.277 120.864 102.79C120.923 102.304 120.992 101.834 121.111 101.373C121.541 99.5181 122.398 97.7896 123.614 96.3251C124.802 94.921 126.296 93.8065 127.98 93.0665C129.664 92.3265 131.495 91.9805 133.333 92.0548H151.157C151.99 92.0157 152.814 92.2463 153.506 92.7124C154.178 93.1845 154.688 93.8526 154.966 94.6255C155.189 95.3902 155.27 96.189 155.205 96.9827V98.1442C155.18 98.5224 155.18 98.9019 155.205 99.2801C155.29 100.012 155.587 100.704 156.059 101.27C156.536 101.823 157.171 102.217 157.879 102.397C158.23 102.485 158.593 102.523 158.955 102.508H164.352H180.067H186.994C187.54 102.508 188.095 102.508 188.616 102.508C189.132 102.448 189.628 102.273 190.068 101.996C190.5 101.732 190.874 101.383 191.168 100.971C191.461 100.558 191.668 100.091 191.776 99.5961C191.859 99.1197 191.89 98.6359 191.87 98.1528V96.7265C191.852 96.2616 191.872 95.796 191.93 95.3344C192.008 94.8878 192.161 94.4576 192.383 94.0618C192.798 93.2872 193.472 92.6828 194.287 92.3537C195.051 92.1106 195.855 92.0235 196.653 92.0975H204.382H209.131H210.753C210.753 92.0975 210.198 92.0975 209.131 92.0975H204.382H196.653C195.866 92.0258 195.074 92.1129 194.321 92.3537C193.538 92.6669 192.888 93.2439 192.485 93.985C192.271 94.3731 192.123 94.7947 192.05 95.2319C191.995 95.6852 191.975 96.142 191.99 96.5984V98.1784C192.009 98.67 191.978 99.1623 191.896 99.6474C191.792 100.156 191.587 100.639 191.294 101.067C191 101.495 190.624 101.86 190.188 102.141C189.726 102.428 189.207 102.612 188.667 102.679C188.121 102.731 187.583 102.679 187.036 102.679H159.108C158.732 102.693 158.356 102.655 157.99 102.568C157.239 102.381 156.565 101.966 156.059 101.381C155.549 100.787 155.223 100.057 155.12 99.2801C155.095 98.8934 155.095 98.5054 155.12 98.1186V96.9571C155.179 96.1888 155.098 95.4161 154.881 94.6768C154.624 93.9441 154.143 93.3107 153.506 92.8661C152.851 92.4207 152.067 92.2045 151.277 92.2512H133.418C131.61 92.1847 129.81 92.5353 128.159 93.2758C126.508 94.0163 125.049 95.1269 123.896 96.5215C122.704 97.9561 121.865 99.6496 121.444 101.467C121.325 101.919 121.291 102.389 121.205 102.85C121.12 103.311 121.146 103.798 121.146 104.276V131.307C121.146 147.996 121.146 165.828 121.146 184.592V243.471C121.146 253.68 121.146 264.062 121.146 274.618V294.527C121.101 295.856 121.265 297.185 121.632 298.464C122.402 301.036 124.018 303.272 126.219 304.809C128.446 306.311 131.104 307.043 133.786 306.893H157.751H188.89H204.058C206.56 306.893 209.071 306.936 211.531 306.893C213.975 306.759 216.317 305.863 218.226 304.331C219.158 303.559 219.972 302.656 220.643 301.649C221.302 300.645 221.8 299.544 222.121 298.387C222.442 297.231 222.595 296.034 222.574 294.834V276.984C222.574 239.465 222.574 205.67 222.633 177.29C222.693 148.91 222.685 125.944 222.702 110.075C222.702 108.083 222.702 106.209 222.702 104.456C222.739 102.815 222.449 101.183 221.848 99.6559C221.315 98.355 220.558 97.158 219.61 96.1201C218.83 95.2534 217.923 94.5103 216.92 93.9166C215.566 93.088 214.053 92.5553 212.479 92.3537C212.081 92.2851 211.678 92.248 211.274 92.2427L210.873 92.2Z" fill="#263238"/>
<path d="M213.266 112.757C213.266 112.808 211.301 112.868 208.867 112.885C206.433 112.902 204.469 112.885 204.469 112.825C204.469 112.766 206.442 112.723 208.867 112.697C211.293 112.672 213.266 112.697 213.266 112.757Z" fill="#263238"/>
<path d="M213.316 115.002C213.316 115.053 211.343 115.113 208.918 115.139C206.492 115.164 204.52 115.139 204.52 115.079C204.52 115.019 206.484 114.968 208.909 114.951C211.335 114.934 213.308 114.951 213.316 115.002Z" fill="#263238"/>
<path d="M213.336 117.258C213.336 117.309 211.363 117.369 208.937 117.386C206.512 117.403 204.539 117.386 204.539 117.326C204.539 117.266 206.503 117.224 208.937 117.198C211.372 117.173 213.336 117.207 213.336 117.258Z" fill="#263238"/>
<path d="M129.566 118.675H129.754H130.258L132.137 118.632L132.129 118.675C132.129 118.265 132.129 117.821 132.129 117.317C132.129 117.061 132.129 116.822 132.129 116.531C132.159 116.38 132.236 116.242 132.35 116.137C132.463 116.033 132.607 115.967 132.761 115.95C133.06 115.95 133.324 115.95 133.615 115.95C133.787 115.979 133.943 116.067 134.056 116.2C134.168 116.333 134.23 116.502 134.23 116.676V118.658L134.136 118.572H136.51L136.416 118.658C136.416 117.71 136.416 116.719 136.416 115.711V114.96C136.408 114.846 136.373 114.737 136.316 114.639C136.258 114.541 136.178 114.458 136.083 114.396L135.049 113.371L134.05 112.389L133.563 111.911C133.44 111.744 133.271 111.617 133.077 111.543C132.984 111.519 132.886 111.515 132.792 111.533C132.697 111.551 132.608 111.589 132.53 111.646L132.094 112.082L131.24 112.936C130.711 113.491 130.147 113.995 129.746 114.473C129.634 114.743 129.592 115.037 129.626 115.327V116.181C129.626 116.693 129.626 117.146 129.626 117.53C129.626 117.915 129.626 118.154 129.626 118.384C129.633 118.487 129.633 118.59 129.626 118.692C129.626 118.692 129.626 118.598 129.626 118.41V117.556C129.626 117.172 129.626 116.702 129.626 116.207C129.626 115.933 129.626 115.652 129.626 115.353C129.626 115.199 129.626 115.045 129.626 114.883C129.626 114.708 129.673 114.537 129.763 114.387C130.198 113.858 130.719 113.38 131.257 112.807L132.111 111.953C132.265 111.8 132.393 111.655 132.573 111.501C132.669 111.428 132.78 111.378 132.899 111.354C133.017 111.331 133.139 111.334 133.256 111.364C133.48 111.443 133.678 111.582 133.828 111.766L134.315 112.244L135.314 113.226L136.356 114.251C136.451 114.339 136.539 114.433 136.621 114.533C136.699 114.652 136.74 114.792 136.74 114.934C136.74 115.182 136.74 115.438 136.74 115.686C136.74 116.702 136.74 117.684 136.74 118.641V118.735H136.647H134.281H134.187V118.675C134.187 117.983 134.187 117.317 134.187 116.685C134.191 116.548 134.144 116.414 134.056 116.308C133.968 116.203 133.844 116.133 133.709 116.113C133.435 116.113 133.119 116.113 132.855 116.113C132.733 116.128 132.619 116.18 132.529 116.263C132.439 116.345 132.376 116.454 132.351 116.574C132.351 116.813 132.351 117.095 132.351 117.334V118.752H132.291H130.386H129.566V118.675Z" fill="#263238"/>
<path d="M152.652 240.644H134.469V258.826H152.652V240.644Z" fill="#4F46E5"/>
<path d="M187.643 242.609C187.643 242.694 181.563 242.762 174.064 242.762C166.565 242.762 160.484 242.694 160.484 242.609C160.484 242.523 166.557 242.446 174.064 242.446C181.571 242.446 187.643 242.515 187.643 242.609Z" fill="#4F46E5"/>
<path d="M209.286 248.177C209.286 248.263 198.363 248.331 184.886 248.331C171.409 248.331 160.477 248.263 160.477 248.177C160.477 248.092 171.4 248.023 184.886 248.023C198.371 248.023 209.286 248.092 209.286 248.177Z" fill="#263238"/>
<path d="M208.714 252.158C208.714 252.243 197.919 252.311 184.595 252.311C171.272 252.311 160.477 252.243 160.477 252.158C160.477 252.072 171.272 252.004 184.595 252.004C197.919 252.004 208.714 252.072 208.714 252.158Z" fill="#263238"/>
<path d="M188.959 255.957C188.959 256.043 182.58 256.111 174.714 256.111C166.848 256.111 160.477 256.043 160.477 255.957C160.477 255.872 166.848 255.804 174.714 255.804C182.58 255.804 188.959 255.872 188.959 255.957Z" fill="#263238"/>
<g opacity="0.3">
<path d="M152.652 240.644H134.469V258.826H152.652V240.644Z" fill="black"/>
</g>
<path d="M152.652 270.246H134.469V288.429H152.652V270.246Z" fill="#4F46E5"/>
<path d="M187.643 272.201C187.643 272.286 181.563 272.354 174.064 272.354C166.565 272.354 160.484 272.286 160.484 272.201C160.484 272.115 166.557 272.047 174.064 272.047C181.571 272.047 187.643 272.115 187.643 272.201Z" fill="#4F46E5"/>
<path d="M209.286 277.769C209.286 277.854 198.363 277.931 184.886 277.931C171.409 277.931 160.477 277.854 160.477 277.769C160.477 277.684 171.4 277.615 184.886 277.615C198.371 277.615 209.286 277.684 209.286 277.769Z" fill="#263238"/>
<path d="M208.714 281.801C208.714 281.886 197.919 281.955 184.595 281.955C171.272 281.955 160.477 281.886 160.477 281.801C160.477 281.716 171.272 281.639 184.595 281.639C197.919 281.639 208.714 281.673 208.714 281.801Z" fill="#263238"/>
<path d="M188.959 285.549C188.959 285.635 182.58 285.703 174.714 285.703C166.848 285.703 160.477 285.635 160.477 285.549C160.477 285.464 166.848 285.396 174.714 285.396C182.58 285.396 188.959 285.464 188.959 285.549Z" fill="#263238"/>
<g opacity="0.3">
<path d="M152.652 270.246H134.469V288.429H152.652V270.246Z" fill="black"/>
</g>
<path d="M144.692 144.49L144.457 186.586L200.465 186.899L200.7 144.803L144.692 144.49Z" fill="#4F46E5"/>
<path d="M143.73 186.582L163.442 160.517L175.467 176.957L183.735 168.254L199.748 186.89L143.73 186.582Z" fill="#4F46E5"/>
<path d="M180.716 157.408C180.711 158.28 180.448 159.13 179.959 159.852C179.471 160.574 178.779 161.135 177.972 161.464C177.165 161.793 176.278 161.875 175.424 161.7C174.571 161.525 173.788 161.1 173.175 160.481C172.562 159.861 172.147 159.073 171.982 158.217C171.817 157.361 171.909 156.476 172.248 155.672C172.586 154.869 173.155 154.184 173.882 153.704C174.61 153.224 175.463 152.971 176.335 152.976C176.914 152.979 177.486 153.096 178.019 153.321C178.553 153.545 179.037 153.873 179.444 154.285C179.85 154.696 180.172 155.184 180.391 155.72C180.609 156.256 180.72 156.829 180.716 157.408Z" fill="#4F46E5"/>
<g opacity="0.3">
<path d="M143.73 186.582L163.442 160.516L175.467 176.956L183.735 168.253L199.748 186.889L143.73 186.582Z" fill="black"/>
</g>
<g opacity="0.3">
<path d="M180.716 157.407C180.711 158.279 180.448 159.129 179.959 159.851C179.471 160.573 178.779 161.134 177.972 161.463C177.165 161.792 176.278 161.874 175.424 161.699C174.571 161.524 173.788 161.099 173.175 160.48C172.562 159.86 172.147 159.072 171.982 158.216C171.817 157.36 171.909 156.475 172.248 155.671C172.586 154.868 173.155 154.183 173.882 153.703C174.61 153.223 175.463 152.97 176.335 152.975C176.914 152.978 177.486 153.095 178.019 153.32C178.553 153.544 179.037 153.872 179.444 154.284C179.85 154.695 180.172 155.183 180.391 155.719C180.609 156.255 180.72 156.829 180.716 157.407Z" fill="black"/>
</g>
<path d="M208.183 194.892C208.183 195.012 191.913 195.115 171.851 195.115C151.789 195.115 135.52 195.012 135.52 194.892C135.52 194.773 151.772 194.688 171.851 194.688C191.93 194.688 208.183 194.773 208.183 194.892Z" fill="#263238"/>
<path d="M208.183 199.623C208.183 199.743 191.913 199.845 171.851 199.845C151.789 199.845 135.52 199.743 135.52 199.623C135.52 199.504 151.789 199.401 171.851 199.401C191.913 199.401 208.183 199.495 208.183 199.623Z" fill="#263238"/>
<path d="M183.697 222.29H160.006C158.359 222.29 156.78 221.636 155.615 220.472C154.451 219.307 153.797 217.728 153.797 216.081C153.797 214.434 154.451 212.855 155.615 211.691C156.78 210.526 158.359 209.872 160.006 209.872H183.697C184.513 209.871 185.321 210.031 186.075 210.342C186.829 210.654 187.514 211.111 188.09 211.688C188.667 212.265 189.125 212.95 189.436 213.704C189.748 214.457 189.908 215.265 189.907 216.081C189.908 216.897 189.748 217.705 189.436 218.459C189.125 219.212 188.667 219.897 188.09 220.474C187.514 221.051 186.829 221.508 186.075 221.82C185.321 222.131 184.513 222.291 183.697 222.29Z" fill="#4F46E5"/>
<path d="M221.755 228.465C221.755 228.585 199.361 228.687 171.741 228.687C144.121 228.687 121.719 228.585 121.719 228.465C121.719 228.346 144.112 228.243 171.741 228.243C199.37 228.243 221.755 228.337 221.755 228.465Z" fill="#E0E0E0"/>
<path d="M192.468 134.227C192.468 134.355 183.235 134.449 171.851 134.449C160.466 134.449 151.242 134.355 151.242 134.227C151.242 134.099 160.466 134.005 171.851 134.005C183.235 134.005 192.468 134.107 192.468 134.227Z" fill="#4F46E5"/>
<path d="M196.593 216.081C196.593 216.348 196.514 216.609 196.366 216.831C196.218 217.052 196.007 217.225 195.76 217.328C195.514 217.43 195.242 217.456 194.981 217.404C194.719 217.352 194.478 217.224 194.29 217.035C194.101 216.846 193.973 216.606 193.92 216.344C193.868 216.082 193.895 215.811 193.997 215.564C194.099 215.318 194.272 215.107 194.494 214.959C194.716 214.811 194.977 214.731 195.244 214.731C195.602 214.731 195.945 214.874 196.198 215.127C196.451 215.38 196.593 215.723 196.593 216.081Z" fill="#4F46E5"/>
<path d="M251.246 127.053C251.138 127.066 251.029 127.066 250.921 127.053H249.948H246.199L232.226 127.215L232.38 127.07C232.38 140.154 232.38 159.251 232.38 180.475C232.38 193.49 232.303 205.712 232.277 216.097V216.294H232.055L205.383 216.208L197.901 216.157L205.383 216.106L232.055 216.021L231.867 216.217C231.867 205.823 231.867 193.61 231.91 180.594C231.978 159.371 232.038 140.274 232.081 127.19V127.036H232.226L246.199 127.104H249.948H250.921L251.246 127.053Z" fill="#4F46E5"/>
<path d="M278.122 183.303C281.698 183.303 284.596 180.405 284.596 176.829C284.596 173.254 281.698 170.355 278.122 170.355C274.547 170.355 271.648 173.254 271.648 176.829C271.648 180.405 274.547 183.303 278.122 183.303Z" fill="white"/>
<path d="M276.527 176.828V173.916L279.055 175.368L281.583 176.828L279.055 178.289L276.527 179.741V176.828Z" fill="#4F46E5"/>
<path d="M255.354 86.7749L255.168 120.006L299.382 120.253L299.568 87.0219L255.354 86.7749Z" fill="#D1D5DB"/>
<path d="M254.594 119.998L270.155 99.4326L279.652 112.406L286.177 105.531L298.817 120.246L254.594 119.998Z" fill="#9CA3AF"/>
<path d="M283.801 96.9734C283.798 97.6625 283.59 98.3352 283.204 98.9064C282.819 99.4775 282.272 99.9215 281.634 100.182C280.996 100.443 280.295 100.508 279.62 100.37C278.945 100.233 278.325 99.8978 277.841 99.4081C277.356 98.9184 277.027 98.2959 276.896 97.6193C276.765 96.9427 276.837 96.2424 277.104 95.607C277.371 94.9716 277.82 94.4296 278.395 94.0495C278.97 93.6694 279.644 93.4684 280.334 93.4717C281.257 93.4785 282.14 93.8507 282.79 94.5069C283.44 95.1631 283.803 96.0499 283.801 96.9734Z" fill="#9CA3AF"/>
<path d="M294.555 126.593H260.324V128.882H294.555V126.593Z" fill="#455A64"/>
<path d="M301.985 135.457C301.985 135.586 290.993 135.688 277.448 135.688C263.903 135.688 252.902 135.586 252.902 135.457C252.902 135.329 263.886 135.235 277.448 135.235C291.01 135.235 301.985 135.338 301.985 135.457Z" fill="#263238"/>
<path d="M301.985 141.736C301.985 141.864 290.993 141.966 277.448 141.966C263.903 141.966 252.902 141.864 252.902 141.736C252.902 141.608 263.886 141.514 277.448 141.514C291.01 141.514 301.985 141.608 301.985 141.736Z" fill="#263238"/>
<path d="M301.985 147.995C301.985 148.123 290.993 148.217 277.448 148.217C263.903 148.217 252.902 148.123 252.902 147.995C252.902 147.866 263.886 147.772 277.448 147.772C291.01 147.772 301.985 147.875 301.985 147.995Z" fill="#263238"/>
<path d="M301.985 154.264C301.985 154.392 290.993 154.486 277.448 154.486C263.903 154.486 252.902 154.392 252.902 154.264C252.902 154.136 263.886 154.042 277.448 154.042C291.01 154.042 301.985 154.144 301.985 154.264Z" fill="#263238"/>
<path d="M252.597 127.054C252.597 127.321 252.518 127.582 252.37 127.804C252.222 128.026 252.011 128.199 251.764 128.301C251.518 128.403 251.246 128.43 250.985 128.378C250.723 128.326 250.482 128.197 250.294 128.009C250.105 127.82 249.976 127.58 249.924 127.318C249.872 127.056 249.899 126.785 250.001 126.538C250.103 126.292 250.276 126.081 250.498 125.932C250.72 125.784 250.981 125.705 251.248 125.705C251.606 125.705 251.949 125.847 252.202 126.1C252.455 126.353 252.597 126.697 252.597 127.054Z" fill="#4F46E5"/>
<path d="M279.429 196.583C279.462 196.848 279.414 197.116 279.29 197.353C279.167 197.59 278.974 197.783 278.738 197.908C278.502 198.033 278.233 198.083 277.968 198.051C277.703 198.019 277.454 197.908 277.254 197.731C277.053 197.555 276.912 197.321 276.847 197.062C276.783 196.803 276.799 196.53 276.893 196.281C276.988 196.031 277.156 195.816 277.375 195.664C277.595 195.512 277.855 195.43 278.122 195.43C278.448 195.411 278.768 195.522 279.013 195.738C279.257 195.953 279.407 196.257 279.429 196.583Z" fill="#4F46E5"/>
<path d="M279.43 227.039C279.461 227.304 279.411 227.572 279.286 227.808C279.162 228.043 278.968 228.236 278.732 228.359C278.496 228.482 278.227 228.531 277.962 228.498C277.698 228.465 277.449 228.353 277.25 228.176C277.051 227.999 276.91 227.765 276.846 227.506C276.783 227.247 276.8 226.975 276.894 226.726C276.989 226.476 277.157 226.262 277.377 226.11C277.596 225.959 277.857 225.878 278.123 225.878C278.45 225.861 278.77 225.974 279.014 226.191C279.259 226.408 279.408 226.713 279.43 227.039Z" fill="#4F46E5"/>
<path d="M278.124 227.039C278.005 227.039 277.902 220.206 277.902 211.811C277.902 203.415 278.005 196.583 278.124 196.583C278.244 196.583 278.346 203.415 278.346 211.811C278.346 220.206 278.244 227.039 278.124 227.039Z" fill="#4F46E5"/>
<path d="M171.735 123.536C171.735 123.536 171.735 123.451 171.735 123.306C171.735 123.16 171.735 122.904 171.735 122.622C171.735 121.999 171.735 121.119 171.735 119.992C171.735 117.669 171.692 114.338 171.666 110.17C171.666 101.775 171.666 90.04 171.589 76.5373L171.803 76.7593H156.84L113.061 76.6996L99.7971 76.6312L96.193 76.5885H95.2535C95.1485 76.6 95.0425 76.6 94.9375 76.5885H95.2535H96.193L99.7971 76.5458L113.061 76.4775L156.84 76.4092H171.957V76.6227C171.957 90.1254 171.897 101.86 171.88 110.256C171.88 114.423 171.828 117.754 171.811 120.077C171.811 121.205 171.811 122.084 171.811 122.708C171.811 122.99 171.811 123.212 171.811 123.391C171.79 123.442 171.765 123.49 171.735 123.536Z" fill="#4F46E5"/>
<path d="M173.126 123.535C173.128 123.804 173.05 124.067 172.901 124.292C172.753 124.516 172.542 124.692 172.294 124.796C172.046 124.9 171.772 124.928 171.508 124.876C171.244 124.825 171.002 124.696 170.811 124.507C170.62 124.317 170.49 124.075 170.437 123.812C170.384 123.548 170.41 123.274 170.513 123.026C170.615 122.777 170.789 122.565 171.013 122.415C171.236 122.265 171.499 122.186 171.768 122.186C172.127 122.186 172.471 122.327 172.725 122.58C172.98 122.833 173.124 123.176 173.126 123.535Z" fill="#4F46E5"/>
<path d="M96.2613 76.5359C96.2613 76.8028 96.1822 77.0637 96.0339 77.2856C95.8856 77.5075 95.6749 77.6805 95.4283 77.7826C95.1817 77.8848 94.9104 77.9115 94.6487 77.8594C94.3869 77.8074 94.1464 77.6788 93.9577 77.4901C93.769 77.3014 93.6405 77.061 93.5884 76.7992C93.5364 76.5374 93.5631 76.2661 93.6652 76.0195C93.7673 75.773 93.9403 75.5622 94.1622 75.4139C94.3841 75.2657 94.645 75.1865 94.9119 75.1865C95.2691 75.1888 95.611 75.3317 95.8636 75.5842C96.1162 75.8368 96.2591 76.1787 96.2613 76.5359Z" fill="#4F46E5"/>
</svg>
