<svg width="354" height="339" viewBox="0 0 354 339" fill="none" xmlns="http://www.w3.org/2000/svg">
<path d="M3.84375 249.331L4.17329 249.075L5.1784 248.325L9.06699 245.458L23.7481 234.748L74.6705 197.798L74.5964 198.029C70.1757 185.66 67.9129 172.624 67.9067 159.489C67.9034 155.155 68.1344 150.823 68.5987 146.513C69.08 142.335 69.7841 138.185 70.7078 134.081C72.435 126.311 74.9984 118.751 78.3532 111.533C87.9917 90.9843 103.505 73.754 122.932 62.0189L126.639 59.8934C127.719 59.2837 128.666 58.8388 129.416 58.4516L131.129 57.6278C131.516 57.43 131.722 57.3477 131.722 57.3477C131.722 57.3477 131.533 57.463 131.146 57.669L129.498 58.567C128.757 58.9706 127.809 59.3908 126.738 60.0417L123.064 62.2002C103.767 74.023 88.3617 91.2469 78.7568 111.739C75.421 118.934 72.8742 126.469 71.1609 134.213C70.2399 138.292 69.5413 142.417 69.0683 146.571C68.604 150.864 68.373 155.179 68.3763 159.497C68.3673 172.578 70.5992 185.563 74.9753 197.889L75.0248 198.037L74.9012 198.128L23.8964 234.954L9.14937 245.565C7.42752 246.785 6.10935 247.732 5.20311 248.383L4.18153 249.1L3.84375 249.331Z" fill="#4F46E5"/>
<path d="M98.5708 34.2881C98.5708 34.2881 98.4142 34.3787 98.1012 34.5352L96.7171 35.2108L94.468 36.3065C93.57 36.7349 92.5896 37.3281 91.4527 37.9542C85.1045 41.4907 79.1479 45.6882 73.6821 50.4768C69.9158 53.7887 66.371 57.3444 63.0709 61.121C59.3122 65.464 55.8575 70.061 52.7315 74.8794C45.595 85.9952 40.1555 98.1127 36.5922 110.832C33.0194 123.546 30.9104 136.625 30.3062 149.817C29.7407 160.572 29.9885 171.354 31.0476 182.071C31.7309 189.333 33.1357 196.508 35.2411 203.491C36.0072 205.963 36.7075 207.825 37.1936 209.085L37.7621 210.519L37.9433 211.013C37.9433 211.013 37.8609 210.857 37.7209 210.535L37.0783 209.077C36.5675 207.825 35.8425 205.955 35.0516 203.5C32.8799 196.545 31.4251 189.387 30.7099 182.137C29.5956 171.396 29.3064 160.586 29.8448 149.801C30.4223 136.575 32.5261 123.46 36.1143 110.717C39.6904 97.9584 45.1554 85.8065 52.3278 74.6652C55.4863 69.8317 58.9769 65.2235 62.7743 60.8739C66.1027 57.0907 69.6808 53.5347 73.4844 50.2297C78.983 45.4498 84.9827 41.2788 91.3785 37.7895C92.5154 37.1881 93.5041 36.6114 94.4103 36.1994L96.6841 35.1367L98.0847 34.494L98.5708 34.2881Z" fill="#4F46E5"/>
<path d="M125.289 0C125.289 0 125.33 0.0411928 125.396 0.140055L125.685 0.560221L126.756 2.20793L130.751 8.51866C134.162 13.9726 138.99 21.7003 144.65 30.7051L144.427 30.6227C152.188 28.4972 160.11 27.0093 168.113 26.1739C175.922 25.3463 183.784 25.1342 191.626 25.5395C198.029 25.8818 204.404 26.6469 210.706 27.8298L212.675 28.1923L214.529 28.596L217.931 29.3539C220.032 29.9059 221.845 30.3426 223.32 30.7627L226.689 31.7843L227.562 32.0644C227.662 32.0887 227.759 32.1246 227.851 32.1715C227.747 32.1581 227.645 32.1361 227.546 32.1056L226.664 31.8667L223.27 30.9275C221.795 30.5321 219.975 30.1036 217.874 29.5846L214.471 28.8349L212.618 28.4477L210.649 28.1017C204.356 26.9577 197.997 26.2229 191.609 25.902C183.786 25.5113 175.944 25.7289 168.154 26.5528C160.175 27.3813 152.276 28.8526 144.534 30.9522H144.386L144.312 30.8286C138.701 21.7662 133.931 14.0302 130.545 8.58456C128.898 5.86584 127.563 3.70735 126.648 2.20793L125.627 0.510791L125.371 0.0659083C125.343 0.0448515 125.316 0.0228701 125.289 0Z" fill="#4F46E5"/>
<path d="M334.441 110.314C334.399 110.242 334.369 110.164 334.35 110.083L334.128 109.383C333.93 108.74 333.658 107.85 333.304 106.705C332.95 105.56 332.554 104.11 331.969 102.487L331.08 99.8672C330.915 99.4058 330.758 98.928 330.585 98.4419L330.009 96.959C329.185 94.9405 328.361 92.7079 327.306 90.3681C326.771 89.2065 326.276 87.9789 325.659 86.7596L323.78 83.0358C320.883 77.523 317.601 72.2208 313.96 67.1684C310.262 62.1561 306.233 57.3973 301.899 52.9239C300.885 51.9023 299.897 50.9137 298.941 49.9416C297.985 48.9694 296.98 48.1126 296.049 47.2393C294.204 45.468 292.367 43.9439 290.727 42.5351L289.516 41.4971L288.354 40.5579L286.196 38.8278C284.861 37.732 283.658 36.8588 282.686 36.1255L280.454 34.4778L279.877 34.0329L279.688 33.8682C279.688 33.8682 279.77 33.8682 279.902 33.9917L280.503 34.4119L282.785 36.0596C283.774 36.7681 284.993 37.6249 286.344 38.7042L288.527 40.3684L289.722 41.2993L290.933 42.3291C292.581 43.7379 294.451 45.2374 296.305 47.0004C297.244 47.8737 298.241 48.747 299.221 49.6944L302.195 52.6685C306.56 57.1412 310.612 61.9089 314.322 66.9377C317.978 72.0061 321.261 77.3341 324.143 82.8793L326.021 86.6525C326.622 87.8718 327.117 89.1241 327.669 90.2693C328.748 92.6008 329.547 94.8417 330.33 96.8601C330.528 97.3709 330.717 97.8652 330.898 98.3513C331.08 98.8373 331.22 99.3234 331.376 99.7848C331.681 100.716 331.969 101.597 332.241 102.413C332.81 104.061 333.189 105.494 333.51 106.664C333.831 107.834 334.07 108.724 334.243 109.374C334.317 109.663 334.375 109.893 334.424 110.075L334.441 110.314Z" fill="#4F46E5"/>
<path d="M303.487 339C303.487 339 303.438 338.926 303.355 338.769L303.009 338.077C302.696 337.443 302.26 336.536 301.691 335.367C300.538 332.969 298.882 329.509 296.806 325.167C292.645 316.426 286.804 304.126 280.016 289.832L279.941 289.684L280.081 289.577C286.434 284.768 292.418 279.492 297.984 273.792C298.956 272.844 299.862 271.856 300.76 270.867L303.454 267.934L305.992 264.952C306.816 263.955 307.639 262.991 308.463 261.978C310.02 259.959 311.61 258.015 313.011 256.005L315.136 253.047C315.812 252.058 316.455 251.062 317.105 250.089C321.69 243.167 325.734 235.901 329.2 228.356C330.716 225.151 331.885 222.161 332.948 219.557C334.011 216.954 334.761 214.614 335.42 212.769C336.079 210.923 336.491 209.432 336.812 208.419C336.977 207.941 337.1 207.595 337.191 207.29C337.231 207.161 337.277 207.035 337.331 206.911C337.331 206.911 337.331 207.043 337.232 207.307C337.133 207.57 337.043 207.957 336.894 208.444C336.59 209.465 336.145 210.915 335.576 212.818C335.008 214.721 334.143 216.995 333.171 219.64C332.198 222.284 330.971 225.267 329.472 228.48C326.032 236.06 322.005 243.359 317.427 250.312C316.776 251.284 316.142 252.289 315.458 253.278L313.332 256.244C311.932 258.27 310.342 260.215 308.776 262.233C308.01 263.255 307.129 264.227 306.305 265.224C305.481 266.22 304.616 267.209 303.767 268.222L301.065 271.155C300.167 272.144 299.261 273.141 298.289 274.088C292.702 279.804 286.693 285.092 280.312 289.906L280.378 289.659L297.028 325.085L301.806 335.309C302.35 336.495 302.779 337.41 303.067 338.052L303.388 338.769L303.487 339Z" fill="#4F46E5"/>
<g opacity="0.8">
<path d="M3.84375 249.331L4.17329 249.075L5.1784 248.325L9.06699 245.458L23.7481 234.748L74.6705 197.798L74.5964 198.029C70.1757 185.66 67.9129 172.624 67.9067 159.489C67.9034 155.155 68.1344 150.823 68.5987 146.513C69.08 142.335 69.7841 138.185 70.7078 134.081C72.435 126.311 74.9984 118.751 78.3532 111.533C87.9917 90.9843 103.505 73.754 122.932 62.0189L126.639 59.8934C127.719 59.2837 128.666 58.8388 129.416 58.4516L131.129 57.6278C131.516 57.43 131.722 57.3477 131.722 57.3477C131.722 57.3477 131.533 57.463 131.146 57.669L129.498 58.567C128.757 58.9706 127.809 59.3908 126.738 60.0417L123.064 62.2002C103.767 74.023 88.3617 91.2469 78.7568 111.739C75.421 118.934 72.8742 126.469 71.1609 134.213C70.2399 138.292 69.5413 142.417 69.0683 146.571C68.604 150.864 68.373 155.179 68.3763 159.497C68.3673 172.578 70.5992 185.563 74.9753 197.889L75.0248 198.037L74.9012 198.128L23.8964 234.954L9.14937 245.565C7.42752 246.785 6.10935 247.732 5.20311 248.383L4.18153 249.1L3.84375 249.331Z" fill="white"/>
<path d="M98.5708 34.2881C98.5708 34.2881 98.4142 34.3787 98.1012 34.5352L96.7171 35.2108L94.468 36.3065C93.57 36.7349 92.5896 37.3281 91.4527 37.9542C85.1045 41.4907 79.1479 45.6882 73.6821 50.4768C69.9158 53.7887 66.371 57.3444 63.0709 61.121C59.3122 65.464 55.8575 70.061 52.7315 74.8794C45.595 85.9952 40.1555 98.1127 36.5922 110.832C33.0194 123.546 30.9104 136.625 30.3062 149.817C29.7407 160.572 29.9885 171.354 31.0476 182.071C31.7309 189.333 33.1357 196.508 35.2411 203.491C36.0072 205.963 36.7075 207.825 37.1936 209.085L37.7621 210.519L37.9433 211.013C37.9433 211.013 37.8609 210.857 37.7209 210.535L37.0783 209.077C36.5675 207.825 35.8425 205.955 35.0516 203.5C32.8799 196.545 31.4251 189.387 30.7099 182.137C29.5956 171.396 29.3064 160.586 29.8448 149.801C30.4223 136.575 32.5261 123.46 36.1143 110.717C39.6904 97.9584 45.1554 85.8065 52.3278 74.6652C55.4863 69.8317 58.9769 65.2235 62.7743 60.8739C66.1027 57.0907 69.6808 53.5347 73.4844 50.2297C78.983 45.4498 84.9827 41.2788 91.3785 37.7895C92.5154 37.1881 93.5041 36.6114 94.4103 36.1994L96.6841 35.1367L98.0847 34.494L98.5708 34.2881Z" fill="white"/>
<path d="M125.289 0C125.289 0 125.33 0.0411928 125.396 0.140055L125.685 0.560221L126.756 2.20793L130.751 8.51866C134.162 13.9726 138.99 21.7003 144.65 30.7051L144.427 30.6227C152.188 28.4972 160.11 27.0093 168.113 26.1739C175.922 25.3463 183.784 25.1342 191.626 25.5395C198.029 25.8818 204.404 26.6469 210.706 27.8298L212.675 28.1923L214.529 28.596L217.931 29.3539C220.032 29.9059 221.845 30.3426 223.32 30.7627L226.689 31.7843L227.562 32.0644C227.662 32.0887 227.759 32.1246 227.851 32.1715C227.747 32.1581 227.645 32.1361 227.546 32.1056L226.664 31.8667L223.27 30.9275C221.795 30.5321 219.975 30.1036 217.874 29.5846L214.471 28.8349L212.618 28.4477L210.649 28.1017C204.356 26.9577 197.997 26.2229 191.609 25.902C183.786 25.5113 175.944 25.7289 168.154 26.5528C160.175 27.3813 152.276 28.8526 144.534 30.9522H144.386L144.312 30.8286C138.701 21.7662 133.931 14.0302 130.545 8.58456C128.898 5.86584 127.563 3.70735 126.648 2.20793L125.627 0.510791L125.371 0.0659083C125.343 0.0448515 125.316 0.0228701 125.289 0Z" fill="white"/>
<path d="M334.441 110.314C334.399 110.242 334.369 110.164 334.35 110.083L334.128 109.383C333.93 108.74 333.658 107.85 333.304 106.705C332.95 105.56 332.554 104.11 331.969 102.487L331.08 99.8672C330.915 99.4058 330.758 98.928 330.585 98.4419L330.009 96.959C329.185 94.9405 328.361 92.7079 327.306 90.3681C326.771 89.2065 326.276 87.9789 325.659 86.7596L323.78 83.0358C320.883 77.523 317.601 72.2208 313.96 67.1684C310.262 62.1561 306.233 57.3973 301.899 52.9239C300.885 51.9023 299.897 50.9137 298.941 49.9416C297.985 48.9694 296.98 48.1126 296.049 47.2393C294.204 45.468 292.367 43.9439 290.727 42.5351L289.516 41.4971L288.354 40.5579L286.196 38.8278C284.861 37.732 283.658 36.8588 282.686 36.1255L280.454 34.4778L279.877 34.0329L279.688 33.8682C279.688 33.8682 279.77 33.8682 279.902 33.9917L280.503 34.4119L282.785 36.0596C283.774 36.7681 284.993 37.6249 286.344 38.7042L288.527 40.3684L289.722 41.2993L290.933 42.3291C292.581 43.7379 294.451 45.2374 296.305 47.0004C297.244 47.8737 298.241 48.747 299.221 49.6944L302.195 52.6685C306.56 57.1412 310.612 61.9089 314.322 66.9377C317.978 72.0061 321.261 77.3341 324.143 82.8793L326.021 86.6525C326.622 87.8718 327.117 89.1241 327.669 90.2693C328.748 92.6008 329.547 94.8417 330.33 96.8601C330.528 97.3709 330.717 97.8652 330.898 98.3513C331.08 98.8373 331.22 99.3234 331.376 99.7848C331.681 100.716 331.969 101.597 332.241 102.413C332.81 104.061 333.189 105.494 333.51 106.664C333.831 107.834 334.07 108.724 334.243 109.374C334.317 109.663 334.375 109.893 334.424 110.075L334.441 110.314Z" fill="white"/>
<path d="M303.487 339C303.487 339 303.438 338.926 303.355 338.769L303.009 338.077C302.696 337.443 302.26 336.536 301.691 335.367C300.538 332.969 298.882 329.509 296.806 325.167C292.645 316.426 286.804 304.126 280.016 289.832L279.941 289.684L280.081 289.577C286.434 284.768 292.418 279.492 297.984 273.792C298.956 272.844 299.862 271.856 300.76 270.867L303.454 267.934L305.992 264.952C306.816 263.955 307.639 262.991 308.463 261.978C310.02 259.959 311.61 258.015 313.011 256.005L315.136 253.047C315.812 252.058 316.455 251.062 317.105 250.089C321.69 243.167 325.734 235.901 329.2 228.356C330.716 225.151 331.885 222.161 332.948 219.557C334.011 216.954 334.761 214.614 335.42 212.769C336.079 210.923 336.491 209.432 336.812 208.419C336.977 207.941 337.1 207.595 337.191 207.29C337.231 207.161 337.277 207.035 337.331 206.911C337.331 206.911 337.331 207.043 337.232 207.307C337.133 207.57 337.043 207.957 336.894 208.444C336.59 209.465 336.145 210.915 335.576 212.818C335.008 214.721 334.143 216.995 333.171 219.64C332.198 222.284 330.971 225.267 329.472 228.48C326.032 236.06 322.005 243.359 317.427 250.312C316.776 251.284 316.142 252.289 315.458 253.278L313.332 256.244C311.932 258.27 310.342 260.215 308.776 262.233C308.01 263.255 307.129 264.227 306.305 265.224C305.481 266.22 304.616 267.209 303.767 268.222L301.065 271.155C300.167 272.144 299.261 273.141 298.289 274.088C292.702 279.804 286.693 285.092 280.312 289.906L280.378 289.659L297.028 325.085L301.806 335.309C302.35 336.495 302.779 337.41 303.067 338.052L303.388 338.769L303.487 339Z" fill="white"/>
</g>
<path d="M249.698 102.818C251.65 102.818 253.233 101.235 253.233 99.2834C253.233 97.3314 251.65 95.749 249.698 95.749C247.746 95.749 246.164 97.3314 246.164 99.2834C246.164 101.235 247.746 102.818 249.698 102.818Z" fill="#4F46E5"/>
<path d="M231.851 32.2457C231.851 32.9467 231.643 33.632 231.253 34.2147C230.864 34.7975 230.31 35.2515 229.662 35.5194C229.014 35.7873 228.301 35.857 227.614 35.7196C226.927 35.5822 226.295 35.244 225.8 34.7478C225.305 34.2515 224.968 33.6195 224.833 32.9318C224.697 32.244 224.768 31.5315 225.038 30.8843C225.307 30.2371 225.762 29.6844 226.346 29.2962C226.93 28.9079 227.615 28.7015 228.316 28.7031C228.781 28.7031 229.242 28.7948 229.671 28.973C230.1 29.1511 230.49 29.4122 230.819 29.7412C231.147 30.0703 231.407 30.4609 231.584 30.8907C231.761 31.3204 231.852 31.7809 231.851 32.2457Z" fill="#4F46E5"/>
<path d="M337.644 110.454C337.645 111.156 337.439 111.842 337.05 112.426C336.662 113.009 336.108 113.465 335.461 113.734C334.813 114.003 334.1 114.074 333.412 113.937C332.724 113.801 332.092 113.463 331.596 112.967C331.1 112.472 330.763 111.84 330.626 111.152C330.49 110.464 330.561 109.751 330.83 109.103C331.099 108.455 331.554 107.902 332.138 107.514C332.722 107.125 333.408 106.918 334.109 106.92C335.047 106.92 335.946 107.292 336.609 107.955C337.271 108.618 337.644 109.517 337.644 110.454Z" fill="#4F46E5"/>
<path d="M154.807 275.777C154.805 276.476 154.597 277.158 154.207 277.738C153.818 278.318 153.265 278.77 152.619 279.036C151.973 279.303 151.263 279.371 150.578 279.234C149.893 279.097 149.264 278.76 148.771 278.265C148.277 277.77 147.941 277.141 147.806 276.455C147.67 275.77 147.74 275.06 148.008 274.414C148.276 273.769 148.729 273.217 149.31 272.829C149.891 272.441 150.574 272.234 151.273 272.234C151.737 272.234 152.198 272.326 152.627 272.504C153.056 272.682 153.446 272.943 153.775 273.272C154.103 273.602 154.363 273.992 154.54 274.422C154.717 274.852 154.808 275.312 154.807 275.777Z" fill="#4F46E5"/>
<path d="M106.081 276.748C108.033 276.748 109.616 275.166 109.616 273.214C109.616 271.262 108.033 269.68 106.081 269.68C104.129 269.68 102.547 271.262 102.547 273.214C102.547 275.166 104.129 276.748 106.081 276.748Z" fill="#4F46E5"/>
<path d="M299.944 202.323C301.896 202.323 303.479 200.74 303.479 198.788C303.479 196.836 301.896 195.254 299.944 195.254C297.993 195.254 296.41 196.836 296.41 198.788C296.41 200.74 297.993 202.323 299.944 202.323Z" fill="#4F46E5"/>
<path d="M38.3382 112.282C38.3382 112.981 38.1309 113.665 37.7426 114.246C37.3542 114.827 36.8022 115.28 36.1564 115.548C35.5106 115.815 34.7999 115.885 34.1144 115.749C33.4288 115.612 32.799 115.276 32.3047 114.782C31.8104 114.287 31.4738 113.657 31.3374 112.972C31.2011 112.286 31.2711 111.576 31.5386 110.93C31.8061 110.284 32.2591 109.732 32.8403 109.344C33.4215 108.955 34.1048 108.748 34.8039 108.748C35.7412 108.748 36.6402 109.12 37.303 109.783C37.9658 110.446 38.3382 111.345 38.3382 112.282Z" fill="#4F46E5"/>
<path d="M260.155 140.353C260.153 141.052 259.944 141.734 259.555 142.314C259.166 142.895 258.613 143.346 257.967 143.613C257.321 143.879 256.611 143.948 255.926 143.81C255.241 143.673 254.612 143.336 254.118 142.841C253.625 142.347 253.289 141.717 253.153 141.031C253.018 140.346 253.088 139.636 253.356 138.99C253.623 138.345 254.077 137.794 254.658 137.406C255.239 137.018 255.922 136.811 256.62 136.811C257.085 136.811 257.545 136.902 257.975 137.08C258.404 137.259 258.794 137.52 259.122 137.849C259.451 138.178 259.711 138.568 259.888 138.998C260.065 139.428 260.156 139.888 260.155 140.353Z" fill="#4F46E5"/>
<path d="M305.159 142.643C307.111 142.643 308.694 141.061 308.694 139.109C308.694 137.157 307.111 135.574 305.159 135.574C303.207 135.574 301.625 137.157 301.625 139.109C301.625 141.061 303.207 142.643 305.159 142.643Z" fill="#4F46E5"/>
<path d="M76.6898 125.639C76.6898 126.338 76.4825 127.021 76.0941 127.602C75.7058 128.184 75.1538 128.637 74.508 128.904C73.8621 129.172 73.1515 129.242 72.4659 129.105C71.7803 128.969 71.1506 128.632 70.6563 128.138C70.162 127.644 69.8254 127.014 69.689 126.328C69.5526 125.643 69.6226 124.932 69.8901 124.286C70.1576 123.64 70.6106 123.088 71.1919 122.7C71.7731 122.312 72.4564 122.104 73.1554 122.104C74.0921 122.107 74.9898 122.48 75.6522 123.142C76.3145 123.804 76.6876 124.702 76.6898 125.639Z" fill="#4F46E5"/>
<path d="M75.9132 82.3538C77.8652 82.3538 79.4476 80.7715 79.4476 78.8195C79.4476 76.8675 77.8652 75.2852 75.9132 75.2852C73.9613 75.2852 72.3789 76.8675 72.3789 78.8195C72.3789 80.7715 73.9613 82.3538 75.9132 82.3538Z" fill="#4F46E5"/>
<path d="M39.7144 212.745C39.7144 213.095 39.6106 213.438 39.4159 213.729C39.2213 214.02 38.9447 214.247 38.621 214.381C38.2973 214.515 37.9412 214.551 37.5976 214.482C37.254 214.414 36.9384 214.245 36.6907 213.997C36.443 213.75 36.2743 213.434 36.2059 213.091C36.1376 212.747 36.1726 212.391 36.3067 212.067C36.4408 211.743 36.6678 211.467 36.9591 211.272C37.2504 211.078 37.5928 210.974 37.9432 210.974C38.1761 210.973 38.4069 211.018 38.6223 211.106C38.8377 211.195 39.0334 211.325 39.1981 211.49C39.3628 211.655 39.4932 211.85 39.5818 212.066C39.6705 212.281 39.7155 212.512 39.7144 212.745Z" fill="#4F46E5"/>
<path d="M69.6207 161.474C69.6207 161.825 69.5168 162.167 69.3222 162.458C69.1276 162.75 68.8509 162.977 68.5273 163.111C68.2036 163.245 67.8474 163.28 67.5039 163.212C67.1603 163.143 66.8446 162.975 66.5969 162.727C66.3492 162.479 66.1805 162.164 66.1122 161.82C66.0438 161.476 66.0789 161.12 66.213 160.797C66.347 160.473 66.5741 160.196 66.8653 160.002C67.1566 159.807 67.4991 159.703 67.8494 159.703C68.0823 159.702 68.3131 159.747 68.5285 159.836C68.7439 159.924 68.9396 160.055 69.1043 160.219C69.269 160.384 69.3995 160.58 69.4881 160.795C69.5767 161.011 69.6218 161.242 69.6207 161.474Z" fill="#4F46E5"/>
<path d="M103.918 223.454C103.918 223.804 103.814 224.147 103.619 224.438C103.424 224.729 103.148 224.956 102.824 225.09C102.5 225.224 102.144 225.26 101.801 225.191C101.457 225.123 101.142 224.954 100.894 224.706C100.646 224.459 100.477 224.143 100.409 223.799C100.341 223.456 100.376 223.1 100.51 222.776C100.644 222.452 100.871 222.176 101.162 221.981C101.454 221.787 101.796 221.683 102.146 221.683C102.379 221.682 102.61 221.727 102.825 221.815C103.041 221.904 103.237 222.034 103.401 222.199C103.566 222.364 103.696 222.559 103.785 222.775C103.874 222.99 103.919 223.221 103.918 223.454Z" fill="#4F46E5"/>
<path d="M85.8668 160.651C85.8668 161.002 85.7629 161.344 85.5683 161.635C85.3736 161.927 85.097 162.154 84.7733 162.288C84.4497 162.422 84.0935 162.457 83.7499 162.388C83.4064 162.32 83.0907 162.151 82.843 161.904C82.5953 161.656 82.4266 161.34 82.3583 160.997C82.2899 160.653 82.325 160.297 82.459 159.973C82.5931 159.65 82.8201 159.373 83.1114 159.178C83.4027 158.984 83.7452 158.88 84.0955 158.88C84.3284 158.879 84.5592 158.924 84.7746 159.013C84.99 159.101 85.1857 159.232 85.3504 159.396C85.5151 159.561 85.6456 159.757 85.7342 159.972C85.8228 160.187 85.8679 160.418 85.8668 160.651Z" fill="#4F46E5"/>
<path d="M111.14 120.86C111.142 121.21 111.039 121.554 110.846 121.846C110.652 122.138 110.376 122.367 110.052 122.502C109.729 122.637 109.373 122.674 109.028 122.606C108.684 122.539 108.368 122.371 108.119 122.123C107.871 121.876 107.701 121.56 107.632 121.217C107.563 120.873 107.598 120.516 107.732 120.192C107.866 119.868 108.093 119.591 108.384 119.396C108.675 119.201 109.018 119.097 109.369 119.097C109.837 119.097 110.287 119.282 110.619 119.613C110.95 119.943 111.138 120.391 111.14 120.86Z" fill="#4F46E5"/>
<path d="M48.3064 163.231C49.2847 163.231 50.0777 162.438 50.0777 161.46C50.0777 160.482 49.2847 159.688 48.3064 159.688C47.3282 159.688 46.5352 160.482 46.5352 161.46C46.5352 162.438 47.3282 163.231 48.3064 163.231Z" fill="#4F46E5"/>
<path d="M285.75 231.208C285.75 231.558 285.646 231.901 285.451 232.192C285.256 232.483 284.98 232.71 284.656 232.844C284.333 232.978 283.976 233.013 283.633 232.945C283.289 232.877 282.974 232.708 282.726 232.46C282.478 232.213 282.309 231.897 282.241 231.553C282.173 231.21 282.208 230.854 282.342 230.53C282.476 230.206 282.703 229.93 282.994 229.735C283.286 229.54 283.628 229.437 283.978 229.437C284.448 229.437 284.899 229.623 285.231 229.955C285.563 230.288 285.75 230.738 285.75 231.208Z" fill="#4F46E5"/>
<path d="M273.418 221.946C273.418 222.297 273.313 222.64 273.118 222.931C272.923 223.223 272.646 223.45 272.322 223.583C271.998 223.717 271.642 223.752 271.298 223.683C270.954 223.614 270.638 223.444 270.391 223.196C270.143 222.947 269.975 222.631 269.908 222.287C269.841 221.942 269.877 221.586 270.012 221.263C270.148 220.939 270.376 220.663 270.668 220.469C270.961 220.276 271.304 220.173 271.655 220.175C271.887 220.175 272.117 220.221 272.331 220.31C272.546 220.399 272.74 220.53 272.904 220.694C273.068 220.859 273.198 221.054 273.286 221.269C273.374 221.484 273.419 221.714 273.418 221.946Z" fill="#4F46E5"/>
<path d="M298.98 239.552C298.98 239.902 298.876 240.244 298.682 240.536C298.487 240.827 298.21 241.054 297.887 241.188C297.563 241.322 297.207 241.357 296.863 241.289C296.52 241.22 296.204 241.052 295.956 240.804C295.709 240.556 295.54 240.241 295.472 239.897C295.403 239.554 295.438 239.197 295.572 238.874C295.706 238.55 295.933 238.273 296.225 238.079C296.516 237.884 296.858 237.78 297.209 237.78C297.442 237.779 297.673 237.824 297.888 237.913C298.103 238.002 298.299 238.132 298.464 238.297C298.628 238.461 298.759 238.657 298.847 238.872C298.936 239.088 298.981 239.319 298.98 239.552Z" fill="#4F46E5"/>
<path d="M229.347 241.209C229.347 241.559 229.243 241.902 229.049 242.193C228.854 242.484 228.577 242.711 228.254 242.845C227.93 242.979 227.574 243.014 227.23 242.946C226.887 242.878 226.571 242.709 226.323 242.461C226.076 242.214 225.907 241.898 225.839 241.554C225.77 241.211 225.805 240.855 225.94 240.531C226.074 240.207 226.301 239.931 226.592 239.736C226.883 239.541 227.226 239.438 227.576 239.438C228.046 239.438 228.496 239.624 228.828 239.956C229.161 240.288 229.347 240.739 229.347 241.209Z" fill="#4F46E5"/>
<path d="M240.57 268.396C240.57 268.747 240.466 269.09 240.271 269.381C240.076 269.673 239.799 269.9 239.475 270.034C239.15 270.167 238.794 270.202 238.45 270.133C238.106 270.064 237.791 269.894 237.543 269.646C237.296 269.397 237.128 269.081 237.06 268.737C236.993 268.393 237.029 268.036 237.165 267.713C237.3 267.389 237.528 267.113 237.821 266.92C238.113 266.726 238.456 266.623 238.807 266.625C239.275 266.627 239.724 266.815 240.054 267.147C240.384 267.479 240.57 267.928 240.57 268.396Z" fill="#4F46E5"/>
<path d="M220.929 260.174C220.931 260.525 220.828 260.869 220.634 261.161C220.44 261.454 220.164 261.682 219.84 261.817C219.516 261.952 219.159 261.988 218.814 261.92C218.47 261.852 218.154 261.683 217.906 261.435C217.657 261.187 217.488 260.87 217.42 260.526C217.352 260.182 217.388 259.825 217.523 259.501C217.658 259.177 217.887 258.9 218.179 258.706C218.472 258.512 218.815 258.41 219.166 258.411C219.634 258.411 220.082 258.597 220.413 258.928C220.744 259.258 220.929 259.707 220.929 260.174Z" fill="#4F46E5"/>
<path d="M106.503 101.045C106.505 101.396 106.403 101.739 106.209 102.032C106.015 102.324 105.739 102.552 105.416 102.688C105.092 102.823 104.736 102.859 104.392 102.792C104.048 102.724 103.731 102.556 103.483 102.309C103.234 102.062 103.065 101.746 102.996 101.402C102.927 101.058 102.961 100.702 103.095 100.378C103.229 100.053 103.456 99.7763 103.747 99.5813C104.039 99.3863 104.382 99.2822 104.732 99.2822C105.201 99.2822 105.65 99.4677 105.982 99.7981C106.314 100.129 106.501 100.577 106.503 101.045Z" fill="#4F46E5"/>
<path d="M148.296 80.4984C148.298 80.8491 148.196 81.1923 148.002 81.4847C147.808 81.7771 147.532 82.0054 147.209 82.1407C146.885 82.2761 146.529 82.3123 146.185 82.2449C145.841 82.1775 145.524 82.0094 145.276 81.762C145.027 81.5147 144.858 81.1991 144.789 80.8552C144.72 80.5114 144.754 80.1549 144.888 79.8307C145.022 79.5066 145.249 79.2294 145.54 79.0344C145.832 78.8394 146.175 78.7354 146.525 78.7354C146.994 78.7353 147.443 78.9208 147.775 79.2512C148.107 79.5816 148.294 80.0301 148.296 80.4984Z" fill="#4F46E5"/>
<path d="M200.027 75.6375C200.027 75.9878 199.923 76.3303 199.728 76.6216C199.534 76.9129 199.257 77.1399 198.934 77.274C198.61 77.408 198.254 77.4431 197.91 77.3747C197.567 77.3064 197.251 77.1377 197.003 76.89C196.755 76.6423 196.587 76.3267 196.518 75.9831C196.45 75.6395 196.485 75.2833 196.619 74.9597C196.753 74.636 196.98 74.3594 197.272 74.1647C197.563 73.9701 197.905 73.8662 198.256 73.8662C198.725 73.8662 199.176 74.0528 199.508 74.385C199.84 74.7172 200.027 75.1677 200.027 75.6375Z" fill="#4F46E5"/>
<path d="M281.418 33.225C281.419 33.5756 281.317 33.9189 281.123 34.2113C280.929 34.5036 280.653 34.732 280.33 34.8673C280.006 35.0026 279.65 35.0389 279.306 34.9714C278.962 34.904 278.645 34.736 278.397 34.4886C278.148 34.2412 277.979 33.9256 277.91 33.5818C277.841 33.238 277.875 32.8814 278.009 32.5573C278.143 32.2331 278.37 31.956 278.661 31.761C278.953 31.566 279.296 31.4619 279.646 31.4619C280.115 31.4619 280.564 31.6474 280.896 31.9778C281.228 32.3082 281.415 32.7566 281.418 33.225Z" fill="#4F46E5"/>
<path d="M145.511 30.3514C145.511 30.7017 145.407 31.0442 145.213 31.3354C145.018 31.6267 144.742 31.8538 144.418 31.9878C144.094 32.1219 143.738 32.157 143.394 32.0886C143.051 32.0203 142.735 31.8516 142.488 31.6039C142.24 31.3561 142.071 31.0405 142.003 30.6969C141.934 30.3533 141.97 29.9972 142.104 29.6735C142.238 29.3499 142.465 29.0732 142.756 28.8786C143.047 28.684 143.39 28.5801 143.74 28.5801C144.209 28.5822 144.658 28.7696 144.99 29.1013C145.322 29.433 145.509 29.8823 145.511 30.3514Z" fill="#4F46E5"/>
<path d="M125.287 225.011C125.287 225.011 125.212 224.945 125.081 224.805L124.496 224.187L122.296 221.773C121.818 221.237 121.266 220.669 120.722 220.002L118.951 217.81C118.325 216.986 117.625 216.204 116.941 215.281L114.832 212.332C111.394 207.461 108.436 202.268 106 196.827C103.039 190.146 100.97 183.105 99.846 175.884C99.4835 173.973 99.3599 172.053 99.1375 170.175L98.9645 167.366C98.9645 166.904 98.9068 166.435 98.8821 165.981C98.8574 165.528 98.8821 165.059 98.8821 164.597C98.8821 163.686 98.8821 162.779 98.8821 161.879L98.9809 159.209C98.9809 158.328 99.0633 157.455 99.1375 156.598C99.2116 155.741 99.2858 154.892 99.3517 154.052C99.9926 148.125 101.212 142.275 102.993 136.586C104.18 132.751 105.642 129.007 107.368 125.382C107.986 124.097 108.505 123.125 108.875 122.474C109.057 122.144 109.205 121.905 109.304 121.74C109.403 121.576 109.46 121.493 109.469 121.502C109.433 121.589 109.392 121.675 109.345 121.757L108.95 122.515C108.604 123.174 108.126 124.163 107.524 125.448C105.857 129.09 104.439 132.842 103.281 136.677C101.533 142.344 100.331 148.165 99.6895 154.06C99.6235 154.884 99.5494 155.708 99.4835 156.598C99.4176 157.488 99.3517 158.32 99.3352 159.193C99.3187 160.066 99.2693 160.956 99.2363 161.846C99.2034 162.735 99.2363 163.65 99.2363 164.556C99.2363 165.009 99.2363 165.471 99.2363 165.932C99.2363 166.393 99.294 166.847 99.3187 167.308L99.4917 170.109C99.7224 171.979 99.846 173.882 100.2 175.785C101.32 182.971 103.37 189.98 106.297 196.637C108.709 202.062 111.627 207.248 115.013 212.126L117.089 215.083C117.765 216.006 118.457 216.838 119.075 217.629L120.813 219.837C121.349 220.512 121.892 221.089 122.354 221.625L124.496 224.096L125.048 224.747C125.229 224.912 125.295 225.002 125.287 225.011Z" fill="#4F46E5"/>
<path d="M48.2567 165.858C48.2478 165.778 48.2478 165.698 48.2567 165.619V164.918C48.2567 164.268 48.2567 163.361 48.3144 162.216C48.3144 161.631 48.3144 160.972 48.3638 160.264C48.4133 159.555 48.4545 158.781 48.5121 157.949C48.6275 156.301 48.7099 154.39 48.957 152.305C49.0723 151.267 49.1877 150.171 49.303 149.01C49.4184 147.848 49.6243 146.695 49.7973 145.476C50.1022 143.004 50.6212 140.442 51.099 137.715C53.417 125.894 57.0766 114.376 62.0069 103.385C63.185 100.872 64.2642 98.4417 65.4259 96.2914C65.9943 95.1957 66.5134 94.1247 67.0736 93.1278L68.7213 90.2525C69.7182 88.4071 70.748 86.8088 71.6048 85.3836C72.0497 84.675 72.4286 84.0077 72.8323 83.4063L73.9116 81.7586L75.4275 79.5177L75.8229 78.941C75.8686 78.8776 75.9181 78.8171 75.9712 78.7598C75.9475 78.834 75.9113 78.9037 75.8641 78.9657L75.4934 79.5671L74.0516 81.8492L73.0053 83.4969L71.8107 85.4824C70.9869 86.9159 69.9653 88.5224 68.9849 90.3761L67.4114 93.2514C66.8594 94.2565 66.3486 95.3357 65.7636 96.4315C64.6267 98.6064 63.5557 101.012 62.3941 103.525C59.9828 109.022 57.8491 114.637 56.001 120.348C54.2134 126.074 52.7176 131.887 51.5192 137.764C51.0084 140.483 50.4976 143.062 50.1681 145.5C49.9951 146.72 49.7973 147.889 49.6573 149.026C49.5172 150.163 49.4101 151.251 49.2866 152.322C49.0147 154.398 48.9158 156.293 48.7758 157.949C48.7099 158.773 48.6522 159.547 48.5945 160.264C48.5368 160.98 48.5286 161.615 48.5039 162.208C48.4462 163.353 48.3968 164.251 48.3638 164.902C48.3638 165.19 48.3638 165.421 48.3638 165.602C48.3388 165.692 48.3029 165.777 48.2567 165.858Z" fill="#4F46E5"/>
<path d="M216.948 63.948C216.737 63.9132 216.53 63.8581 216.33 63.7832L214.567 63.2395C213.809 62.9841 212.878 62.6958 211.782 62.4156C210.687 62.1355 209.451 61.7483 208.05 61.4517L205.867 60.9492C205.109 60.7762 204.31 60.6444 203.486 60.4878C201.838 60.15 200.067 59.9194 198.197 59.664C194.135 59.1673 190.046 58.9224 185.954 58.9307C181.862 58.9867 177.776 59.2921 173.72 59.8452C171.858 60.1418 170.087 60.3972 168.448 60.7597C167.624 60.9327 166.8 61.0728 166.067 61.254L163.892 61.7978C162.499 62.1108 161.272 62.5145 160.184 62.8193C159.097 63.1242 158.158 63.429 157.408 63.6926L155.653 64.2693C155.451 64.341 155.245 64.3988 155.035 64.4423C155.223 64.3363 155.422 64.2507 155.628 64.1869L157.35 63.5361C158.1 63.2477 158.998 62.9182 160.11 62.5887C161.222 62.2591 162.425 61.8389 163.817 61.5012L165.992 60.9327C166.75 60.7432 167.55 60.5949 168.373 60.4137C170.021 60.0347 171.801 59.7628 173.671 59.458C181.814 58.2476 190.086 58.1839 198.246 59.2685C200.116 59.5486 201.904 59.7875 203.552 60.1418C204.376 60.3148 205.2 60.4466 205.941 60.6279L208.124 61.1634C209.525 61.4764 210.752 61.8801 211.848 62.1932C212.944 62.5063 213.875 62.8193 214.625 63.0994L216.355 63.7173C216.56 63.7737 216.759 63.851 216.948 63.948Z" fill="#4F46E5"/>
<path d="M249.09 101.475C248.938 101.341 248.8 101.192 248.678 101.03C248.389 100.701 248.019 100.264 247.557 99.7121L246.733 98.7565C246.437 98.4187 246.091 98.0644 245.728 97.669C244.995 96.9028 244.204 95.9801 243.257 95.0738L241.741 93.6156C241.205 93.1131 240.612 92.6352 240.027 92.1162C238.857 91.0617 237.506 90.0566 236.106 88.9773C229.918 84.4015 223.002 80.9032 215.649 78.6297C213.944 78.1436 212.354 77.6493 210.789 77.3363C210.023 77.1632 209.289 76.9737 208.564 76.8419L206.496 76.4877C205.178 76.224 203.967 76.1334 202.913 76.0016C202.385 75.9357 201.891 75.8698 201.438 75.8286L200.202 75.7956L198.48 75.6721C198.278 75.6683 198.076 75.6434 197.879 75.5979C198.079 75.578 198.28 75.578 198.48 75.5979H200.21H201.463C201.924 75.5979 202.418 75.6803 202.946 75.7297C204.008 75.8368 205.228 75.911 206.554 76.1499L208.638 76.4877C209.363 76.603 210.105 76.7925 210.879 76.9573C212.436 77.2539 214.059 77.7811 215.773 78.2178C223.191 80.4626 230.161 83.9838 236.369 88.6231C237.77 89.727 239.129 90.7404 240.291 91.8114C240.876 92.3469 241.469 92.833 241.996 93.3437L243.504 94.8267C244.476 95.7494 245.259 96.6886 245.976 97.4795C246.322 97.875 246.668 98.2374 246.956 98.5917C247.244 98.946 247.5 99.2755 247.73 99.5803C248.175 100.141 248.554 100.602 248.793 100.948C248.908 101.114 249.007 101.291 249.09 101.475Z" fill="#4F46E5"/>
<path d="M266.708 79.0896C266.645 79.047 266.587 78.9972 266.535 78.9413L266.049 78.4799L264.22 76.6757L262.902 75.3658C262.408 74.8962 261.856 74.4183 261.254 73.8828C260.068 72.8365 258.783 71.576 257.193 70.3567L254.721 68.3877C253.897 67.7039 252.933 67.0695 251.994 66.3693C250.132 64.944 248.007 63.6094 245.799 62.1676C240.958 59.1604 235.906 56.5088 230.681 54.2339C225.4 52.0383 219.968 50.2266 214.426 48.8129C211.856 48.228 209.417 47.6266 207.094 47.2806C205.941 47.0911 204.829 46.8522 203.749 46.7203L200.643 46.3414C198.666 46.053 196.862 45.9953 195.28 45.8635C194.456 45.8141 193.756 45.7482 193.072 45.7152H191.218L188.648 45.6493H187.981H187.75C187.826 45.6364 187.904 45.6364 187.981 45.6493H188.648H191.218H193.08C193.764 45.6493 194.497 45.7152 195.296 45.7564C196.878 45.8635 198.691 45.9047 200.676 46.1684L203.799 46.5226C204.878 46.6544 205.998 46.8769 207.16 47.0581C209.492 47.3959 211.938 47.9891 214.517 48.5575C225.677 51.2285 236.329 55.6972 246.054 61.7886C248.262 63.2469 250.388 64.598 252.25 66.0397C253.189 66.7482 254.12 67.3908 254.968 68.0829L257.39 70.0849C258.964 71.3206 260.249 72.5564 261.427 73.6686C262.012 74.2041 262.564 74.6984 263.075 75.1763L264.368 76.5192L266.148 78.3811L266.601 78.8754C266.648 78.9408 266.684 79.0131 266.708 79.0896Z" fill="#4F46E5"/>
<path d="M323.908 160.445C323.898 160.374 323.898 160.302 323.908 160.231V159.58C323.908 158.987 323.908 158.155 323.859 157.108C323.859 156.565 323.859 155.971 323.859 155.32C323.859 154.67 323.793 153.953 323.76 153.187C323.669 151.663 323.636 149.891 323.43 148.013C323.348 147.057 323.266 146.052 323.167 145.006C323.068 143.96 322.911 142.88 322.771 141.76C322.524 139.519 322.096 137.138 321.675 134.633C320.643 129.229 319.306 123.888 317.672 118.634C315.997 113.385 314.031 108.233 311.781 103.203C310.693 100.905 309.697 98.7052 308.617 96.7197C308.09 95.7228 307.612 94.7342 307.093 93.828L305.594 91.2081C304.671 89.5604 303.715 88.0692 302.916 86.7676L301.788 84.9633L300.783 83.4804L299.407 81.4207L299.052 80.877L298.945 80.6875C301.455 84.0005 303.763 87.4615 305.857 91.0516L307.382 93.6632C307.909 94.5777 308.395 95.5581 308.93 96.5549C310.026 98.5404 311.04 100.74 312.135 103.039C314.419 108.074 316.402 113.241 318.075 118.511C319.699 123.796 321.014 129.171 322.013 134.609C322.417 137.08 322.837 139.502 323.068 141.76C323.2 142.889 323.356 143.968 323.439 145.014C323.521 146.06 323.603 147.074 323.677 148.029C323.998 152.16 324.075 156.305 323.908 160.445Z" fill="#4F46E5"/>
<path d="M305.751 139.107C305.78 139.238 305.803 139.37 305.817 139.503C305.859 139.791 305.908 140.178 305.966 140.673C306.073 141.703 306.328 143.218 306.452 145.187C306.919 150.73 307.035 156.297 306.798 161.854C306.674 165.38 306.353 169.228 305.9 173.347C305.447 177.466 304.738 181.841 303.717 186.388C303.486 187.534 303.23 188.687 302.893 189.84L302.011 193.35C301.327 195.69 300.668 198.095 299.82 200.485C298.175 205.46 296.145 210.3 293.748 214.96C291.311 219.597 288.558 224.062 285.509 228.323C282.654 232.279 279.576 236.069 276.29 239.675C270.729 245.779 264.618 251.358 258.034 256.342C253.614 259.721 248.968 262.793 244.127 265.536C242.438 266.549 241.046 267.184 240.131 267.686L239.085 268.222C238.846 268.345 238.723 268.395 238.723 268.395C238.723 268.395 238.83 268.321 239.06 268.189L240.09 267.612C240.988 267.093 242.364 266.426 244.045 265.396C248.846 262.596 253.464 259.492 257.869 256.103C264.398 251.09 270.464 245.501 275.994 239.403C279.258 235.803 282.317 232.021 285.155 228.075C288.19 223.831 290.929 219.383 293.352 214.762C295.738 210.122 297.762 205.304 299.408 200.353C300.232 197.972 300.915 195.574 301.599 193.243C301.896 192.065 302.192 190.895 302.489 189.742C302.786 188.588 303.049 187.443 303.313 186.306C304.343 181.775 304.961 177.4 305.529 173.306C306.097 169.211 306.353 165.355 306.476 161.846C306.741 156.297 306.669 150.736 306.262 145.196C306.172 143.235 305.941 141.719 305.867 140.689C305.817 140.187 305.784 139.791 305.76 139.511C305.735 139.231 305.751 139.107 305.751 139.107Z" fill="#4F46E5"/>
<path d="M268.285 103.607C268.285 103.607 268.368 103.682 268.508 103.855L269.134 104.596C269.661 105.263 270.51 106.203 271.473 107.521C274.253 111.175 276.759 115.031 278.971 119.055C280.396 121.592 281.772 124.467 283.147 127.598C284.572 130.95 285.812 134.377 286.863 137.863C288.032 141.716 288.951 145.64 289.615 149.611C290.344 153.874 290.774 158.182 290.9 162.505C291.012 166.825 290.855 171.147 290.43 175.448C289.978 179.451 289.285 183.424 288.354 187.344C285.656 198.452 280.906 208.958 274.349 218.321C273.442 219.672 272.635 220.644 272.133 221.336L271.531 222.102C271.468 222.192 271.4 222.278 271.325 222.358C271.371 222.257 271.429 222.163 271.498 222.078L272.058 221.254C272.536 220.554 273.327 219.565 274.209 218.197C276.788 214.413 279.093 210.448 281.104 206.334C284.097 200.234 286.401 193.821 287.975 187.212C288.887 183.321 289.564 179.379 290.002 175.406C290.424 171.122 290.578 166.816 290.463 162.513C290.336 158.212 289.907 153.926 289.178 149.686C288.528 145.729 287.622 141.818 286.468 137.979C285.431 134.502 284.21 131.084 282.81 127.738C281.442 124.616 280.091 121.74 278.69 119.203C276.512 115.175 274.053 111.304 271.333 107.62C270.394 106.293 269.57 105.338 269.06 104.654L268.466 103.879C268.397 103.795 268.337 103.704 268.285 103.607Z" fill="#4F46E5"/>
<path d="M233.262 295.566L232.817 295.673L231.515 295.945C230.37 296.176 228.673 296.547 226.482 296.909C220.286 297.991 214.038 298.753 207.764 299.191C198.457 299.86 189.114 299.841 179.81 299.133C174.562 298.738 169.059 298.128 163.407 297.189C157.566 296.25 151.777 295.007 146.065 293.465C134.996 290.507 124.467 285.807 114.874 279.542C110.698 276.814 106.679 273.852 102.837 270.669C99.2043 267.753 95.9913 264.746 93.0995 261.986C87.3325 256.45 83.0815 251.638 80.1568 248.277C78.6985 246.629 77.5946 245.27 76.8614 244.364L76.0375 243.334L75.7656 242.979L76.0787 243.309L76.952 244.314C77.7182 245.196 78.8468 246.506 80.3298 248.17C83.2792 251.465 87.6127 256.268 93.3467 261.772C96.2302 264.515 99.4432 267.456 103.076 270.397C106.921 273.554 110.936 276.497 115.105 279.213C119.717 282.197 124.544 284.835 129.547 287.105C134.927 289.535 140.495 291.524 146.197 293.053C151.896 294.592 157.671 295.835 163.498 296.777C169.141 297.716 174.628 298.334 179.868 298.738C189.154 299.459 198.479 299.509 207.772 298.886C215.706 298.367 222.09 297.461 226.473 296.744C228.673 296.406 230.37 296.069 231.524 295.863L232.833 295.632L233.262 295.566Z" fill="#4F46E5"/>
<path d="M187.701 281.659C183.951 281.857 180.192 281.81 176.447 281.519L173.72 281.305C172.773 281.231 171.801 281.083 170.779 280.959C168.744 280.745 166.594 280.341 164.329 279.954C154.494 278.112 144.967 274.895 136.029 270.397C133.994 269.335 132.033 268.346 130.262 267.283C129.381 266.764 128.516 266.286 127.708 265.775L125.418 264.293C122.252 262.257 119.224 260.014 116.355 257.578L116.52 257.685L116.998 258.023L118.794 259.358L120.079 260.338C120.557 260.684 121.093 261.038 121.661 261.434C122.798 262.208 124.059 263.139 125.55 264.037L127.848 265.495C128.672 265.998 129.496 266.459 130.402 266.978C132.157 268.025 134.11 268.989 136.169 270.043C145.097 274.475 154.583 277.679 164.37 279.567C166.627 279.962 168.769 280.391 170.796 280.605C171.809 280.737 172.781 280.893 173.72 280.976L176.439 281.223C178.161 281.404 179.735 281.429 181.11 281.503C181.802 281.503 182.437 281.577 183.03 281.593H184.678H186.919H187.504L187.701 281.659Z" fill="#4F46E5"/>
<path d="M159.644 259.827C159.644 259.827 159.397 259.827 158.927 259.728L156.884 259.357L155.409 259.085C154.874 258.97 154.297 258.822 153.671 258.673C152.435 258.352 151.002 258.055 149.469 257.553L147.047 256.811C146.223 256.548 145.35 256.21 144.46 255.889C142.656 255.279 140.802 254.455 138.842 253.623C130.37 249.829 122.562 244.7 115.716 238.431C114.175 236.956 112.684 235.589 111.407 234.18C110.765 233.48 110.106 232.837 109.537 232.17L107.889 230.242C106.81 229.031 105.97 227.836 105.187 226.823C104.8 226.312 104.429 225.843 104.116 225.398L103.292 224.146L102.164 222.44C102.021 222.246 101.897 222.039 101.793 221.822C101.955 222.004 102.103 222.196 102.238 222.399L103.449 224.047L104.314 225.266C104.644 225.703 105.022 226.164 105.41 226.667C106.234 227.663 107.057 228.842 108.153 230.036L109.801 231.939C110.378 232.598 111.028 233.233 111.679 233.925C112.956 235.317 114.456 236.676 116.004 238.135C122.845 244.339 130.611 249.439 139.023 253.252C140.975 254.076 142.813 254.9 144.6 255.551C145.49 255.872 146.331 256.218 147.171 256.49L149.568 257.248C151.092 257.775 152.518 258.072 153.745 258.426C154.363 258.591 154.94 258.756 155.475 258.879L156.934 259.192L158.96 259.629C159.194 259.673 159.423 259.739 159.644 259.827Z" fill="#4F46E5"/>
<path d="M191.37 319.128C191.284 319.15 191.196 319.164 191.107 319.169L190.283 319.235L187.276 319.482L185.101 319.638C184.277 319.638 183.453 319.688 182.506 319.713C180.644 319.713 178.518 319.853 176.17 319.713L172.496 319.605C171.211 319.564 169.884 319.416 168.508 319.317C165.757 319.161 162.832 318.74 159.759 318.345C146.412 316.399 133.435 312.446 121.269 306.621C118.492 305.229 115.831 303.952 113.459 302.552C112.264 301.86 111.078 301.242 109.99 300.566L106.876 298.605C104.866 297.394 103.169 296.134 101.636 295.055C100.878 294.511 100.161 294.025 99.5189 293.547L97.8053 292.196L95.4408 290.317L94.8312 289.823C94.6993 289.708 94.6252 289.65 94.6334 289.642C94.6417 289.634 94.7158 289.642 94.8559 289.79L95.4902 290.251L97.9041 292.064L99.6425 293.382C100.285 293.852 101.01 294.321 101.776 294.857C103.317 295.895 105.022 297.155 107.041 298.342L110.163 300.278C111.251 300.945 112.429 301.555 113.632 302.239C116.004 303.623 118.665 304.891 121.433 306.267C133.588 312.043 146.527 315.999 159.833 318.007C162.898 318.411 165.806 318.831 168.558 319.012C169.925 319.119 171.252 319.276 172.529 319.325L176.195 319.457C178.535 319.597 180.652 319.457 182.514 319.457C183.445 319.457 184.31 319.457 185.109 319.457L187.284 319.325L190.299 319.169H191.123L191.37 319.128Z" fill="#4F46E5"/>
<path d="M73.1548 125.638C73.1136 125.753 65.2869 122.853 55.6726 119.162C46.0582 115.471 38.2975 112.39 38.3716 112.283C38.4458 112.176 46.2394 115.076 55.8621 118.759C65.4847 122.441 73.196 125.531 73.1548 125.638Z" fill="#4F46E5"/>
<path d="M105.283 100.256C105.283 100.256 105.234 100.33 105.119 100.462L104.6 101.038C104.155 101.557 103.43 102.258 102.614 103.271C100.237 106.044 98.1005 109.015 96.2293 112.152C93.4832 116.812 91.2328 121.746 89.5149 126.874C87.4281 133.175 85.9926 139.674 85.2308 146.268C84.6138 151.312 84.4071 156.398 84.6129 161.476V161.699H84.3988L58.5544 161.616L51.0821 161.526H49.0883L48.6105 161.476C48.5531 161.483 48.4949 161.483 48.4375 161.476C48.4375 161.476 48.4952 161.476 48.6105 161.476H49.1295H51.1233L58.6039 161.41L84.4482 161.336L84.2422 161.559C84.0252 156.476 84.2263 151.384 84.8436 146.334C85.6111 139.711 87.0662 133.187 89.1853 126.866C90.9216 121.705 93.2115 116.746 96.0151 112.078C97.9159 108.94 100.097 105.982 102.532 103.238C103.356 102.241 104.114 101.59 104.583 101.063L105.127 100.511C105.209 100.313 105.275 100.247 105.283 100.256Z" fill="#4F46E5"/>
<path d="M124.133 226.197C123.937 226.51 123.711 226.802 123.458 227.071C122.996 227.614 122.321 228.38 121.464 229.32C119.758 231.198 117.345 233.736 114.535 236.421C111.726 239.107 109.098 241.422 107.121 243.012C106.14 243.836 105.341 244.47 104.781 244.907C104.505 245.152 104.204 245.367 103.883 245.55C104.13 245.264 104.407 245.005 104.707 244.775L106.948 242.781C108.842 241.093 111.446 238.745 114.239 236.067C117.032 233.39 119.478 230.893 121.241 229.073L123.334 226.914C123.575 226.648 123.843 226.408 124.133 226.197Z" fill="#4F46E5"/>
<path d="M117.034 255.683C117.133 255.741 112.371 263.559 106.398 273.141C100.425 282.722 95.4988 290.441 95.3999 290.384C95.3011 290.326 100.063 282.499 106.036 272.918C112.009 263.337 116.936 255.617 117.034 255.683Z" fill="#4F46E5"/>
<path d="M156.833 261.383C156.727 261.806 156.586 262.219 156.413 262.619C156.092 263.484 155.663 264.604 155.152 265.955C154.081 268.773 152.623 272.661 151.091 276.987C149.558 281.312 148.232 285.225 147.293 288.117L146.172 291.503C146.056 291.925 145.901 292.336 145.711 292.73C145.778 292.298 145.877 291.871 146.008 291.454C146.23 290.63 146.568 289.468 147.004 288.026C147.828 285.143 149.146 281.18 150.687 276.847C152.228 272.513 153.727 268.608 154.872 265.848C155.441 264.448 155.918 263.327 156.265 262.553C156.418 262.146 156.608 261.754 156.833 261.383Z" fill="#4F46E5"/>
<path d="M229.636 296.274C229.57 296.163 229.52 296.044 229.487 295.919C229.397 295.631 229.281 295.285 229.141 294.873L227.938 290.993C226.95 287.697 225.599 283.182 224.14 278.165C222.682 273.148 221.381 268.576 220.458 265.28C220.021 263.674 219.634 262.355 219.387 261.367L219.148 260.337C219.117 260.212 219.095 260.086 219.082 259.958C219.082 259.958 219.148 260.073 219.239 260.312C219.329 260.551 219.445 260.947 219.585 261.359C219.889 262.339 220.293 263.649 220.779 265.239C221.776 268.534 223.127 273.049 224.585 278.066C226.044 283.084 227.345 287.631 228.268 290.935C228.705 292.533 229.092 293.851 229.331 294.848L229.603 295.919C229.631 296.035 229.642 296.154 229.636 296.274Z" fill="#4F46E5"/>
<path d="M238.041 267.58C237.925 267.58 235.495 261.517 232.612 253.937C229.728 246.358 227.471 240.179 227.578 240.138C227.685 240.097 230.124 246.201 233.007 253.781C235.891 261.36 238.148 267.539 238.041 267.58Z" fill="#4F46E5"/>
<path d="M297.277 239.216C296.882 239.082 296.499 238.917 296.131 238.721C295.406 238.384 294.368 237.897 293.108 237.197C290.57 235.871 287.127 233.902 283.485 231.513C279.844 229.123 276.697 226.693 274.489 224.881C273.377 223.974 272.495 223.233 271.902 222.689C271.574 222.447 271.273 222.171 271.004 221.865C271.357 222.084 271.693 222.329 272.009 222.598L274.678 224.675C276.936 226.421 280.091 228.794 283.741 231.183C287.39 233.572 290.776 235.566 293.264 236.95L296.222 238.598C296.592 238.771 296.945 238.978 297.277 239.216Z" fill="#4F46E5"/>
<path d="M335.568 207.669C335.568 207.784 327.05 205.782 316.62 203.204C306.19 200.625 297.729 198.434 297.762 198.318C297.795 198.203 306.272 200.205 316.71 202.784C327.149 205.362 335.593 207.554 335.568 207.669Z" fill="#4F46E5"/>
<path d="M325.721 160.932C325.721 161.056 318.307 161.237 309.162 161.344C300.017 161.451 292.594 161.443 292.586 161.344C292.578 161.245 300.001 161.039 309.154 160.932C318.307 160.825 325.721 160.817 325.721 160.932Z" fill="#4F46E5"/>
<path d="M305 139.025C305 139.113 294.93 139.402 282.503 139.654C270.076 139.906 260 140.063 260 139.975C260 139.887 270.07 139.598 282.503 139.346C294.935 139.094 305 138.937 305 139.025Z" fill="#4F46E5"/>
<path d="M334.439 110.315C334.327 110.383 334.209 110.439 334.085 110.48L333.039 110.859L329.199 112.227C325.953 113.38 321.48 114.995 316.578 116.873C311.676 118.752 307.26 120.539 304.08 121.816L300.307 123.365L299.277 123.777C299.159 123.832 299.034 123.87 298.906 123.893C298.906 123.893 299.013 123.81 299.244 123.695L300.241 123.217C301.114 122.805 302.383 122.228 303.965 121.569C307.12 120.185 311.511 118.356 316.421 116.47C321.332 114.583 325.83 113.018 329.101 111.938C330.748 111.403 332.066 110.983 332.989 110.703L334.052 110.398C334.176 110.351 334.307 110.323 334.439 110.315Z" fill="#4F46E5"/>
<path d="M271.326 78.9741C271.4 79.0647 266.622 83.3982 260.657 88.6544C254.692 93.9106 249.782 98.104 249.708 98.0134C249.634 97.9228 254.404 93.5893 260.369 88.3331C266.333 83.0769 271.243 78.8835 271.326 78.9741Z" fill="#4F46E5"/>
<path d="M278.896 33.6216C278.995 33.6957 274.167 40.6326 268.12 49.1265C262.073 57.6205 257.089 64.442 256.99 64.3761C256.891 64.3102 261.719 57.3651 267.774 48.8711C273.829 40.3772 278.797 33.5557 278.896 33.6216Z" fill="#4F46E5"/>
<path d="M187.094 43.7545C187.071 43.6209 187.071 43.4844 187.094 43.3508C187.094 43.0377 187.094 42.6588 187.136 42.1974C187.185 41.1264 187.243 39.7258 187.325 37.9463C187.465 34.3543 187.572 29.3947 187.457 23.9408C187.342 18.4869 187.02 13.5025 186.724 9.93526L186.361 5.70064L186.262 4.54724C186.241 4.41356 186.241 4.27724 186.262 4.14355C186.316 4.26887 186.347 4.40282 186.353 4.539C186.402 4.84383 186.452 5.22281 186.526 5.68417C186.666 6.67279 186.839 8.15573 187.029 9.91054C187.399 13.4861 187.77 18.4539 187.852 23.9161C187.935 29.3782 187.811 34.379 187.589 37.971C187.482 39.767 187.375 41.217 187.267 42.2221L187.144 43.3755C187.139 43.5031 187.122 43.6299 187.094 43.7545Z" fill="#4F46E5"/>
<path d="M146.305 80.3824C146.053 80.1153 145.829 79.8226 145.638 79.5091C145.234 78.9324 144.674 78.0921 143.99 77.0375C142.631 74.9285 140.827 71.9544 138.973 68.593C137.119 65.2317 135.579 62.1093 134.524 59.8272C133.997 58.6903 133.577 57.7593 133.313 57.1085C133.152 56.7808 133.023 56.4388 132.926 56.0869C133.135 56.387 133.315 56.7072 133.461 57.0426L134.796 59.6954C135.925 61.9445 137.506 65.0257 139.352 68.3871C141.197 71.7484 142.96 74.7307 144.295 76.881L145.819 79.4267C146.011 79.7291 146.174 80.0491 146.305 80.3824Z" fill="#4F46E5"/>
<path d="M268.213 129.238C268.206 129.145 268.206 129.052 268.213 128.958V128.134C268.213 127.426 268.213 126.429 268.171 125.16C268.171 122.573 268.122 118.883 268.081 114.36L268.246 114.524L240.185 114.574C239.996 114.772 240.449 114.318 240.399 114.368V122.021C240.399 124.493 240.399 126.907 240.399 129.197L240.193 128.991L260.312 129.09L266.136 129.148H267.694H268.254C268.084 129.159 267.913 129.159 267.743 129.148H266.219L260.452 129.197L240.202 129.296H240.004V129.098C240.004 126.808 240.004 124.402 240.004 121.923C240.004 120.679 240.004 119.451 240.004 118.141V114.269C239.954 114.31 240.407 113.857 240.218 114.047L268.278 114.104H268.443V114.261C268.443 118.825 268.377 122.549 268.353 125.16C268.353 126.413 268.353 127.393 268.311 128.101C268.311 128.415 268.311 128.662 268.311 128.859C268.296 128.99 268.263 129.117 268.213 129.238Z" fill="#4F46E5"/>
<path d="M263.28 119.574C263.28 119.689 258.922 119.788 253.542 119.788C248.162 119.788 243.812 119.689 243.812 119.574C243.812 119.458 248.171 119.359 253.542 119.359C258.914 119.359 263.28 119.458 263.28 119.574Z" fill="#4F46E5"/>
<path d="M263.28 122.771C263.28 122.886 258.922 122.985 253.542 122.985C248.162 122.985 243.812 122.886 243.812 122.771C243.812 122.655 248.171 122.557 253.542 122.557C258.914 122.557 263.28 122.655 263.28 122.771Z" fill="#4F46E5"/>
<path d="M256.622 128.908C256.834 130.234 256.906 131.579 256.837 132.92C256.905 134.259 256.834 135.601 256.622 136.924C256.411 135.601 256.339 134.259 256.408 132.92C256.339 131.579 256.411 130.234 256.622 128.908Z" fill="#4F46E5"/>
<path d="M347.284 194.431C347.284 194.431 347.284 194.332 347.284 194.151C347.284 193.969 347.284 193.689 347.284 193.327C347.284 192.618 347.284 191.621 347.243 190.353C347.243 187.766 347.194 184.083 347.161 179.552L347.317 179.717L319.306 179.766C319.108 179.964 319.562 179.511 319.52 179.56V181.496C319.52 182.147 319.52 182.79 319.52 183.432V187.214C319.52 189.685 319.52 192.099 319.52 194.39L319.323 194.184L339.433 194.282L345.258 194.34H346.823H347.375C347.208 194.352 347.04 194.352 346.872 194.34H345.348L339.581 194.39L319.331 194.488H319.125V194.431C319.125 192.14 319.125 189.735 319.125 187.255V179.601C319.075 179.601 319.529 179.189 319.339 179.379L347.35 179.437H347.515V179.601C347.515 184.174 347.449 187.889 347.424 190.501C347.424 191.753 347.424 192.734 347.424 193.442V194.2C347.391 194.284 347.343 194.362 347.284 194.431Z" fill="#4F46E5"/>
<path d="M342.351 184.765C342.351 184.88 337.992 184.979 332.621 184.979C327.249 184.979 322.883 184.88 322.883 184.765C322.883 184.65 327.241 184.551 332.621 184.551C338.001 184.551 342.351 184.65 342.351 184.765Z" fill="#4F46E5"/>
<path d="M342.351 187.963C342.351 188.087 337.992 188.177 332.621 188.177C327.249 188.177 322.883 188.087 322.883 187.963C322.883 187.84 327.241 187.749 332.621 187.749C338.001 187.749 342.351 187.84 342.351 187.963Z" fill="#4F46E5"/>
<path d="M353.588 54.6699H325.527V69.5075H353.588V54.6699Z" fill="white"/>
<path d="M353.576 69.5075C353.576 69.5075 353.576 69.4086 353.576 69.2273C353.576 69.0461 353.576 68.766 353.576 68.4035C353.576 67.6867 353.576 66.6899 353.534 65.4294C353.534 62.8342 353.485 59.1516 353.452 54.6286L353.608 54.7852L325.556 54.8428C325.359 55.0323 325.812 54.5792 325.77 54.6286V58.5008C325.77 59.786 325.77 61.0465 325.77 62.2822C325.77 64.7538 325.77 67.1677 325.77 69.458L325.573 69.2603L345.683 69.3592L351.508 69.4086H353.073H353.625C353.458 69.4201 353.29 69.4201 353.122 69.4086H351.598L345.831 69.4663L325.581 69.5651H325.375V69.3592C325.375 67.0688 325.375 64.6714 325.375 62.1834V54.6781L325.589 54.4639L353.641 54.5133H353.806V54.6781C353.806 59.2422 353.74 62.9166 353.724 65.5777C353.724 66.8217 353.724 67.8103 353.724 68.5188C353.724 68.8237 353.724 69.079 353.724 69.2685C353.688 69.3561 353.638 69.4369 353.576 69.5075Z" fill="#4F46E5"/>
<path d="M348.652 59.8529C348.652 59.9682 344.285 60.0671 338.914 60.0671C333.542 60.0671 329.176 59.9682 329.176 59.8529C329.176 59.7375 333.534 59.6387 338.914 59.6387C344.294 59.6387 348.652 59.7293 348.652 59.8529Z" fill="#4F46E5"/>
<path d="M348.652 63.0492C348.652 63.1645 344.285 63.2634 338.914 63.2634C333.542 63.2634 329.176 63.1645 329.176 63.0492C329.176 62.9338 333.534 62.835 338.914 62.835C344.294 62.835 348.652 62.9256 348.652 63.0492Z" fill="#4F46E5"/>
<path d="M334.3 69.4414C334.424 69.4414 334.514 78.2072 334.514 89.0079C334.514 99.8087 334.424 108.583 334.3 108.583C334.177 108.583 334.086 99.8169 334.086 89.0079C334.086 78.199 334.185 69.4414 334.3 69.4414Z" fill="#4F46E5"/>
<path d="M28.2455 107.926C28.2339 107.833 28.2339 107.739 28.2455 107.646V106.863C28.2455 106.146 28.2455 105.149 28.2455 103.881C28.2455 101.294 28.1961 97.6111 28.1631 93.0882L28.3279 93.2447L0.267429 93.3024L0.481631 93.0882V96.9603C0.481631 98.2373 0.481631 99.506 0.481631 100.742C0.481631 103.213 0.481631 105.627 0.481631 107.918L0.283906 107.72L20.3942 107.819L26.2189 107.868H27.7842H28.3444C28.1743 107.879 28.0037 107.879 27.8336 107.868H26.3095L20.5425 107.926L0.292145 108.025H0.00379572V107.926C0.00379572 105.635 0.00379572 103.238 0.00379572 100.75V93.0964C-0.0456356 93.1376 0.407485 92.6845 0.217998 92.8822L28.2785 92.9316H28.435V93.0964C28.435 97.6606 28.3691 101.376 28.3526 103.996C28.3526 105.24 28.3526 106.229 28.3526 106.937C28.3526 107.242 28.3526 107.489 28.3526 107.687C28.3526 107.885 28.2455 107.926 28.2455 107.926Z" fill="#4F46E5"/>
<path d="M23.3114 98.2454C23.3114 98.369 18.9532 98.4596 13.5735 98.4596C8.1937 98.4596 3.84375 98.369 3.84375 98.2454C3.84375 98.1219 8.1937 98.0312 13.5735 98.0312C18.9532 98.0312 23.3114 98.1301 23.3114 98.2454Z" fill="#4F46E5"/>
<path d="M23.3114 101.451C23.3114 101.566 18.9532 101.665 13.5735 101.665C8.1937 101.665 3.84375 101.566 3.84375 101.451C3.84375 101.335 8.1937 101.236 13.5735 101.236C18.9532 101.236 23.3114 101.335 23.3114 101.451Z" fill="#4F46E5"/>
<path d="M78.705 264.837H50.6445V279.675H78.705V264.837Z" fill="white"/>
<path d="M78.7062 279.674C78.6946 279.581 78.6946 279.487 78.7062 279.394V278.611C78.7062 277.895 78.7062 276.898 78.7062 275.629C78.7062 273.042 78.6568 269.359 78.6156 264.837L78.7804 264.993L50.7199 265.051L50.9341 264.837V272.49C50.9341 274.962 50.9341 277.376 50.9341 279.666L50.7364 279.468L70.8549 279.567L76.6713 279.616H78.2366H78.7968C78.6268 279.628 78.4561 279.628 78.2861 279.616H76.7619L70.9949 279.674L50.7446 279.773H50.5469V279.567C50.5469 277.277 50.5469 274.879 50.5469 272.391V264.738L50.7611 264.523L78.8216 264.573H78.9863V264.738C78.9863 269.302 78.9204 273.017 78.9039 275.629C78.9039 276.881 78.904 277.87 78.8628 278.578C78.8628 278.883 78.8628 279.13 78.8628 279.328C78.8294 279.451 78.7765 279.568 78.7062 279.674Z" fill="#4F46E5"/>
<path d="M73.7724 270.01C73.7724 270.134 69.4142 270.224 64.0344 270.224C58.6546 270.224 54.3047 270.134 54.3047 270.01C54.3047 269.887 58.6629 269.796 64.0344 269.796C69.4059 269.796 73.7724 269.895 73.7724 270.01Z" fill="#4F46E5"/>
<path d="M73.7724 273.214C73.7724 273.33 69.4142 273.428 64.0344 273.428C58.6546 273.428 54.3047 273.33 54.3047 273.214C54.3047 273.099 58.6629 273 64.0344 273C69.4059 273 73.7724 273.091 73.7724 273.214Z" fill="#4F46E5"/>
<path d="M246.477 16.6419C246.477 16.6419 246.477 16.5348 246.477 16.3618C246.477 16.1888 246.477 15.8922 246.477 15.538C246.477 14.8212 246.477 13.8243 246.435 12.5638C246.435 9.9687 246.386 6.28607 246.353 1.76311L246.51 1.92788L218.457 1.97731C218.26 2.1668 218.713 1.71368 218.663 1.76311V9.41672C218.663 11.8883 218.663 14.2939 218.663 16.5925L218.457 16.3865L238.576 16.4854L244.401 16.5431H245.966H246.518C246.518 16.5431 246.353 16.5431 246.007 16.5431H244.491L238.724 16.6007L218.474 16.6996H218.276V16.6419C218.276 14.3434 218.276 11.946 218.276 9.46615V5.68466C218.276 5.04205 218.276 4.39944 218.276 3.7486V1.81254C218.235 1.86197 218.688 1.40885 218.499 1.59834L246.551 1.64777H246.716V1.8043C246.674 6.36845 246.65 10.0923 246.625 12.7039C246.625 13.9562 246.625 14.9365 246.584 15.6451V16.403C246.561 16.4878 246.525 16.5685 246.477 16.6419Z" fill="#4F46E5"/>
<path d="M241.542 6.97885C241.542 7.09419 237.184 7.19305 231.812 7.19305C226.441 7.19305 222.074 7.09419 222.074 6.97885C222.074 6.86351 226.432 6.76465 231.812 6.76465C237.192 6.76465 241.542 6.85527 241.542 6.97885Z" fill="#4F46E5"/>
<path d="M241.542 10.1751C241.542 10.2905 237.184 10.3893 231.812 10.3893C226.441 10.3893 222.074 10.2905 222.074 10.1751C222.074 10.0598 226.432 9.96094 231.812 9.96094C237.192 9.96094 241.542 10.0598 241.542 10.1751Z" fill="#4F46E5"/>
<path d="M34.8048 111.221C34.4881 111.288 34.1646 111.319 33.8409 111.312L31.2128 111.378C28.9884 111.378 25.9237 111.435 22.5376 111.435C18.9868 111.435 15.7902 111.435 13.5741 111.369H13.4258V111.221C13.4258 110.265 13.4752 109.45 13.4917 108.791C13.4849 108.495 13.5126 108.199 13.5741 107.909C13.6411 108.198 13.6688 108.495 13.6565 108.791C13.6565 109.45 13.6565 110.265 13.7224 111.221L13.5741 111.081C15.7902 111.04 18.9868 111.007 22.5376 111.007C25.9237 111.007 28.9884 111.007 31.2128 111.073L33.8409 111.139C34.1642 111.132 34.4873 111.16 34.8048 111.221Z" fill="#4F46E5"/>
<path d="M220.508 62.3255C220.525 62.1645 220.564 62.0065 220.623 61.8559C220.722 61.5181 220.854 61.0815 221.019 60.5542L222.485 55.7594C223.696 51.7142 225.27 46.0791 226.703 39.7931C227.395 36.7613 227.997 33.8531 228.507 31.2003C228.425 26.9574 228.351 23.3242 228.301 20.6879C228.301 19.4439 228.301 18.4305 228.301 17.6726C228.281 17.3151 228.295 16.9565 228.343 16.6016C228.396 16.9562 228.426 17.314 228.433 17.6726C228.433 18.4305 228.516 19.4356 228.565 20.6796C228.656 23.316 228.779 26.9492 228.928 31.192C228.442 33.8531 227.848 36.7695 227.156 39.8013C225.715 46.1038 224.1 51.739 222.806 55.7676C222.164 57.7861 221.604 59.409 221.208 60.5213L220.738 61.8065C220.686 61.9893 220.608 62.164 220.508 62.3255Z" fill="#4F46E5"/>
<path d="M103.917 273.214C103.917 273.33 98.5945 273.428 92.0367 273.428C85.4788 273.428 80.1484 273.33 80.1484 273.214C80.1484 273.099 85.4705 273 92.0367 273C98.6028 273 103.917 273.091 103.917 273.214Z" fill="#4F46E5"/>
<path d="M148 131H228V137.872H148V131Z" fill="#4F46E5"/>
<path d="M153.714 137.872H222.286V188.268H153.714V137.872Z" fill="#4F46E5"/>
<path d="M169.559 187.694L176 187.695L169.559 206.999L162.858 207L169.559 187.694Z" fill="#4F46E5"/>
<path d="M205.87 187.694L199.429 187.695L205.869 206.999L212.571 207L205.87 187.694Z" fill="#4F46E5"/>
<path d="M170.857 195.14H205.143V200.867H170.857V195.14Z" fill="#4F46E5"/>
<path d="M170 170.301L185 153.352L193.424 163.352L206.924 149.852" stroke="white" stroke-width="2"/>
<path d="M64.9916 313.494V295C68.5348 294.999 71.9995 296.072 74.9518 298.085C77.904 300.099 80.2125 302.962 81.588 306.318C82.9635 309.674 83.3449 313.372 82.6844 316.949C82.0239 320.526 80.3508 323.824 77.8748 326.428C75.3988 329.033 72.2299 330.828 68.7652 331.59C65.3005 332.352 61.694 332.047 58.3976 330.712C55.1011 329.377 52.2613 327.072 50.2338 324.086C48.2063 321.1 47.0814 317.565 47 313.925L64.9916 313.494Z" fill="#E0E0E0"/>
<path d="M60 308.578L42 309C41.9991 304.033 43.8212 299.25 47.0991 295.616C50.4532 292.141 54.9718 290.131 59.7206 290L60 308.578Z" fill="#F5F5F5"/>
<path d="M317.493 19.5017L333.811 17.0127C334.331 20.4204 333.77 23.9052 332.208 26.9779C330.646 30.0506 328.161 32.5568 325.101 34.1448C322.042 35.7328 318.562 36.3227 315.15 35.8318C311.738 35.3408 308.566 33.7936 306.078 31.4075C303.59 29.0213 301.913 25.916 301.28 22.5275C300.648 19.139 301.092 15.6375 302.552 12.5146C304.011 9.39172 306.412 6.80431 309.417 5.11563C312.422 3.42695 315.88 2.72181 319.307 3.09921L317.493 19.5017Z" fill="#F5F5F5"/>
<path d="M323.075 3L321 16L334 13.6017C334 13.6017 332.088 6.32014 323.075 3Z" fill="#E0E0E0"/>
<path d="M31 0H21V39H31V0Z" fill="#E0E0E0"/>
<path d="M45 9H35V39H45V9Z" fill="#E0E0E0"/>
<path d="M60 15H50V39H60V15Z" fill="#E0E0E0"/>
<path d="M73 25H63V39H73V25Z" fill="#E0E0E0"/>
<path d="M227.001 223.202C226.96 219.646 228.003 216.158 229.997 213.177C231.992 210.197 234.849 207.859 238.208 206.457C241.567 205.056 245.278 204.653 248.872 205.301C252.465 205.95 255.781 207.619 258.401 210.099C261.021 212.579 262.827 215.758 263.591 219.236C264.355 222.714 264.044 226.334 262.696 229.639C261.348 232.945 259.024 235.788 256.017 237.81C253.01 239.831 249.455 240.941 245.8 240.999C240.884 241.058 236.144 239.217 232.62 235.881C229.096 232.545 227.075 227.985 227.001 223.202ZM254.347 222.771C254.311 221.071 253.757 219.42 252.756 218.025C251.756 216.631 250.353 215.556 248.726 214.937C247.098 214.317 245.318 214.181 243.611 214.544C241.904 214.908 240.346 215.756 239.133 216.98C237.92 218.205 237.108 219.751 236.797 221.425C236.487 223.098 236.693 224.824 237.39 226.383C238.087 227.943 239.242 229.267 240.711 230.188C242.181 231.109 243.897 231.586 245.645 231.559C246.809 231.539 247.958 231.295 249.026 230.842C250.094 230.389 251.06 229.736 251.868 228.92C252.676 228.104 253.311 227.141 253.737 226.086C254.162 225.031 254.37 223.904 254.347 222.771Z" fill="#F5F5F5"/>
<path d="M227.003 222.794C226.919 217.9 228.808 213.174 232.257 209.651C235.706 206.128 240.433 204.095 245.402 204L245.559 213.656C243.21 213.74 240.989 214.727 239.371 216.406C237.753 218.085 236.868 220.322 236.905 222.636C236.942 224.951 237.899 227.158 239.57 228.786C241.241 230.414 243.493 231.331 245.843 231.342L246 240.998C243.539 241.032 241.095 240.588 238.808 239.691C236.521 238.795 234.436 237.463 232.672 235.772C230.908 234.082 229.499 232.066 228.526 229.839C227.554 227.612 227.036 225.218 227.003 222.794Z" fill="#E0E0E0"/>
<path d="M243 203.006C245.858 202.94 248.7 203.429 251.361 204.444C254.022 205.459 256.447 206.98 258.496 208.918C260.545 210.856 262.175 213.172 263.292 215.73C264.409 218.288 264.989 221.038 265 223.817L253.52 224C253.422 218.336 248.989 214.765 243.182 214.854L243 203.006Z" fill="#EBEBEB"/>
</svg>
