<svg width="337" height="337" viewBox="0 0 337 337" fill="none" xmlns="http://www.w3.org/2000/svg">
<circle cx="168.051" cy="168.051" r="61.0507" fill="#F5F5F5"/>
<path d="M168 198C181.975 198 193.719 188.444 197.052 175.51M168 198C154.025 198 142.281 188.444 138.948 175.51M168 198C176.284 198 183 184.569 183 168C183 151.431 176.284 138 168 138M168 198C159.716 198 153 184.569 153 168C153 151.431 159.716 138 168 138M168 138C179.217 138 188.997 144.156 194.144 153.275M168 138C156.783 138 147.003 144.156 141.856 153.275M194.144 153.275C187.132 159.335 177.994 163 168 163C158.006 163 148.868 159.335 141.856 153.275M194.144 153.275C196.599 157.625 198 162.649 198 168C198 170.593 197.671 173.11 197.052 175.51M197.052 175.51C188.445 180.282 178.54 183 168 183C157.46 183 147.555 180.282 138.948 175.51M138.948 175.51C138.329 173.11 138 170.593 138 168C138 162.649 139.401 157.625 141.856 153.275" stroke="#4F46E5" stroke-width="2" stroke-linecap="round" stroke-linejoin="round"/>
<line x1="229.551" y1="170.692" x2="258.855" y2="170.692" stroke="url(#paint0_linear_1277_17758)" stroke-width="0.5"/>
<line x1="215.94" y1="130.435" x2="236.662" y2="109.713" stroke="url(#paint1_linear_1277_17758)" stroke-width="0.5"/>
<line y1="-0.25" x2="29.3043" y2="-0.25" transform="matrix(0.707107 0.707107 0.707107 -0.707107 216.117 206.351)" stroke="url(#paint2_linear_1277_17758)" stroke-width="0.5"/>
<line y1="-0.25" x2="29.3043" y2="-0.25" transform="matrix(-0.707107 -0.707107 -0.707107 0.707107 120.844 130.612)" stroke="url(#paint3_linear_1277_17758)" stroke-width="0.5"/>
<line x1="121.021" y1="206.527" x2="100.299" y2="227.249" stroke="url(#paint4_linear_1277_17758)" stroke-width="0.5"/>
<line y1="-0.25" x2="29.3043" y2="-0.25" transform="matrix(-1 0 0 1 107.449 170.942)" stroke="url(#paint5_linear_1277_17758)" stroke-width="0.5"/>
<line x1="168.25" y1="107.449" x2="168.25" y2="78.1449" stroke="url(#paint6_linear_1277_17758)" stroke-width="0.5"/>
<line y1="-0.25" x2="29.3043" y2="-0.25" transform="matrix(-4.37114e-08 1 1 4.37114e-08 168.5 229.551)" stroke="url(#paint7_linear_1277_17758)" stroke-width="0.5"/>
<circle cx="297.928" cy="170.943" r="38.8725" stroke="black" stroke-width="0.4"/>
<circle cx="39.0725" cy="170.943" r="38.8725" stroke="black" stroke-width="0.4"/>
<circle cx="245.425" cy="235.654" r="12.0101" stroke="#9CA3AF" stroke-width="0.4"/>
<circle cx="91.5773" cy="235.654" r="12.0101" stroke="#9CA3AF" stroke-width="0.4"/>
<g clip-path="url(#clip0_1277_17758)">
<path fill-rule="evenodd" clip-rule="evenodd" d="M69.2121 282.043C68.4974 279.375 70.0803 276.634 72.7476 275.919L94.4809 270.095C97.1483 269.381 99.8899 270.964 100.605 273.631L105.781 292.949C106.496 295.617 104.913 298.358 102.245 299.073L80.5122 304.897C77.8448 305.611 75.1032 304.028 74.3884 301.361L69.2121 282.043ZM99.4839 279.108L72.921 286.225L76.8033 300.714C77.1606 302.048 78.5315 302.839 79.8651 302.482L101.598 296.658C102.932 296.301 103.724 294.93 103.366 293.596L99.4839 279.108ZM73.7182 279.541C73.0513 279.72 72.6556 280.405 72.8343 281.072L72.8375 281.084C73.0162 281.751 73.7016 282.147 74.3685 281.968L74.3805 281.965C75.0474 281.786 75.4431 281.101 75.2644 280.434L75.2612 280.422C75.0825 279.755 74.3971 279.359 73.7302 279.538L73.7182 279.541ZM76.4565 280.101C76.2778 279.435 76.6736 278.749 77.3404 278.57L77.3525 278.567C78.0193 278.389 78.7047 278.784 78.8834 279.451L78.8866 279.463C79.0653 280.13 78.6696 280.815 78.0027 280.994L77.9907 280.997C77.3238 281.176 76.6384 280.78 76.4597 280.113L76.4565 280.101ZM80.9626 277.6C80.2958 277.779 79.9001 278.464 80.0787 279.131L80.082 279.143C80.2606 279.81 80.9461 280.205 81.6129 280.027L81.625 280.024C82.2918 279.845 82.6875 279.159 82.5089 278.493L82.5056 278.481C82.3269 277.814 81.6415 277.418 80.9747 277.597L80.9626 277.6Z" fill="#EBEBEB"/>
</g>
<g clip-path="url(#clip1_1277_17758)">
<path d="M247.813 274.66C251.41 275.14 255.016 275.857 258.614 276.821C262.212 277.785 265.693 278.967 269.048 280.35C272.157 281.631 273.728 284.946 273.081 288.123C272.584 287.794 272.038 287.518 271.446 287.306C269.171 286.489 266.845 285.761 264.47 285.124C262.095 284.488 259.716 283.956 257.338 283.526C253.299 282.795 249.585 285.382 248.578 289.142L246.654 296.322C245.895 299.155 246.8 302.178 248.942 304.09L243.306 307.343C242.851 307.606 242.281 307.569 241.864 307.249C241.446 306.928 241.263 306.388 241.399 305.88L243.208 299.128C242.617 298.9 242.029 298.665 241.445 298.425C238.197 297.086 236.628 293.527 237.513 290.225L240.308 279.795C241.192 276.493 244.331 274.195 247.813 274.66Z" fill="#F5F5F5"/>
<path d="M263.797 287.638C261.491 287.02 259.182 286.504 256.875 286.086C254.238 285.609 251.767 287.293 251.091 289.815L249.167 296.996C248.49 299.522 249.794 302.218 252.32 303.121C254.358 303.849 256.439 304.507 258.561 305.089L261.972 310.998C262.235 311.454 262.747 311.706 263.269 311.637C263.791 311.569 264.22 311.193 264.356 310.684L265.429 306.68C265.617 306.716 265.806 306.751 265.994 306.785C268.633 307.266 271.11 305.583 271.787 303.057L273.711 295.876C274.387 293.354 273.089 290.66 270.567 289.755C268.36 288.963 266.102 288.255 263.797 287.638Z" fill="#F5F5F5"/>
</g>
<circle cx="245.425" cy="101.345" r="12.0101" stroke="#9CA3AF" stroke-width="0.4"/>
<circle cx="91.5773" cy="101.345" r="12.0101" stroke="#9CA3AF" stroke-width="0.4"/>
<circle cx="168.502" cy="39.0725" r="38.8725" fill="white" stroke="black" stroke-width="0.4"/>
<circle cx="168.502" cy="297.928" r="38.8725" stroke="black" stroke-width="0.4"/>
<path fill-rule="evenodd" clip-rule="evenodd" d="M160.714 28.6931V29.9905H157.276C155.617 29.9905 154.225 31.2436 154.051 32.8943L151.866 53.6515C151.664 55.5665 153.166 57.2344 155.091 57.2344H181.904C183.83 57.2344 185.331 55.5665 185.13 53.6515L182.945 32.8943C182.771 31.2436 181.379 29.9905 179.719 29.9905H176.282V28.6931C176.282 24.3942 172.797 20.9092 168.498 20.9092C164.199 20.9092 160.714 24.3942 160.714 28.6931ZM168.498 23.5038C165.632 23.5038 163.308 25.8272 163.308 28.6931V29.9905H173.687V28.6931C173.687 25.8272 171.364 23.5038 168.498 23.5038ZM163.308 37.7744C163.308 40.6404 165.632 42.9638 168.498 42.9638C171.364 42.9638 173.687 40.6404 173.687 37.7744V36.4771C173.687 35.7606 174.268 35.1798 174.984 35.1798C175.701 35.1798 176.282 35.7606 176.282 36.4771V37.7744C176.282 42.0734 172.797 45.5584 168.498 45.5584C164.199 45.5584 160.714 42.0734 160.714 37.7744V36.4771C160.714 35.7606 161.294 35.1798 162.011 35.1798C162.727 35.1798 163.308 35.7606 163.308 36.4771V37.7744Z" fill="#4F46E5"/>
<path d="M150.336 292.166V307.009C150.336 309.875 152.659 312.198 155.525 312.198H181.472C184.338 312.198 186.661 309.875 186.661 307.009V292.166L171.218 301.669C169.55 302.696 167.447 302.696 165.779 301.669L150.336 292.166Z" fill="#4F46E5"/>
<path d="M186.661 289.12V288.847C186.661 285.981 184.338 283.657 181.472 283.657H155.525C152.659 283.657 150.336 285.981 150.336 288.847V289.12L167.139 299.46C167.973 299.973 169.024 299.973 169.858 299.46L186.661 289.12Z" fill="#4F46E5"/>
<path d="M295.335 182.618C294.619 182.618 294.038 183.199 294.038 183.916C294.038 184.632 294.619 185.213 295.335 185.213H300.525C301.241 185.213 301.822 184.632 301.822 183.916C301.822 183.199 301.241 182.618 300.525 182.618H295.335Z" fill="#4F46E5"/>
<path fill-rule="evenodd" clip-rule="evenodd" d="M292.092 151.482C288.868 151.482 286.254 154.096 286.254 157.32V184.564C286.254 187.789 288.868 190.402 292.092 190.402H303.768C306.992 190.402 309.606 187.789 309.606 184.564V157.32C309.606 154.096 306.992 151.482 303.768 151.482H292.092ZM290.146 157.32C290.146 156.246 291.017 155.374 292.092 155.374H294.038V156.023C294.038 157.098 294.909 157.969 295.984 157.969H299.876C300.951 157.969 301.822 157.098 301.822 156.023V155.374H303.768C304.843 155.374 305.714 156.246 305.714 157.32V184.564C305.714 185.639 304.843 186.51 303.768 186.51H292.092C291.017 186.51 290.146 185.639 290.146 184.564V157.32Z" fill="#4F46E5"/>
<path fill-rule="evenodd" clip-rule="evenodd" d="M28.048 152.78C26.2568 152.78 24.8047 154.232 24.8047 156.024V185.862C24.8047 187.653 26.2568 189.105 28.048 189.105H50.1026C51.8938 189.105 53.3459 187.653 53.3459 185.862V172.24C53.3459 168.658 50.4417 165.754 46.8593 165.754H43.6159C41.8247 165.754 40.3726 164.301 40.3726 162.51V159.267C40.3726 155.684 37.4685 152.78 33.886 152.78H28.048ZM31.2913 176.132C31.2913 175.416 31.8722 174.835 32.5887 174.835H45.5619C46.2784 174.835 46.8593 175.416 46.8593 176.132C46.8593 176.849 46.2784 177.43 45.5619 177.43H32.5887C31.8722 177.43 31.2913 176.849 31.2913 176.132ZM32.5887 180.024C31.8722 180.024 31.2913 180.605 31.2913 181.321C31.2913 182.038 31.8722 182.619 32.5887 182.619H39.0753C39.7918 182.619 40.3726 182.038 40.3726 181.321C40.3726 180.605 39.7918 180.024 39.0753 180.024H32.5887Z" fill="#4F46E5"/>
<path d="M40.7552 153.327C42.1335 154.919 42.9673 156.996 42.9673 159.267V162.51C42.9673 162.868 43.2577 163.159 43.6159 163.159H46.8593C49.1305 163.159 51.2071 163.993 52.7995 165.371C51.2636 159.492 46.6346 154.863 40.7552 153.327Z" fill="#4F46E5"/>
<defs>
<linearGradient id="paint0_linear_1277_17758" x1="258.855" y1="170.942" x2="229.551" y2="170.942" gradientUnits="userSpaceOnUse">
<stop stop-color="#4F46E5"/>
<stop offset="1" stop-color="#4F46E5" stop-opacity="0"/>
</linearGradient>
<linearGradient id="paint1_linear_1277_17758" x1="236.838" y1="109.89" x2="216.117" y2="130.611" gradientUnits="userSpaceOnUse">
<stop stop-color="#9CA3AF"/>
<stop offset="1" stop-color="#9CA3AF" stop-opacity="0"/>
</linearGradient>
<linearGradient id="paint2_linear_1277_17758" x1="29.3043" y1="0" x2="0" y2="0" gradientUnits="userSpaceOnUse">
<stop stop-color="#9CA3AF"/>
<stop offset="1" stop-color="#9CA3AF" stop-opacity="0"/>
</linearGradient>
<linearGradient id="paint3_linear_1277_17758" x1="29.3043" y1="0" x2="0" y2="0" gradientUnits="userSpaceOnUse">
<stop stop-color="#9CA3AF"/>
<stop offset="1" stop-color="#9CA3AF" stop-opacity="0"/>
</linearGradient>
<linearGradient id="paint4_linear_1277_17758" x1="100.122" y1="227.072" x2="120.844" y2="206.351" gradientUnits="userSpaceOnUse">
<stop stop-color="#9CA3AF"/>
<stop offset="1" stop-color="#9CA3AF" stop-opacity="0"/>
</linearGradient>
<linearGradient id="paint5_linear_1277_17758" x1="29.3043" y1="0" x2="0" y2="0" gradientUnits="userSpaceOnUse">
<stop stop-color="#4F46E5"/>
<stop offset="1" stop-color="#4F46E5" stop-opacity="0"/>
</linearGradient>
<linearGradient id="paint6_linear_1277_17758" x1="168.5" y1="78.1449" x2="168.5" y2="107.449" gradientUnits="userSpaceOnUse">
<stop stop-color="#4F46E5"/>
<stop offset="1" stop-color="#4F46E5" stop-opacity="0"/>
</linearGradient>
<linearGradient id="paint7_linear_1277_17758" x1="29.3043" y1="0" x2="0" y2="0" gradientUnits="userSpaceOnUse">
<stop stop-color="#4F46E5"/>
<stop offset="1" stop-color="#4F46E5" stop-opacity="0"/>
</linearGradient>
<clipPath id="clip0_1277_17758">
<rect width="40" height="40" fill="white" transform="translate(63 273.354) rotate(-15)"/>
</clipPath>
<clipPath id="clip1_1277_17758">
<rect width="41.6314" height="41.6314" fill="white" transform="translate(240.773 268) rotate(15)"/>
</clipPath>
</defs>
</svg>
