<svg width="126" height="104" viewBox="0 0 126 104" fill="none" xmlns="http://www.w3.org/2000/svg">
<g filter="url(#filter0_dd_1129_11792)">
<path d="M77.5052 93.1022C77.1859 93.102 76.872 93.0192 76.594 92.8617C76.3161 92.7042 76.0835 92.4775 75.9188 92.2035L61.9484 68.871L35.8436 75.9796C35.4397 76.0901 35.0103 76.0597 34.626 75.8933C34.2417 75.7269 33.9254 75.4344 33.7292 75.064L3.21561 17.5871C3.07602 17.3237 3.00207 17.0305 3.00004 16.7323C2.99802 16.4341 3.06798 16.1399 3.20397 15.8746C3.33996 15.6094 3.53795 15.3809 3.78109 15.2088C4.02423 15.0367 4.30532 14.9259 4.60041 14.886L30.5204 11.3917C30.8783 11.3432 31.2426 11.4009 31.5681 11.5576C31.8937 11.7144 32.1661 11.9634 32.3516 12.2737L63.6764 64.5765L100.048 54.673L87.902 37.5287C87.7241 37.2813 87.6101 36.9937 87.5699 36.6915C87.5298 36.3893 87.5648 36.0819 87.6719 35.7965C87.779 35.5112 87.9549 35.2567 88.1839 35.0558C88.4128 34.8549 88.6878 34.7137 88.9844 34.6449L106.003 30.622C106.342 30.5414 106.698 30.559 107.028 30.6725C107.358 30.7861 107.649 30.9911 107.868 31.2636L122.594 49.6768C122.785 49.9165 122.914 50.2002 122.969 50.5023C123.024 50.8044 123.002 51.1153 122.907 51.4071C122.812 51.6989 122.646 51.9623 122.423 52.1738C122.201 52.3852 121.93 52.538 121.634 52.6183L106.12 56.8431L119.64 75.9339C119.807 76.1668 119.918 76.4357 119.964 76.7192C120.01 77.0027 119.989 77.2929 119.903 77.5668C119.817 77.8408 119.668 78.0908 119.469 78.2971C119.269 78.5034 119.025 78.6603 118.754 78.7553L78.1196 92.9989C77.922 93.0675 77.7143 93.1024 77.5052 93.1022ZM65.6516 67.8689L78.314 89.0168L115.216 76.0781L102.326 57.8836L65.6516 67.8689ZM7.72281 18.1951L36.2996 72.0263L59.9732 65.581L29.8172 15.22L7.72281 18.1951ZM92.5004 37.6152L103.848 53.6276L117.95 49.7825L105.71 34.4839L92.5004 37.6152Z" fill="white"/>
</g>
<defs>
<filter id="filter0_dd_1129_11792" x="0" y="-2" width="126" height="110" filterUnits="userSpaceOnUse" color-interpolation-filters="sRGB">
<feFlood flood-opacity="0" result="BackgroundImageFix"/>
<feColorMatrix in="SourceAlpha" type="matrix" values="0 0 0 0 0 0 0 0 0 0 0 0 0 0 0 0 0 0 127 0" result="hardAlpha"/>
<feOffset dy="1"/>
<feGaussianBlur stdDeviation="1"/>
<feColorMatrix type="matrix" values="0 0 0 0 0 0 0 0 0 0 0 0 0 0 0 0 0 0 0.06 0"/>
<feBlend mode="normal" in2="BackgroundImageFix" result="effect1_dropShadow_1129_11792"/>
<feColorMatrix in="SourceAlpha" type="matrix" values="0 0 0 0 0 0 0 0 0 0 0 0 0 0 0 0 0 0 127 0" result="hardAlpha"/>
<feOffset dy="1"/>
<feGaussianBlur stdDeviation="1.5"/>
<feColorMatrix type="matrix" values="0 0 0 0 0 0 0 0 0 0 0 0 0 0 0 0 0 0 0.1 0"/>
<feBlend mode="normal" in2="effect1_dropShadow_1129_11792" result="effect2_dropShadow_1129_11792"/>
<feBlend mode="normal" in="SourceGraphic" in2="effect2_dropShadow_1129_11792" result="shape"/>
</filter>
</defs>
</svg>
