<svg width="176" height="176" viewBox="0 0 176 176" fill="none" xmlns="http://www.w3.org/2000/svg">
<path d="M86.8607 47.2994C87.2835 46.283 88.7232 46.283 89.146 47.2994L93.8231 58.5446C94.0013 58.973 94.4043 59.2658 94.8668 59.3029L107.007 60.2761C108.104 60.3641 108.549 61.7334 107.713 62.4495L98.4636 70.3727C98.1112 70.6746 97.9573 71.1483 98.065 71.5997L100.891 83.4464C101.146 84.5171 99.9814 85.3634 99.0421 84.7896L88.6484 78.4412C88.2524 78.1993 87.7543 78.1993 87.3583 78.4412L76.9646 84.7896C76.0253 85.3634 74.8605 84.5171 75.1159 83.4464L77.9417 71.5997C78.0494 71.1483 77.8955 70.6746 77.5431 70.3727L68.2936 62.4495C67.4576 61.7334 67.9025 60.3641 68.9997 60.2762L81.1399 59.3029C81.6024 59.2658 82.0054 58.973 82.1836 58.5446L86.8607 47.2994Z" stroke="#818CF8" stroke-width="4" stroke-linecap="round" stroke-linejoin="round"/>
<path d="M134.202 65.4508C134.202 71.4456 133.022 77.3818 130.727 82.9203C128.433 88.4588 125.071 93.4912 120.832 97.7302C116.593 101.969 111.56 105.332 106.022 107.626C100.483 109.92 94.5472 111.101 88.5523 111.101C82.5575 111.101 76.6214 109.92 71.0828 107.626C65.5443 105.332 60.5119 101.969 56.2729 97.7302C52.0339 93.4912 48.6714 88.4588 46.3772 82.9203C44.0831 77.3818 42.9023 71.4456 42.9023 65.4508C42.9023 53.3436 47.7119 41.7324 56.2729 33.1714C64.834 24.6103 76.4452 19.8008 88.5523 19.8008C100.659 19.8008 112.271 24.6103 120.832 33.1714C129.393 41.7324 134.202 53.3436 134.202 65.4508Z" stroke="#818CF8" stroke-width="4"/>
<path d="M46.1428 84.7012L8.80078 122.38H44.0524V156.201L87.1302 112.735C87.9127 111.945 89.1888 111.945 89.9713 112.735L133.049 156.201V122.38L168.301 122.38L130.959 84.7012" stroke="#818CF8" stroke-width="4"/>
</svg>
