<svg width="280" height="392" viewBox="0 0 280 392" fill="none" xmlns="http://www.w3.org/2000/svg">
<rect width="280" height="392" fill="#17313B"/>
<path d="M88.04 133H86.68V121.8C87.304 121.8 89.368 121.768 89.688 121.768C92.744 121.768 93.672 123.288 93.672 125.096C93.672 126.84 92.472 127.944 91.24 128.264L94.968 133H93.304L89.864 128.52H88.04V133ZM89.608 123.048C89.256 123.048 88.568 123.064 88.04 123.08V127.24H89.688C90.984 127.24 92.232 126.44 92.232 125.112C92.232 123.96 91.592 123.048 89.608 123.048ZM96.9613 133V121.8H103.281V123.08H98.3213V126.696H102.801V127.976H98.3213V131.72H103.441V133H96.9613ZM114.9 121.8L110.292 133.064H109.284L104.564 121.8H106.02L109.828 131.016L113.524 121.8H114.9ZM116.984 133V121.8H118.344V133H116.984ZM122.024 133V121.8H128.344V123.08H123.384V126.696H127.864V127.976H123.384V131.72H128.504V133H122.024ZM144.907 121.8L141.675 133H140.427L137.355 123.992L134.347 133H133.099L129.707 121.8H131.243L133.851 130.712L136.747 121.8H138.059L141.035 130.712L143.579 121.8H144.907ZM146.743 133V121.8H153.062V123.08H148.103V126.696H152.583V127.976H148.103V131.72H153.223V133H146.743ZM155.946 133V121.8H156.138C156.874 121.8 158.09 121.752 159.002 121.752C163.482 121.752 165.29 124.328 165.29 127.256C165.29 130.44 163.146 133.032 158.874 133.032C158.122 133.032 157.066 133 156.122 133H155.946ZM158.97 123.032C158.298 123.032 157.866 123.064 157.306 123.08V131.72C158.042 131.736 158.73 131.752 158.922 131.752C162.122 131.752 163.85 129.864 163.85 127.256C163.85 124.824 162.218 123.032 158.97 123.032ZM170.488 127.4C170.488 124.152 172.872 121.64 176.2 121.64C179.448 121.64 181.912 123.992 181.912 127.4C181.912 130.728 179.448 133.16 176.2 133.16C172.952 133.16 170.488 130.808 170.488 127.4ZM171.928 127.4C171.928 129.944 173.799 131.88 176.2 131.88C178.76 131.88 180.472 129.928 180.472 127.4C180.472 124.792 178.6 122.92 176.2 122.92C173.768 122.92 171.928 124.792 171.928 127.4ZM193.759 133H192.671L185.679 124.2V133H184.399V121.8H185.487L192.479 130.632V121.8H193.759V133Z" fill="white"/>
<path d="M95.72 269V267.96C97.544 266.168 100.728 263.144 100.728 260.76C100.728 259.768 100.12 258.952 98.904 258.952C98.008 258.952 97.128 259.544 96.904 260.744L95.816 260.296C96.088 258.632 97.448 257.672 99.016 257.672C101.112 257.672 102.088 259.112 102.088 260.504C102.088 263.64 98.28 267.016 97.384 267.8H102.552V269H95.72ZM108.926 269V266.2H103.758V265.288L108.398 257.8H109.87L105.438 264.92H108.926V261.8H110.206V264.92H111.758V266.2H110.206V269H108.926ZM118.868 269H117.508V257.8C118.132 257.8 120.196 257.768 120.516 257.768C123.572 257.768 124.5 259.288 124.5 261.096C124.5 262.84 123.3 263.944 122.068 264.264L125.796 269H124.132L120.692 264.52H118.868V269ZM120.436 259.048C120.084 259.048 119.396 259.064 118.868 259.08V263.24H120.516C121.812 263.24 123.06 262.44 123.06 261.112C123.06 259.96 122.42 259.048 120.436 259.048ZM127.789 269V257.8H134.109V259.08H129.149V262.696H133.629V263.976H129.149V267.72H134.269V269H127.789ZM145.729 257.8L141.121 269.064H140.113L135.393 257.8H136.849L140.657 267.016L144.352 257.8H145.729ZM147.812 269V257.8H149.173V269H147.812ZM152.852 269V257.8H159.172V259.08H154.212V262.696H158.692V263.976H154.212V267.72H159.332V269H152.852ZM175.735 257.8L172.503 269H171.255L168.183 259.992L165.175 269H163.927L160.535 257.8H162.071L164.679 266.712L167.575 257.8H168.887L171.863 266.712L174.407 257.8H175.735ZM182.435 266.136C182.435 263.4 176.963 264.28 176.963 260.568C176.963 258.952 178.211 257.64 180.339 257.64C181.635 257.64 182.787 258.104 183.427 258.808L182.691 259.832C182.099 259.24 181.395 258.92 180.419 258.92C179.171 258.92 178.403 259.576 178.403 260.568C178.403 263.336 183.875 262.296 183.875 266.12C183.875 267.96 182.259 269.16 180.227 269.16C178.851 269.16 177.251 268.536 176.691 267.48L177.475 266.552C178.131 267.416 179.299 267.88 180.243 267.88C181.411 267.88 182.435 267.272 182.435 266.136Z" fill="white"/>
<g clip-path="url(#clip0_892_19740)">
<path d="M105.948 156H112.413V196H105.948V156ZM135.039 183.24C135.039 189.362 129.84 189.85 128.293 189.85C124.429 189.85 123.726 186.269 123.726 184.109V168.8H117.261V184.077C117.261 187.869 118.464 190.998 120.571 193.085C122.433 194.93 125.222 195.938 128.245 195.938C130.388 195.938 133.423 195.277 135.039 193.816V196H141.504V168.8H135.039V183.24ZM154.433 159.2H147.969V168.8H143.12V175.2H147.969V196H154.433V175.2H159.282V168.8H154.433V159.2ZM179.641 187.867C178.233 189.12 176.375 189.814 174.335 189.814C169.839 189.814 166.537 186.546 166.537 182.058C166.537 177.57 169.734 174.438 174.335 174.438C176.339 174.438 178.233 175.099 179.677 176.352L180.658 177.187L185.017 172.874L183.926 171.899C181.361 169.606 177.955 168.32 174.334 168.32C166.253 168.32 160.384 174.093 160.384 182.024C160.384 189.922 166.393 195.901 174.334 195.901C178.023 195.901 181.464 194.614 183.997 192.285L185.051 191.31L180.624 187L179.641 187.867ZM208.091 171.171C206.229 169.328 204.047 168.32 201.025 168.32C198.882 168.32 196.454 168.981 194.838 170.44V156H188.373V196H194.838V181.016C194.838 174.894 199.231 174.408 200.778 174.408C204.642 174.408 204.535 177.99 204.535 180.147V196H211V180.181C211 176.389 210.2 173.259 208.091 171.171Z" fill="white"/>
<path d="M174.122 177.5C175.361 177.5 176.55 177.988 177.427 178.855C178.303 179.723 178.796 180.9 178.796 182.127C178.796 183.354 178.303 184.531 177.427 185.399C176.55 186.267 175.361 186.754 174.122 186.754C172.882 186.754 171.693 186.267 170.817 185.399C169.94 184.531 169.448 183.354 169.448 182.127C169.448 180.9 169.94 179.723 170.817 178.855C171.693 177.988 172.882 177.5 174.122 177.5Z" fill="#E62415"/>
<path d="M96.897 185.953C94.4388 188.457 91.0998 189.814 87.5862 189.814C80.3844 189.814 75.148 184.214 75.148 176.527C75.148 168.806 80.3844 163.206 87.5862 163.206C91.0658 163.206 94.3677 164.561 96.8631 167.031L97.8457 168.006L102.167 163.727L101.219 162.753C97.6356 159.1 92.7871 157.119 87.5862 157.119C76.9759 157.119 69 165.466 69 176.561C69 187.622 77.0115 195.935 87.5862 195.935C92.8226 195.935 97.6712 193.919 101.254 190.266L102.203 189.292L97.9169 184.945L96.897 185.953Z" fill="white"/>
</g>
<g clip-path="url(#clip1_892_19740)">
<path d="M75.88 230.76L69.66 234.52C69.4918 234.625 69.2964 234.677 69.0986 234.67C68.9008 234.663 68.7095 234.597 68.5489 234.482C68.3883 234.366 68.2656 234.205 68.1964 234.02C68.1271 233.835 68.1145 233.633 68.16 233.44L69.82 226.38L64.34 221.62C64.1951 221.49 64.0914 221.32 64.0415 221.132C63.9917 220.944 63.998 220.745 64.0596 220.56C64.1212 220.375 64.2355 220.213 64.3883 220.092C64.5412 219.971 64.726 219.897 64.92 219.88L72.12 219.26L74.96 212.6C75.0369 212.42 75.165 212.266 75.3286 212.158C75.4922 212.05 75.6839 211.992 75.88 211.992C76.0761 211.992 76.2678 212.05 76.4314 212.158C76.595 212.266 76.7232 212.42 76.8 212.6L79.62 219.26L86.84 219.88C87.0374 219.892 87.2268 219.963 87.3831 220.084C87.5395 220.205 87.6556 220.37 87.7162 220.558C87.7768 220.747 87.779 220.949 87.7226 221.138C87.6661 221.328 87.5537 221.496 87.4 221.62L82 226.38L83.64 233.44C83.682 233.63 83.6678 233.828 83.5991 234.01C83.5304 234.192 83.4101 234.35 83.2531 234.464C83.0961 234.579 82.9091 234.645 82.7149 234.655C82.5208 234.665 82.328 234.618 82.16 234.52L75.88 230.76Z" fill="#FF3D2E"/>
</g>
<g clip-path="url(#clip2_892_19740)">
<path d="M107.88 230.76L101.66 234.52C101.492 234.625 101.296 234.677 101.099 234.67C100.901 234.663 100.71 234.597 100.549 234.482C100.388 234.366 100.266 234.205 100.196 234.02C100.127 233.835 100.114 233.633 100.16 233.44L101.82 226.38L96.34 221.62C96.1951 221.49 96.0914 221.32 96.0415 221.132C95.9917 220.944 95.998 220.745 96.0596 220.56C96.1212 220.375 96.2355 220.213 96.3883 220.092C96.5412 219.971 96.726 219.897 96.92 219.88L104.12 219.26L106.96 212.6C107.037 212.42 107.165 212.266 107.329 212.158C107.492 212.05 107.684 211.992 107.88 211.992C108.076 211.992 108.268 212.05 108.431 212.158C108.595 212.266 108.723 212.42 108.8 212.6L111.62 219.26L118.84 219.88C119.037 219.892 119.227 219.963 119.383 220.084C119.54 220.205 119.656 220.37 119.716 220.558C119.777 220.747 119.779 220.949 119.723 221.138C119.666 221.328 119.554 221.496 119.4 221.62L114 226.38L115.64 233.44C115.682 233.63 115.668 233.828 115.599 234.01C115.53 234.192 115.41 234.35 115.253 234.464C115.096 234.579 114.909 234.645 114.715 234.655C114.521 234.665 114.328 234.618 114.16 234.52L107.88 230.76Z" fill="#FF3D2E"/>
</g>
<g clip-path="url(#clip3_892_19740)">
<path d="M139.88 230.76L133.66 234.52C133.492 234.625 133.296 234.677 133.099 234.67C132.901 234.663 132.71 234.597 132.549 234.482C132.388 234.366 132.266 234.205 132.196 234.02C132.127 233.835 132.114 233.633 132.16 233.44L133.82 226.38L128.34 221.62C128.195 221.49 128.091 221.32 128.042 221.132C127.992 220.944 127.998 220.745 128.06 220.56C128.121 220.375 128.235 220.213 128.388 220.092C128.541 219.971 128.726 219.897 128.92 219.88L136.12 219.26L138.96 212.6C139.037 212.42 139.165 212.266 139.329 212.158C139.492 212.05 139.684 211.992 139.88 211.992C140.076 211.992 140.268 212.05 140.431 212.158C140.595 212.266 140.723 212.42 140.8 212.6L143.62 219.26L150.84 219.88C151.037 219.892 151.227 219.963 151.383 220.084C151.54 220.205 151.656 220.37 151.716 220.558C151.777 220.747 151.779 220.949 151.723 221.138C151.666 221.328 151.554 221.496 151.4 221.62L146 226.38L147.64 233.44C147.682 233.63 147.668 233.828 147.599 234.01C147.53 234.192 147.41 234.35 147.253 234.464C147.096 234.579 146.909 234.645 146.715 234.655C146.521 234.665 146.328 234.618 146.16 234.52L139.88 230.76Z" fill="#FF3D2E"/>
</g>
<g clip-path="url(#clip4_892_19740)">
<path d="M171.88 230.76L165.66 234.52C165.492 234.625 165.296 234.677 165.099 234.67C164.901 234.663 164.71 234.597 164.549 234.482C164.388 234.366 164.266 234.205 164.196 234.02C164.127 233.835 164.114 233.633 164.16 233.44L165.82 226.38L160.34 221.62C160.195 221.49 160.091 221.32 160.042 221.132C159.992 220.944 159.998 220.745 160.06 220.56C160.121 220.375 160.235 220.213 160.388 220.092C160.541 219.971 160.726 219.897 160.92 219.88L168.12 219.26L170.96 212.6C171.037 212.42 171.165 212.266 171.329 212.158C171.492 212.05 171.684 211.992 171.88 211.992C172.076 211.992 172.268 212.05 172.431 212.158C172.595 212.266 172.723 212.42 172.8 212.6L175.62 219.26L182.84 219.88C183.037 219.892 183.227 219.963 183.383 220.084C183.54 220.205 183.656 220.37 183.716 220.558C183.777 220.747 183.779 220.949 183.723 221.138C183.666 221.328 183.554 221.496 183.4 221.62L178 226.38L179.64 233.44C179.682 233.63 179.668 233.828 179.599 234.01C179.53 234.192 179.41 234.35 179.253 234.464C179.096 234.579 178.909 234.645 178.715 234.655C178.521 234.665 178.328 234.618 178.16 234.52L171.88 230.76Z" fill="#FF3D2E"/>
</g>
<g clip-path="url(#clip5_892_19740)">
<path d="M203.88 230.76L197.66 234.52C197.492 234.625 197.296 234.677 197.099 234.67C196.901 234.663 196.71 234.597 196.549 234.482C196.388 234.366 196.266 234.205 196.196 234.02C196.127 233.835 196.114 233.633 196.16 233.44L197.82 226.38L192.34 221.62C192.195 221.49 192.091 221.32 192.042 221.132C191.992 220.944 191.998 220.745 192.06 220.56C192.121 220.375 192.235 220.213 192.388 220.092C192.541 219.971 192.726 219.897 192.92 219.88L200.12 219.26L202.96 212.6C203.037 212.42 203.165 212.266 203.329 212.158C203.492 212.05 203.684 211.992 203.88 211.992C204.076 211.992 204.268 212.05 204.431 212.158C204.595 212.266 204.723 212.42 204.8 212.6L207.62 219.26L214.84 219.88C215.037 219.892 215.227 219.963 215.383 220.084C215.54 220.205 215.656 220.37 215.716 220.558C215.777 220.747 215.779 220.949 215.723 221.138C215.666 221.328 215.554 221.496 215.4 221.62L210 226.38L211.64 233.44C211.682 233.63 211.668 233.828 211.599 234.01C211.53 234.192 211.41 234.35 211.253 234.464C211.096 234.579 210.909 234.645 210.715 234.655C210.521 234.665 210.328 234.618 210.16 234.52L203.88 230.76Z" fill="#FF3D2E"/>
</g>
<path d="M77.24 365L82.056 353.736H83.224L88.04 365H86.584L85.144 361.608H80.04L78.616 365H77.24ZM82.6 355.544L80.584 360.328H84.616L82.6 355.544ZM89.4333 363.08V353.8H90.7133V362.504C90.7133 363.48 90.9533 363.928 91.5613 363.928C91.9133 363.928 92.2333 363.768 92.4733 363.608L92.7613 364.584C92.3773 364.888 91.8173 365.128 91.0653 365.128C89.9773 365.128 89.4333 364.472 89.4333 363.08ZM94.0739 363.08V353.8H95.3539V362.504C95.3539 363.48 95.5939 363.928 96.2019 363.928C96.5539 363.928 96.8739 363.768 97.1139 363.608L97.4019 364.584C97.0179 364.888 96.4579 365.128 95.7059 365.128C94.6179 365.128 94.0739 364.472 94.0739 363.08ZM110.628 362.888L111.172 363.912C110.42 364.68 109.028 365.16 107.636 365.16C104.276 365.16 101.956 362.888 101.956 359.4C101.956 356.184 104.036 353.64 107.54 353.64C108.98 353.64 110.148 354.04 110.948 354.728L110.324 355.752C109.588 355.208 108.724 354.92 107.556 354.92C105.124 354.92 103.396 356.744 103.396 359.4C103.396 362.072 105.172 363.88 107.764 363.88C108.836 363.88 109.86 363.512 110.628 362.888ZM112.808 363.08V353.8H114.088V362.504C114.088 363.48 114.328 363.928 114.936 363.928C115.288 363.928 115.608 363.768 115.848 363.608L116.136 364.584C115.752 364.888 115.192 365.128 114.44 365.128C113.352 365.128 112.808 364.472 112.808 363.08ZM123.769 357.8V365H122.489V363.976C121.993 364.584 121.081 365.16 119.945 365.16C118.345 365.16 117.289 364.2 117.289 362.088V357.8H118.569V361.8C118.569 363.16 119.113 363.96 120.425 363.96C121.257 363.96 122.041 363.464 122.489 362.888V357.8H123.769ZM125.93 362.264V355.8H127.21V357.8H129.85V359H127.21V362.136C127.21 363.272 127.578 363.928 128.49 363.928C128.986 363.928 129.37 363.72 129.626 363.528L130.026 364.52C129.641 364.84 128.986 365.128 128.186 365.128C126.57 365.128 125.93 364.104 125.93 362.264ZM136.985 363.032L137.593 363.96C136.985 364.744 135.929 365.16 134.825 365.16C132.537 365.16 130.969 363.672 130.969 361.4C130.969 359.304 132.505 357.64 134.617 357.64C135.769 357.64 136.777 357.912 137.449 358.584L136.857 359.592C136.249 359.032 135.545 358.84 134.793 358.84C133.497 358.84 132.329 359.88 132.329 361.4C132.329 362.984 133.497 363.96 134.921 363.96C135.785 363.96 136.505 363.576 136.985 363.032ZM139.261 365V353.8H140.541V358.632C141.069 358.088 141.981 357.672 142.893 357.672C144.765 357.672 145.885 358.616 145.885 360.872V365H144.605V361.048C144.605 359.608 143.917 358.872 142.589 358.872C141.789 358.872 140.989 359.272 140.541 359.784V365H139.261ZM151.636 365V357.8H152.916V358.648C153.284 358.104 153.812 357.672 154.724 357.672C155.316 357.672 155.604 357.768 155.844 357.944L155.396 359.144C155.044 358.936 154.852 358.872 154.42 358.872C153.588 358.872 153.188 359.368 152.916 359.896V365H151.636ZM162.754 363.208L163.154 364.216C162.45 364.856 161.41 365.16 160.45 365.16C158.114 365.16 156.594 363.672 156.594 361.4C156.594 359.304 157.938 357.64 160.306 357.64C162.162 357.64 163.65 358.952 163.65 360.936C163.65 361.288 163.618 361.576 163.57 361.8H158.034C158.146 363.16 159.138 363.96 160.546 363.96C161.474 363.96 162.29 363.64 162.754 363.208ZM160.242 358.84C158.93 358.84 158.098 359.656 157.954 360.76H162.322C162.258 359.576 161.49 358.84 160.242 358.84ZM171.536 357.8L168.352 365.064H167.424L164.08 357.8H165.584L167.328 361.688C167.536 362.152 167.76 362.76 167.936 363.288C168.096 362.76 168.32 362.136 168.528 361.656L170.176 357.8H171.536ZM173.113 365V357.8H174.393V365H173.113ZM172.953 355.096C172.953 354.632 173.337 354.328 173.785 354.328C174.185 354.328 174.569 354.632 174.569 355.096C174.569 355.624 174.185 355.928 173.785 355.928C173.337 355.928 172.953 355.624 172.953 355.096ZM182.723 363.208L183.123 364.216C182.419 364.856 181.379 365.16 180.419 365.16C178.083 365.16 176.563 363.672 176.563 361.4C176.563 359.304 177.907 357.64 180.275 357.64C182.131 357.64 183.619 358.952 183.619 360.936C183.619 361.288 183.587 361.576 183.539 361.8H178.003C178.115 363.16 179.107 363.96 180.515 363.96C181.443 363.96 182.259 363.64 182.723 363.208ZM180.211 358.84C178.899 358.84 178.067 359.656 177.923 360.76H182.291C182.227 359.576 181.459 358.84 180.211 358.84ZM195.339 357.8L193.035 365.064H191.915L190.123 360.376C190.011 360.088 189.931 359.8 189.851 359.496C189.755 359.832 189.675 360.12 189.547 360.424L187.803 365.064H186.747L184.363 357.8H185.739L187.147 362.344C187.259 362.696 187.323 363.016 187.419 363.352C187.515 363.032 187.579 362.744 187.723 362.344L189.355 357.8H190.459L192.107 362.328C192.235 362.664 192.331 363.016 192.443 363.368C192.523 363 192.619 362.632 192.731 362.264L194.043 357.8H195.339ZM200.3 363.048C200.3 361.592 196.412 362.312 196.412 359.672C196.412 358.408 197.436 357.64 198.86 357.64C200.044 357.64 200.908 358.072 201.34 358.488L200.732 359.464C200.3 359.08 199.676 358.76 198.924 358.76C198.204 358.76 197.772 359.176 197.772 359.656C197.772 361.176 201.66 360.456 201.66 362.984C201.66 364.504 200.316 365.16 198.876 365.16C197.708 365.16 196.556 364.552 196.22 364.04L196.94 363.128C197.356 363.608 198.3 364.04 199.02 364.04C199.692 364.04 200.3 363.704 200.3 363.048Z" fill="white"/>
<path d="M77 366.6H202.38V367.4H77V366.6Z" fill="white"/>
<path fill-rule="evenodd" clip-rule="evenodd" d="M216.5 354.5L224 354.5C224.133 354.5 224.26 354.553 224.354 354.646C224.447 354.74 224.5 354.867 224.5 355V362.5C224.5 362.776 224.276 363 224 363C223.724 363 223.5 362.776 223.5 362.5V356.207L214.354 365.354C214.158 365.549 213.842 365.549 213.646 365.354C213.451 365.158 213.451 364.842 213.646 364.646L222.793 355.5L216.5 355.5C216.224 355.5 216 355.276 216 355C216 354.724 216.224 354.5 216.5 354.5Z" fill="white"/>
<defs>
<clipPath id="clip0_892_19740">
<rect width="142" height="40" fill="white" transform="translate(69 156)"/>
</clipPath>
<clipPath id="clip1_892_19740">
<rect width="24" height="24" fill="white" transform="translate(64 212)"/>
</clipPath>
<clipPath id="clip2_892_19740">
<rect width="24" height="24" fill="white" transform="translate(96 212)"/>
</clipPath>
<clipPath id="clip3_892_19740">
<rect width="24" height="24" fill="white" transform="translate(128 212)"/>
</clipPath>
<clipPath id="clip4_892_19740">
<rect width="24" height="24" fill="white" transform="translate(160 212)"/>
</clipPath>
<clipPath id="clip5_892_19740">
<rect width="24" height="24" fill="white" transform="translate(192 212)"/>
</clipPath>
</defs>
</svg>
